<?xml version="1.0" standalone="no"?>
<!DOCTYPE svg PUBLIC "-//W3C//DTD SVG 1.1//EN" "http://www.w3.org/Graphics/SVG/1.1/DTD/svg11.dtd" >
<svg xmlns="http://www.w3.org/2000/svg">
<metadata></metadata>
<defs>
<font id="freemonomedium" horiz-adv-x="600" >
<font-face units-per-em="1000" ascent="800" descent="-200" />
<missing-glyph horiz-adv-x="500" />
<glyph unicode="&#x5f2;&#x5b7;" d="M251 154h135q8 0 14 -6t6 -14q0 -9 -6 -15t-14 -6h-135q-8 0 -14.5 6t-6.5 15q0 8 6.5 14t14.5 6zM450 480v-240q0 -8 -6 -14.5t-14 -6.5t-14.5 6.5t-6.5 14.5v199h-89q-8 0 -14 6t-6 15q0 8 6 14t14 6h130zM240 480v-240q0 -8 -6 -14.5t-14 -6.5t-14.5 6.5t-6.5 14.5 v199h-89q-8 0 -14 6t-6 15q0 8 6 14t14 6h130z" />
<glyph unicode="&#xd;" />
<glyph unicode=" " />
<glyph unicode="!" d="M338 563l-18 -326q-2 -28 -21 -28q-18 0 -20 28l-18 326q0 2 -0.5 8t-0.5 8q0 17 11.5 28t28.5 11q16 0 27.5 -11t11.5 -28v-3t-0.5 -6t-0.5 -7zM293 85h13q23 0 38.5 -14.5t15.5 -35.5t-15.5 -35.5t-38.5 -14.5h-13q-22 0 -37.5 14.5t-15.5 35.5t15.5 35.5t37.5 14.5z " />
<glyph unicode="&#x22;" d="M146 604h128l-34 -253q-4 -36 -30 -36t-30 36zM326 604h128l-34 -253q-4 -36 -30 -36t-30 36z" />
<glyph unicode="#" d="M321 -36l16 225h-91l-15 -225q-3 -26 -21 -26q-8 0 -14 6t-6 15v8l16 222h-87q-27 0 -27 21q0 20 27 20h89l9 126h-78q-27 0 -27 21q0 20 27 20h81l16 225q2 25 21 25t19 -25v-3l-15 -222h91l16 225q1 25 20 25q20 0 20 -25v-3l-16 -222h89q27 0 27 -20q0 -21 -27 -21 h-91l-9 -126h80q27 0 27 -20q0 -21 -27 -21h-83l-16 -225q-1 -26 -21 -26q-7 0 -13.5 6t-6.5 13v7zM349 356h-91l-9 -126h91z" />
<glyph unicode="$" d="M446 201q0 36 -23 58t-57.5 29.5t-74.5 17t-74.5 20t-57.5 38t-23 71.5q0 54 40.5 94t103.5 47v52q0 27 21 27q20 0 20 -27v-52q33 -3 55 -12t49 -30q2 29 21 29q20 0 20 -27v-60q0 -27 -20 -27q-18 0 -21 22q-4 27 -40.5 47t-82.5 20q-52 0 -88.5 -30.5t-36.5 -73.5 q0 -33 23 -53.5t57.5 -27t74.5 -16t74.5 -20t57.5 -40.5t23 -76q0 -59 -45 -99t-121 -48v-119q0 -27 -20 -27q-21 0 -21 27v119q-35 2 -71 17t-55 37v-16q0 -27 -20 -27q-21 0 -21 27v79q0 27 21 27q17 0 20 -25q3 -32 46.5 -56t98.5 -24q64 0 105.5 30.5t41.5 77.5z" />
<glyph unicode="%" d="M361 236q52 0 87.5 -36.5t35.5 -89.5q0 -50 -36 -86t-86 -36q-51 0 -87 36.5t-36 87.5t36 87.5t86 36.5zM361 198q-35 0 -59.5 -25t-24.5 -61q0 -35 25 -60.5t60 -25.5q34 0 59 25t25 60q0 37 -24.5 62t-60.5 25zM237 611q52 0 87.5 -36t35.5 -89q0 -50 -36 -86.5 t-86 -36.5q-51 0 -87 36.5t-36 87.5t36 87.5t86 36.5zM237 573q-34 0 -59 -25.5t-25 -60.5t25 -60.5t60 -25.5q34 0 59 25.5t25 59.5q0 37 -24.5 62t-60.5 25zM495 344l-379 -122q-7 -3 -12 -3q-6 0 -11.5 6t-5.5 13q0 14 18 20l379 122q8 2 12 2q7 0 12 -5.5t5 -13.5 q0 -13 -18 -19z" />
<glyph unicode="&#x26;" d="M393 0l-31 48q-45 -64 -112 -64q-59 0 -102 47t-43 111q0 52 29.5 90.5t81.5 54.5q-34 55 -42 73t-8 40q0 49 36.5 84t86.5 35q33 0 66 -20q19 11 26 11t13 -6.5t6 -14.5q0 -12 -16 -21l-32 -16q-30 26 -63 26q-32 0 -57 -24.5t-25 -55.5t44 -100l111 -177q31 58 46 128 h43q27 0 27 -20q0 -21 -27 -21h-12q-22 -83 -53 -126l27 -41h38q27 0 27 -20q0 -21 -27 -21h-58zM338 86l-105 165q-40 -9 -63.5 -38.5t-23.5 -70.5q0 -47 31 -82t72 -35q55 0 89 61z" />
<glyph unicode="'" d="M236 604h128l-34 -253q-5 -36 -30 -36t-30 36z" />
<glyph unicode="(" d="M294 243q0 74 30.5 162.5t64.5 143.5t49 55q8 0 14 -6t6 -14q0 -11 -16 -40.5t-35.5 -65t-35.5 -100.5t-16 -138q0 -153 100 -333q3 -7 3 -11q0 -8 -6.5 -14t-14.5 -6q-16 0 -49.5 54.5t-63.5 144.5t-30 168z" />
<glyph unicode=")" d="M147 -104q0 11 16 40.5t35.5 65t35.5 100.5t16 138q0 154 -100 333q-3 8 -3 11q0 8 6.5 14t14.5 6q16 0 49.5 -54.5t63.5 -144.5t30 -168q0 -74 -30.5 -162.5t-64.5 -143.5t-49 -55q-8 0 -14 6t-6 14z" />
<glyph unicode="*" d="M279 438v139q0 27 21 27q20 0 20 -27v-139l133 43q8 3 15 3t13 -6t6 -14q0 -15 -21 -22l-133 -42l81 -112q7 -12 7 -18q0 -8 -6 -14t-14 -6q-10 0 -20 14l-82 112l-81 -112q-11 -14 -21 -14q-8 0 -14 6t-6 15q0 6 8 17l81 112l-133 42q-20 5 -20 21q0 8 6 14t14 6 q3 0 13 -3z" />
<glyph unicode="+" d="M320 261v-202q0 -27 -20 -27q-21 0 -21 27v202h-180q-27 0 -27 21q0 20 27 20h180v201q0 27 21 27q20 0 20 -27v-201h180q28 0 28 -20q0 -21 -28 -21h-180z" />
<glyph unicode="," d="M207 145h133l-145 -265q-13 -25 -31 -25q-12 0 -20.5 8.5t-8.5 20.5q0 3 2 11z" />
<glyph unicode="-" d="M501 258h-402q-27 0 -27 21q0 20 27 20h402q27 0 27 -20q0 -21 -27 -21z" />
<glyph unicode="." d="M295 116h10q29 0 49 -18.5t20 -46.5t-20 -47t-49 -19h-10q-29 0 -49 19t-20 47t20 46.5t49 18.5z" />
<glyph unicode="/" d="M482 633l-327 -696q-9 -18 -22 -18q-8 0 -14 6t-6 13q0 5 5 16l327 696q8 18 22 18q8 0 14 -6t6 -13q0 -6 -5 -16z" />
<glyph unicode="0" d="M487 351v-100q0 -118 -52 -192t-135 -74t-135 74t-52 192v100q0 119 52 193t135 74t135 -74t52 -193zM300 577q-68 0 -107 -68.5t-39 -162.5v-89q0 -98 40.5 -164.5t105.5 -66.5q68 0 107 68.5t39 162.5v89q0 98 -40.5 164.5t-105.5 66.5z" />
<glyph unicode="1" d="M321 612v-571h139q27 0 27 -20q0 -21 -27 -21h-319q-28 0 -28 21q0 20 28 20h139v517l-113 -113q-8 -8 -21 -8q-8 0 -13.5 6.5t-5.5 16.5q0 9 11 20l132 132h51z" />
<glyph unicode="2" d="M104 470q0 45 54.5 96.5t131.5 51.5q73 0 128.5 -52t55.5 -120q0 -45 -26.5 -84.5t-117.5 -124.5l-207 -193v-3h314v36q0 27 21 27q20 0 20 -27v-77h-394v60l236 222q70 69 91.5 100t21.5 65q0 52 -43 91t-100 39q-51 0 -92.5 -30t-53.5 -75q-6 -20 -21 -20q-7 0 -13 5.5 t-6 12.5z" />
<glyph unicode="3" d="M125 528q0 11 19.5 31t62.5 39.5t94 19.5q75 0 125.5 -44.5t50.5 -109.5q0 -58 -32.5 -92t-70.5 -44q59 -24 92 -66.5t33 -93.5q0 -76 -61.5 -129.5t-147.5 -53.5q-59 0 -126.5 29.5t-67.5 54.5q0 7 6 13t13 6t28 -15.5t60 -31t88 -15.5q68 0 117.5 42t49.5 100 q0 59 -53 101.5t-126 42.5q-27 0 -27 21q0 20 27 20q157 0 157 110q0 49 -39 81.5t-97 32.5q-42 0 -71.5 -10.5t-41 -23.5t-22.5 -23.5t-20 -10.5q-8 0 -14 5.5t-6 13.5z" />
<glyph unicode="4" d="M376 169h-271v47l228 388h84v-394h34q27 0 27 -21q0 -20 -27 -20h-34v-128h34q27 0 27 -20q0 -21 -27 -21h-151q-27 0 -27 21q0 20 27 20h76v128zM376 210v353h-24l-208 -353h232z" />
<glyph unicode="5" d="M316 354q-39 0 -70 -10t-50 -20.5t-28 -10.5q-19 0 -19 22v269h282q28 0 28 -20q0 -21 -28 -21h-241v-198q73 30 132 30q77 0 127 -55t50 -139q0 -94 -57.5 -155t-146.5 -61q-39 0 -77.5 12t-64 28.5t-41.5 32.5t-16 24t6 14t14 6q7 0 28 -19t60 -38t89 -19q73 0 119 49 t46 128q0 67 -39.5 109t-102.5 42z" />
<glyph unicode="6" d="M488 563q-3 0 -19.5 7t-44.5 7q-40 0 -82 -18.5t-80 -52.5t-62.5 -92t-24.5 -129q0 -5 2 -43q61 122 166 122q68 0 117.5 -55t49.5 -131q0 -81 -50 -137t-123 -56q-89 0 -145 83t-56 214q0 149 84.5 242.5t207.5 93.5q32 0 55.5 -10.5t23.5 -24.5q0 -8 -5.5 -14t-13.5 -6 zM183 188q21 -81 58 -121.5t97 -40.5q56 0 93.5 44t37.5 108q0 59 -37.5 102t-89.5 43q-25 0 -49.5 -12t-39.5 -24.5t-32.5 -37t-22 -32.5t-15.5 -29z" />
<glyph unicode="7" d="M437 545v18h-291v-35q0 -28 -20 -28q-21 0 -21 28v76h373v-65l-163 -519q-7 -21 -20 -21q-8 0 -14 6t-6 14q0 5 2 13z" />
<glyph unicode="8" d="M375 313q112 -51 112 -152q0 -73 -55 -124.5t-132 -51.5t-132 51.5t-55 124.5q0 100 112 152q-102 52 -102 140q0 67 52.5 116t124.5 49t124.5 -49t52.5 -116q0 -88 -102 -140zM300 577q-57 0 -96.5 -36.5t-39.5 -89.5q0 -49 39.5 -83.5t96.5 -34.5q56 0 96 34t40 83 q0 53 -39.5 90t-96.5 37zM300 293q-61 0 -103.5 -38t-42.5 -94t42.5 -95.5t103.5 -39.5q60 0 103 39.5t43 94.5q0 57 -42 95t-104 38z" />
<glyph unicode="9" d="M158 40q3 0 19.5 -7t44.5 -7q40 0 82 18.5t80 52.5t62.5 92t24.5 129q0 5 -2 43q-61 -122 -166 -122q-68 0 -117.5 55t-49.5 131q0 81 50 137t123 56q89 0 145 -83t56 -214q0 -149 -84.5 -242.5t-207.5 -93.5q-32 0 -55.5 10.5t-23.5 24.5q0 8 5.5 14t13.5 6zM463 415 q-21 81 -58 121.5t-97 40.5q-56 0 -93.5 -44t-37.5 -108q0 -59 37.5 -102t89.5 -43q25 0 49.5 12t39.5 24.5t32.5 37t22 32.5t15.5 29z" />
<glyph unicode=":" d="M295 116h10q29 0 49 -18.5t20 -46.5t-20 -47t-49 -19h-10q-29 0 -49 19t-20 47t20 46.5t49 18.5zM295 417h10q29 0 49 -19t20 -47t-20 -47t-49 -19h-10q-29 0 -49 19t-20 47t20 47t49 19z" />
<glyph unicode=";" d="M211 145h133l-145 -265q-13 -25 -31 -25q-12 0 -20.5 8.5t-8.5 20.5q0 3 2 11zM271 417h10q29 0 49 -19t20 -47t-20 -47t-49 -19h-10q-29 0 -49 19t-20 47t20 47t49 19z" />
<glyph unicode="&#x3c;" d="M522 67q0 -7 -6 -15t-14 -8q-5 0 -13 5l-417 232l418 232q8 5 12 5q7 0 13.5 -7t6.5 -15q0 -11 -13 -18l-355 -197l355 -197q13 -7 13 -17z" />
<glyph unicode="=" d="M522 334h-444q-27 0 -27 21q0 20 27 20h444q27 0 27 -20q0 -21 -27 -21zM522 190h-444q-27 0 -27 21q0 20 27 20h444q27 0 27 -20q0 -21 -27 -21z" />
<glyph unicode="&#x3e;" d="M78 496q0 5 5.5 13.5t14.5 8.5q5 0 13 -5l417 -232l-418 -232q-8 -5 -12 -5q-8 0 -14 7t-6 16q0 10 13 17l355 197l-355 197q-13 7 -13 18z" />
<glyph unicode="?" d="M134 529q10 3 41 17.5t62.5 22.5t71.5 8q80 0 129 -42.5t49 -111.5q0 -56 -35.5 -94t-129.5 -82v-41q0 -27 -20 -27q-21 0 -21 27v68q88 37 126.5 71.5t38.5 77.5q0 50 -40 81.5t-102 31.5q-61 0 -129 -34v-41q0 -27 -20 -27q-21 0 -21 27v68zM287 85h27q26 0 41.5 -14 t15.5 -36t-16 -36t-41 -14h-27q-26 0 -41.5 14t-15.5 36t15.5 36t41.5 14z" />
<glyph unicode="@" d="M299 -62q-87 0 -140.5 74.5t-53.5 185.5v163q0 114 55 188.5t140 74.5q68 0 113.5 -46t45.5 -115v-277q19 -3 19 -20q0 -21 -27 -21h-33v5q-30 -3 -40 -3q-58 0 -97 36t-39 89q0 61 48.5 102.5t127.5 41.5v47q0 52 -33 86t-84 34q-68 0 -111.5 -63t-43.5 -162v-160 q0 -93 43 -156t116 -63q42 0 68.5 10.5t38 20.5t17.5 10q8 0 14 -5.5t6 -13.5q0 -23 -47.5 -43t-102.5 -20zM418 192v184q-59 0 -97 -29t-38 -74q0 -38 27.5 -61.5t70.5 -23.5q21 0 37 4z" />
<glyph unicode="A" d="M428 188h-266l-54 -147h79q27 0 27 -20q0 -21 -27 -21h-151q-27 0 -27 21q0 20 27 20h31l179 481h-120q-27 0 -27 21q0 20 27 20h204l197 -522h37q27 0 27 -20q0 -21 -27 -21h-156q-27 0 -27 21q0 20 27 20h76zM413 229l-112 293h-15l-108 -293h235z" />
<glyph unicode="B" d="M124 41v481h-54q-27 0 -27 21q0 20 27 20h258q73 0 122 -41.5t49 -103.5q0 -74 -85 -120q127 -45 127 -145q0 -63 -48.5 -108t-116.5 -45h-306q-27 0 -27 21q0 20 27 20h54zM165 313h147q64 0 105 30t41 76q0 44 -37 73.5t-92 29.5h-164v-209zM500 153q0 21 -8.5 40 t-27.5 37.5t-57.5 30t-92.5 11.5h-149v-231h208q53 0 90 32.5t37 79.5z" />
<glyph unicode="C" d="M63 325q0 19 5.5 46.5t22.5 64.5t42 67t70 51.5t102 21.5q101 0 173 -69v29q0 27 21 27q20 0 20 -27v-112q0 -27 -21 -27q-18 0 -20 24q-3 46 -54.5 80t-118.5 34q-83 0 -142 -63.5t-59 -152.5v-71q0 -90 65 -156.5t153 -66.5q52 0 93 21t81 69q9 10 18 10q20 0 20 -19 q0 -9 -16 -28t-42 -40.5t-68 -37.5t-86 -16q-102 0 -180.5 78.5t-78.5 179.5v83z" />
<glyph unicode="D" d="M104 41v481h-34q-27 0 -27 21q0 20 27 20h220q97 0 163.5 -73.5t66.5 -179.5v-56q0 -107 -66.5 -180.5t-163.5 -73.5h-220q-27 0 -27 21q0 20 27 20h34zM479 318q0 20 -9 50t-28.5 66.5t-60 62t-93.5 25.5h-143v-481h150q72 0 128 62t56 142v73z" />
<glyph unicode="E" d="M165 272v-231h314v119q0 27 21 27q20 0 20 -27v-160h-450q-27 0 -27 21q0 20 27 20h54v481h-54q-27 0 -27 21q0 20 27 20h429v-139q0 -27 -21 -27q-20 0 -20 27v98h-293v-209h145v45q0 27 21 27q20 0 20 -27v-131q0 -27 -20 -27q-21 0 -21 27v45h-145z" />
<glyph unicode="F" d="M165 272v-231h138q28 0 28 -20q0 -21 -28 -21h-233q-27 0 -27 21q0 20 27 20h54v481h-54q-27 0 -27 21q0 20 27 20h450v-139q0 -27 -21 -27q-20 0 -20 27v98h-314v-209h145v45q0 27 20 27q21 0 21 -27v-131q0 -27 -21 -27q-20 0 -20 27v45h-145z" />
<glyph unicode="G" d="M315 535q-62 0 -107 -27t-65.5 -66t-29.5 -71t-9 -54v-73q0 -102 62 -160.5t170 -58.5q70 0 143 34v150h-139q-27 0 -27 21q0 20 27 20h194q28 0 28 -20q0 -21 -28 -21h-14v-173q-90 -52 -187 -52q-123 0 -196.5 71t-73.5 189v74q0 105 70.5 181.5t179.5 76.5 q99 0 166 -54v14q0 27 21 27q20 0 20 -27v-91q0 -27 -20 -27q-19 0 -20 25q-3 38 -51 65t-114 27z" />
<glyph unicode="H" d="M437 272h-270v-231h54q27 0 27 -20q0 -21 -27 -21h-140q-28 0 -28 21q0 20 28 20h45v481h-25q-27 0 -27 21q0 20 27 20h120q27 0 27 -20q0 -21 -27 -21h-54v-209h270v209h-54q-27 0 -27 21q0 20 27 20h120q27 0 27 -20q0 -21 -27 -21h-25v-481h46q27 0 27 -20 q0 -21 -27 -21h-141q-27 0 -27 21q0 20 27 20h54v231z" />
<glyph unicode="I" d="M320 522v-481h139q28 0 28 -20q0 -21 -28 -21h-319q-27 0 -27 21q0 20 27 20h139v481h-139q-27 0 -27 21q0 20 27 20h319q28 0 28 -20q0 -21 -28 -21h-139z" />
<glyph unicode="J" d="M460 522v-357q0 -74 -55.5 -127.5t-132.5 -53.5q-48 0 -91 20.5t-97 69.5v149q0 27 21 27q20 0 20 -27v-130q75 -68 148 -68q61 0 103.5 41t42.5 99v357h-159q-27 0 -27 21q0 20 27 20h296q27 0 27 -20q0 -21 -27 -21h-96z" />
<glyph unicode="K" d="M165 221v-180h75q27 0 27 -20q0 -21 -27 -21h-170q-27 0 -27 21q0 20 27 20h54v481h-54q-27 0 -27 21q0 20 27 20h170q27 0 27 -20q0 -21 -27 -21h-75v-249l280 249h-45q-28 0 -28 21q0 20 28 20h118q28 0 28 -20q0 -21 -28 -21h-16l-222 -198q73 -30 113 -84.5 t96 -198.5h56q27 0 27 -20q0 -21 -27 -21h-87q-55 152 -98 211.5t-114 82.5z" />
<glyph unicode="L" d="M227 522v-481h273v160q0 27 21 27q20 0 20 -27v-201h-451q-27 0 -27 21q0 20 27 20h96v481h-96q-27 0 -27 21q0 20 27 20h233q27 0 27 -20q0 -21 -27 -21h-96z" />
<glyph unicode="M" d="M326 169h-46l-159 353h-8v-481h74q28 0 28 -20q0 -21 -28 -21h-149q-27 0 -27 21q0 20 27 20h34v481h-25q-27 0 -27 21q0 20 27 20h99l157 -348l154 348h100q27 0 27 -20q0 -21 -27 -21h-25v-481h34q27 0 27 -20q0 -21 -27 -21h-149q-27 0 -27 21q0 20 27 20h74v481h-8z " />
<glyph unicode="N" d="M501 0h-52l-305 504v-463h75q27 0 27 -20q0 -21 -27 -21h-150q-27 0 -27 21q0 20 27 20h34v481h-54q-27 0 -27 21q0 20 27 20h106l305 -504v463h-74q-28 0 -28 21q0 20 28 20h149q27 0 27 -20q0 -21 -27 -21h-34v-522z" />
<glyph unicode="O" d="M300 576q106 0 177.5 -86.5t71.5 -213.5q0 -121 -73 -206.5t-176 -85.5q-104 0 -176.5 86t-72.5 210t72.5 210t176.5 86zM300 535q-86 0 -147 -75t-61 -180t61 -180t147 -75q85 0 146.5 74.5t61.5 177.5q0 108 -60.5 183t-147.5 75z" />
<glyph unicode="P" d="M165 231v-190h138q28 0 28 -20q0 -21 -28 -21h-233q-27 0 -27 21q0 20 27 20h54v481h-54q-27 0 -27 21q0 20 27 20h240q80 0 134.5 -47.5t54.5 -117.5t-59 -118.5t-144 -48.5h-131zM165 272h134q65 0 112 37t47 89q0 51 -42.5 87.5t-101.5 36.5h-149v-250z" />
<glyph unicode="Q" d="M318 -89q-48 0 -95.5 -12.5t-54.5 -12.5q-8 0 -14 6t-6 15q0 10 11 18l90 65q-85 19 -141.5 101.5t-56.5 188.5q0 124 72.5 210t176.5 86t176.5 -86t72.5 -210q0 -123 -70 -208t-174 -88l-54 -40q40 8 67 8q42 0 77.5 -13t49.5 -13q24 0 50.5 15.5t30.5 15.5q8 0 14 -6 t6 -15q0 -15 -36.5 -33t-67.5 -18q-21 0 -55.5 13t-68.5 13zM300 535q-86 0 -147 -75t-61 -180t61 -180t147 -75q85 0 146.5 74.5t61.5 177.5q0 108 -60.5 183t-147.5 75z" />
<glyph unicode="R" d="M165 251v-210h75q27 0 27 -20q0 -21 -27 -21h-170q-27 0 -27 21q0 20 27 20h54v481h-54q-27 0 -27 21q0 20 27 20h248q73 0 126.5 -46.5t53.5 -109.5q0 -97 -139 -145q47 -32 79 -73t93 -148h31q27 0 27 -20q0 -21 -27 -21h-57q-66 122 -108.5 173.5t-99.5 77.5h-132z M165 292h114q74 0 126 34t52 82q0 45 -42.5 79.5t-96.5 34.5h-153v-230z" />
<glyph unicode="S" d="M464 153q0 42 -26 68t-64.5 34.5t-84 19t-84 22t-64.5 43t-26 81.5q0 66 52.5 110.5t131.5 44.5q86 0 146 -59v19q0 27 21 27q20 0 20 -27v-103q0 -27 -20 -27t-21 24q-3 45 -44 75t-99 30q-62 0 -102.5 -33t-40.5 -82q0 -39 26 -63t64.5 -32.5t84 -20t84 -23.5 t64.5 -45.5t26 -84.5q0 -73 -58 -120t-148 -47q-106 0 -169 72v-29q0 -27 -21 -27q-20 0 -20 27v112q0 27 21 27q19 0 20 -24q2 -49 51 -83t117 -34q70 0 116.5 36.5t46.5 91.5z" />
<glyph unicode="T" d="M321 41h105q27 0 27 -20q0 -21 -27 -21h-251q-27 0 -27 21q0 20 27 20h105v481h-167v-73q0 -27 -21 -27q-20 0 -20 27v114h456v-114q0 -27 -20 -27q-9 0 -15 7.5t-6 19.5v73h-166v-481z" />
<glyph unicode="U" d="M499 522v-337q0 -85 -57.5 -143t-141.5 -58q-85 0 -142 57.5t-57 143.5v337h-34q-27 0 -27 21q0 20 27 20h149q27 0 27 -20q0 -21 -27 -21h-74v-337q0 -68 45.5 -114t112.5 -46q66 0 112 46.5t46 113.5v337h-74q-27 0 -27 21q0 20 27 20h149q27 0 27 -20q0 -21 -27 -21 h-34z" />
<glyph unicode="V" d="M267 0l-200 522h-31q-27 0 -27 21q0 20 27 20h151q27 0 27 -20q0 -21 -27 -21h-77l186 -481h3l193 481h-78q-27 0 -27 21q0 20 27 20h150q27 0 27 -20q0 -21 -27 -21h-31l-209 -522h-57z" />
<glyph unicode="W" d="M122 0l-60 522h-15q-27 0 -27 21q0 20 27 20h149q28 0 28 -20q0 -21 -28 -21h-93l56 -476l112 392h62l109 -392l57 476h-96q-27 0 -27 21q0 20 27 20h150q27 0 27 -20q0 -21 -27 -21h-15l-62 -522h-64l-112 400l-115 -400h-63z" />
<glyph unicode="X" d="M325 288l191 -247h17q27 0 27 -20q0 -21 -27 -21h-132q-27 0 -27 21q0 20 27 20h62l-165 214l-164 -214h64q27 0 27 -20q0 -21 -27 -21h-131q-27 0 -27 21q0 20 27 20h17l188 247l-179 234h-15q-27 0 -27 21q0 20 27 20h110q27 0 27 -20q0 -21 -27 -21h-43l155 -201 l153 201h-45q-27 0 -27 21q0 20 27 20h111q27 0 27 -20q0 -21 -27 -21h-15z" />
<glyph unicode="Y" d="M322 254v-213h105q27 0 27 -20q0 -21 -27 -21h-251q-27 0 -27 21q0 20 27 20h105v213l-179 268h-24q-27 0 -27 21q0 20 27 20h111q27 0 27 -20q0 -21 -27 -21h-38l152 -227l149 227h-40q-28 0 -28 21q0 20 28 20h110q27 0 27 -20q0 -21 -27 -21h-24z" />
<glyph unicode="Z" d="M497 0h-394v59l328 460v3h-269v-118q0 -28 -20 -28q-21 0 -21 28v159h349v-58l-328 -460v-4h314v141q0 27 20 27q21 0 21 -27v-182z" />
<glyph unicode="[" d="M321 563v-646h97q27 0 27 -20q0 -21 -27 -21h-138v728h138q27 0 27 -20q0 -21 -27 -21h-97z" />
<glyph unicode="\" d="M155 650l327 -696q5 -9 5 -16t-6 -13t-14 -6q-13 0 -22 18l-327 696q-5 10 -5 16q0 7 6.5 13t14.5 6q12 0 21 -18z" />
<glyph unicode="]" d="M279 -83v646h-97q-27 0 -27 20q0 21 27 21h138v-728h-138q-27 0 -27 20q0 21 27 21h97z" />
<glyph unicode="^" d="M300 615l178 -223q9 -10 9 -18t-6 -14t-14 -6q-10 0 -20 13l-147 185l-147 -185q-9 -13 -20 -13q-8 0 -14 6t-6 14t9 18z" />
<glyph unicode="_" d="M600 -75v-50h-600v50h600z" />
<glyph unicode="`" d="M194 630l114 -100q12 -11 12 -19q0 -9 -6 -15t-15 -6q-7 0 -18 9l-114 100q-12 11 -12 20q0 8 6 14t14 6q7 0 19 -9z" />
<glyph unicode="a" d="M125 378q0 22 68 37.5t106 15.5q70 0 115.5 -35t45.5 -88v-267h54q27 0 27 -20q0 -21 -27 -21h-95v67q-89 -83 -191 -83q-70 0 -113 35.5t-43 92.5q0 65 58.5 105.5t152.5 40.5q59 0 136 -21v71q0 37 -34 59.5t-89 22.5q-46 0 -95 -16t-57 -16t-13.5 6t-5.5 14zM419 112 v90q-60 15 -128 15q-79 0 -128.5 -29.5t-49.5 -76.5q0 -39 31 -62.5t83 -23.5q53 0 97.5 20t94.5 67z" />
<glyph unicode="b" d="M144 604v-276q73 103 180 103q91 0 154 -64t63 -157q0 -94 -63.5 -160t-153.5 -66q-110 0 -180 104v-88h-95q-27 0 -27 21q0 20 27 20h54v522h-54q-27 0 -27 21q0 20 27 20h95zM322 390q-74 0 -126 -53t-52 -129t52 -129.5t126 -53.5q73 0 125.5 53t52.5 127 q0 78 -51.5 131.5t-126.5 53.5z" />
<glyph unicode="c" d="M535 88q0 -9 -17 -25.5t-44.5 -34.5t-72.5 -31t-92 -13q-98 0 -161.5 62t-63.5 158q0 99 65 163t165 64q93 0 156 -55v13q0 28 21 28q20 0 20 -28v-91q0 -27 -20 -27q-18 0 -21 24q-3 40 -49.5 67.5t-109.5 27.5q-83 0 -134.5 -51.5t-51.5 -133.5q0 -79 52 -129.5 t134 -50.5q109 0 187 72q10 10 18 10t13.5 -5.5t5.5 -13.5z" />
<glyph unicode="d" d="M502 604v-563h54q27 0 27 -20q0 -21 -27 -21h-95v89q-71 -105 -182 -105q-89 0 -152.5 66t-63.5 158t63.5 157.5t152.5 65.5q110 0 182 -104v236h-54q-27 0 -27 21q0 20 27 20h95zM282 390q-74 0 -126 -53t-52 -129q0 -77 52 -130t127 -53q74 0 126 53t52 128 q0 78 -51.5 131t-127.5 53z" />
<glyph unicode="e" d="M520 199h-416q11 -79 66 -126.5t136 -47.5q47 0 96 15t79 39q10 7 16 7q8 0 13.5 -6t5.5 -14q0 -26 -71.5 -54t-139.5 -28q-101 0 -171.5 68t-70.5 165q0 91 66 152.5t162 61.5q101 0 165 -63.5t64 -168.5zM104 240h374q-12 68 -63 109t-124 41t-123 -40.5t-64 -109.5z " />
<glyph unicode="f" d="M520 551q-2 0 -25 3t-55.5 6t-57.5 3q-49 0 -80 -23.5t-31 -61.5v-61h189q27 0 27 -20q0 -21 -27 -21h-189v-335h178q27 0 27 -20q0 -21 -27 -21h-317q-27 0 -27 21q0 20 27 20h98v335h-88q-27 0 -27 21q0 20 27 20h88v61q0 55 43.5 90.5t110.5 35.5q70 0 139 -13 q18 -5 18 -20q0 -20 -21 -20z" />
<glyph unicode="g" d="M440 334v83h95q27 0 27 -20q0 -21 -27 -21h-54v-404q0 -64 -48 -111t-117 -47h-114q-27 0 -27 21q0 20 27 20h116q51 0 86.5 36t35.5 87v129q-66 -97 -171 -97q-85 0 -145.5 62t-60.5 149t60.5 148.5t145.5 61.5q106 0 171 -97zM272 390q-70 0 -119 -49t-49 -120 t49 -120.5t119 -49.5t119 49t49 119q0 73 -48.5 122t-119.5 49z" />
<glyph unicode="h" d="M437 288q0 45 -34 73.5t-89 28.5q-42 0 -69.5 -16.5t-68.5 -64.5l-11 -13v-255h45q28 0 28 -20q0 -21 -28 -21h-132q-27 0 -27 21q0 20 27 20h46v522h-54q-27 0 -27 21q0 20 27 20h95v-257q38 46 73 65t81 19q70 0 114.5 -39.5t44.5 -100.5v-250h45q28 0 28 -20 q0 -21 -28 -21h-131q-27 0 -27 21q0 20 27 20h45v247z" />
<glyph unicode="i" d="M320 417v-376h160q28 0 28 -20q0 -21 -28 -21h-361q-27 0 -27 21q0 20 27 20h160v335h-118q-27 0 -27 21q0 20 27 20h159zM318 624v-104h-59v104h59z" />
<glyph unicode="j" d="M417 376h-241q-27 0 -27 21q0 20 27 20h282v-445q0 -70 -43.5 -114t-111.5 -44h-129q-27 0 -27 21q0 20 27 20h128q50 0 82.5 33t32.5 84v404zM414 624v-104h-59v104h59z" />
<glyph unicode="k" d="M185 180v-180h-95q-27 0 -27 21q0 20 27 20h54v522h-54q-27 0 -27 21q0 20 27 20h95v-375l173 147h-22q-27 0 -27 21q0 20 27 20h130q27 0 27 -20q0 -21 -27 -21h-47l-157 -131l207 -204h45q27 0 27 -20q0 -21 -27 -21h-131q-27 0 -27 21q0 20 27 20h28l-180 178z" />
<glyph unicode="l" d="M320 604v-563h160q28 0 28 -20q0 -21 -28 -21h-361q-27 0 -27 21q0 20 27 20h160v522h-117q-27 0 -27 21q0 20 27 20h158z" />
<glyph unicode="m" d="M112 417v-52q25 36 49 51t56 15q64 0 97 -71q55 71 113 71q43 0 74 -32t31 -76v-282h34q27 0 27 -20q0 -21 -27 -21h-74v319q0 28 -20 49.5t-46 21.5q-50 0 -104 -82v-267h34q27 0 27 -20q0 -21 -27 -21h-74v316q0 29 -19.5 51.5t-45.5 22.5q-50 0 -105 -82v-267h34 q27 0 27 -20q0 -21 -27 -21h-109q-26 0 -26 21q0 20 27 20h34v335h-34q-27 0 -27 21q0 20 27 20h74z" />
<glyph unicode="n" d="M319 390q-18 0 -34.5 -3.5t-31 -11t-24.5 -14t-21.5 -18.5t-16 -17.5t-14 -18t-10.5 -13.5v-253h45q27 0 27 -20q0 -21 -27 -21h-131q-28 0 -28 21q0 20 28 20h45v335h-34q-27 0 -27 21q0 20 27 20h75v-69q43 48 76 65.5t80 17.5q67 0 112 -39t45 -97v-254h34 q27 0 27 -20q0 -21 -27 -21h-109q-27 0 -27 21q0 20 27 20h34v247q0 43 -32.5 72.5t-87.5 29.5z" />
<glyph unicode="o" d="M300 431q96 0 162 -65.5t66 -160.5q0 -92 -67 -156.5t-161 -64.5q-95 0 -161.5 65t-66.5 159q0 92 66.5 157.5t161.5 65.5zM300 390q-78 0 -132.5 -53t-54.5 -129t54.5 -129.5t132.5 -53.5q77 0 132 53t55 127q0 79 -54 132t-133 53z" />
<glyph unicode="p" d="M144 417v-82q40 52 81 74t98 22q93 0 155.5 -60.5t62.5 -149.5t-63 -150t-155 -61q-112 0 -179 96v-251h98q27 0 27 -20q0 -21 -27 -21h-193q-27 0 -27 21q0 20 27 20h54v521h-54q-27 0 -27 21q0 20 27 20h95zM322 390q-74 0 -126 -49.5t-52 -119.5q0 -71 52 -120.5 t126 -49.5t126 49t52 119q0 73 -51 122t-127 49z" />
<glyph unicode="q" d="M461 335v82h95q27 0 27 -20q0 -21 -27 -21h-54v-521h54q27 0 27 -20q0 -21 -27 -21h-193q-27 0 -27 21q0 20 27 20h98v251q-67 -96 -180 -96q-92 0 -155 61t-63 150t63 149.5t156 60.5q111 0 179 -96zM282 390q-75 0 -126.5 -49t-51.5 -120t51.5 -120.5t126.5 -49.5 q74 0 126.5 49t52.5 119q0 73 -51.5 122t-127.5 49z" />
<glyph unicode="r" d="M520 344q-5 0 -31 21t-51 21q-34 0 -70.5 -24t-119.5 -100v-221h179q27 0 27 -21q0 -20 -27 -20h-316q-27 0 -27 21q0 20 27 20h96v335h-75q-27 0 -27 21q0 20 27 20h116v-102q69 63 112 87.5t81 24.5q40 0 70 -24t30 -38q0 -9 -6 -15t-15 -6z" />
<glyph unicode="s" d="M452 117q0 37 -34 57t-82 27t-96 15t-82 33t-34 69q0 49 48.5 81t122.5 32q85 0 137 -46v4q0 28 21 28q20 0 20 -28v-69q0 -27 -20 -27q-18 0 -21 23q-4 34 -40 54t-93 20q-56 0 -93 -21.5t-37 -53.5q0 -30 34 -46t82 -22.5t96 -16t82 -38t34 -76.5q0 -57 -55.5 -94.5 t-140.5 -37.5q-96 0 -157 54v-11q0 -27 -20 -27q-21 0 -21 27v83q0 27 21 27q20 0 20 -22v-7q0 -34 45 -58.5t109 -24.5q66 0 110 26t44 66z" />
<glyph unicode="t" d="M186 417h220q27 0 27 -20q0 -21 -27 -21h-220v-267q0 -38 30 -61t82 -23q42 0 89.5 11.5t76.5 28.5q10 6 16 6q7 0 13 -6t6 -14q0 -22 -67.5 -44.5t-131.5 -22.5q-71 0 -113 33.5t-42 89.5v269h-74q-28 0 -28 21q0 20 28 20h74v119q0 27 21 27q20 0 20 -27v-119z" />
<glyph unicode="u" d="M439 0v66q-84 -82 -182 -82q-60 0 -96.5 36t-36.5 95v261h-54q-27 0 -27 21q0 20 27 20h95v-302q0 -38 26.5 -64t64.5 -26q100 0 183 90v261h-74q-28 0 -28 21q0 20 28 20h115v-376h34q27 0 27 -20q0 -21 -27 -21h-75z" />
<glyph unicode="v" d="M336 0h-70l-168 376h-41q-27 0 -27 21q0 20 27 20h151q28 0 28 -20q0 -21 -28 -21h-65l150 -335h19l147 335h-68q-27 0 -27 21q0 20 27 20h152q27 0 27 -20q0 -21 -27 -21h-41z" />
<glyph unicode="w" d="M441 0h-50l-91 259l-89 -259h-51l-84 376h-19q-27 0 -27 21q0 20 27 20h111q27 0 27 -20q0 -21 -27 -21h-53l72 -320l86 255h51l89 -255l69 320h-50q-27 0 -27 21q0 20 27 20h111q27 0 27 -20q0 -21 -27 -21h-19z" />
<glyph unicode="x" d="M329 219l184 -178h9q27 0 27 -20q0 -21 -27 -21h-132q-27 0 -27 21q0 20 27 20h65l-155 149l-157 -149h68q27 0 27 -20q0 -21 -27 -21h-133q-27 0 -27 21q0 20 27 20h9l184 178l-163 157h-7q-27 0 -27 21q0 20 27 20h111q27 0 27 -20q0 -21 -27 -21h-46l134 -130l137 130 h-48q-27 0 -27 21q0 20 27 20h110q27 0 27 -20q0 -21 -27 -21h-7z" />
<glyph unicode="y" d="M282 0l-188 376h-16q-27 0 -27 21q0 20 27 20h115q27 0 27 -20q0 -21 -27 -21h-52l164 -331l161 331h-54q-27 0 -27 21q0 20 27 20h110q27 0 27 -20q0 -21 -27 -21h-14l-256 -521h65q27 0 27 -20q0 -21 -27 -21h-233q-27 0 -27 21q0 20 27 20h127z" />
<glyph unicode="z" d="M474 417v-36l-303 -340h277v56q0 27 21 27q20 0 20 -27v-97h-374v36l301 340h-251v-55q0 -27 -20 -27q-21 0 -21 27v96h350z" />
<glyph unicode="{" d="M410 -104q0 -20 -21 -20q-52 0 -80 29.5t-28 80.5v148q0 43 -33.5 65t-69.5 22q-21 0 -21 19q0 21 21 21q36 0 69.5 21.5t33.5 63.5v147q0 52 28 81.5t80 29.5q9 0 15 -5.5t6 -14.5q0 -4 -1.5 -7.5t-4.5 -6.5t-7 -4.5t-9 -1.5q-25 0 -45.5 -16.5t-20.5 -54.5v-147 q0 -76 -78 -106q78 -24 78 -106v-148q0 -37 20.5 -53.5t46.5 -16.5q6 0 10.5 -2.5t7.5 -7.5t3 -10z" />
<glyph unicode="|" d="M320 577v-674q0 -27 -20 -27t-20 27v674q0 27 20 27t20 -27z" />
<glyph unicode="}" d="M190 -104q0 8 6 14t15 6q16 0 30 5.5t25.5 22.5t11.5 42v148q0 82 78 106q-78 30 -78 106v147q0 38 -20.5 54.5t-45.5 16.5q-6 0 -11 3t-8 7.5t-3 9.5q0 9 6 14.5t15 5.5q52 0 80 -29.5t28 -81.5v-147q0 -42 33.5 -63.5t69.5 -21.5q21 0 21 -21q0 -19 -21 -19 q-36 0 -69.5 -22t-33.5 -65v-148q0 -51 -28 -80.5t-80 -29.5q-21 0 -21 20z" />
<glyph unicode="~" d="M386 253q23 0 43.5 19.5t35.5 38.5t23 19t14 -5.5t6 -13.5q0 -19 -41 -59t-78 -40q-30 0 -63 24t-62.5 47.5t-51.5 23.5q-19 0 -35 -12t-25 -26.5t-20 -26.5t-21 -12q-7 0 -13 6t-6 13q0 17 38 58t82 41q30 0 64.5 -24t64 -47.5t45.5 -23.5z" />
<glyph unicode="&#xa0;" />
<glyph unicode="&#xa1;" d="M262 -110l18 326q1 28 21 28q19 0 20 -28l18 -326q1 -7 1 -16q0 -17 -11.5 -28t-28.5 -11q-16 0 -27.5 11.5t-11.5 27.5l1 6v10zM307 368h-13q-23 0 -38.5 14.5t-15.5 35.5t15.5 35.5t38.5 14.5h13q22 0 37.5 -14.5t15.5 -35.5t-15.5 -35.5t-37.5 -14.5z" />
<glyph unicode="&#xa2;" d="M113 311q0 19 6 41t21.5 52.5t51.5 55.5t88 36v107q0 27 21 27q20 0 20 -27v-106q63 0 104 -36q5 17 20 17q21 0 21 -25v-61q0 -28 -20 -28q-17 0 -20 23q-5 32 -36 51.5t-79 19.5q-68 0 -112.5 -41.5t-44.5 -105.5q0 -63 43.5 -104.5t109.5 -41.5q44 0 73.5 12.5t45 25 t24.5 12.5q19 0 19 -20t-49 -43t-99 -25v-113q0 -27 -20 -27q-21 0 -21 27v113q-73 8 -120 60.5t-47 123.5z" />
<glyph unicode="&#xa3;" d="M198 435q0 -25 27 -121h99q27 0 27 -21q0 -20 -27 -20h-90q5 -35 5 -57q0 -104 -57 -175h252q19 0 29.5 11.5t13 25.5t8 25.5t15.5 11.5q20 0 20 -22q0 -38 -24.5 -65.5t-59.5 -27.5h-323q-27 0 -27 21q0 19 22 19q35 2 62.5 56.5t27.5 123.5q0 27 -4 53h-104 q-27 0 -27 21q0 20 27 20h94q-27 85 -27 121q0 59 41.5 101t99.5 42q51 0 90 -32t39 -51q0 -7 -6.5 -13t-13.5 -6q-6 0 -15.5 9.5t-20 21t-29.5 21t-43 9.5q-41 0 -71 -30.5t-30 -71.5z" />
<glyph unicode="&#xa4;" d="M199 162l-57 -56q-10 -11 -18 -11q-9 0 -15 6t-6 14q0 9 11 20l56 56q-35 47 -35 101q0 59 34 102l-55 56q-11 10 -11 19q0 8 6 14t14 6t19 -11l56 -55q44 35 102 35q57 0 102 -35l55 55q11 11 20 11q8 0 14 -6t6 -15q0 -8 -10 -18l-55 -56q34 -47 34 -101 q0 -58 -35 -102l55 -56q10 -10 10 -20q0 -8 -6 -14t-14 -6q-9 0 -19 11l-56 56q-47 -35 -101 -35q-55 0 -101 35zM300 417q-51 0 -87.5 -36.5t-36.5 -87.5q0 -52 36.5 -88.5t87.5 -36.5q50 0 87 36.5t37 86.5q0 53 -36 89.5t-88 36.5z" />
<glyph unicode="&#xa5;" d="M321 238v-60h131q21 0 21 -18q0 -19 -21 -19h-131v-100h86q27 0 27 -20q0 -21 -27 -21h-213q-27 0 -27 21q0 20 27 20h86v100h-130q-22 0 -22 19q0 18 22 18h130v60h-130q-22 0 -22 19q0 18 22 18h116l-164 247h-24q-27 0 -27 21q0 20 27 20h110q27 0 27 -20 q0 -21 -27 -21h-39l151 -227l151 227h-39q-27 0 -27 21q0 20 27 20h110q27 0 27 -20q0 -21 -27 -21h-24l-164 -247h118q21 0 21 -18q0 -19 -21 -19h-131z" />
<glyph unicode="&#xa6;" d="M320 577v-267q0 -27 -20 -27t-20 27v267q0 27 20 27t20 -27zM320 170v-267q0 -27 -20 -27t-20 27v267q0 27 20 27t20 -27z" />
<glyph unicode="&#xa7;" d="M534 185q0 -72 -102 -84q13 -22 13 -49q0 -49 -38 -81.5t-95 -32.5h-207v111q0 24 21 24q20 0 20 -24v-71h165q40 0 66.5 21.5t26.5 53.5q0 26 -29.5 54t-101.5 68l-65 36q-142 80 -142 147q0 34 28 56.5t75 26.5q-13 22 -13 46q0 47 38 81.5t90 34.5h212v-109 q0 -24 -20 -24q-21 0 -21 24v69h-168q-37 0 -64 -22.5t-27 -53.5q0 -28 30 -54t119 -75l56 -31q70 -38 101.5 -71.5t31.5 -70.5zM400 139q4 2 29.5 5.5t43.5 12t18 27.5q0 22 -29 51t-78 55l-64 36q-84 46 -119 77q-6 -1 -18 -1q-32 0 -53 -13t-21 -32q0 -43 125 -114 l62 -35q80 -45 104 -69z" />
<glyph unicode="&#xa8;" d="M190 611q21 0 35.5 -15t14.5 -36q0 -20 -15 -34.5t-35 -14.5t-35 15t-15 35t15 35t35 15zM411 611q21 0 35.5 -15t14.5 -36q0 -20 -15 -34.5t-35 -14.5t-35 15t-15 35t15 35t35 15z" />
<glyph unicode="&#xa9;" d="M425 185q0 -9 -14.5 -26t-44.5 -32.5t-64 -15.5q-59 0 -104 45t-45 104v45q0 60 41 102.5t98 42.5q43 0 89 -29q0 22 18 22t18 -20v-65q0 -20 -18 -20q-15 0 -18 19q-2 23 -28 40t-60 17q-43 0 -73.5 -32.5t-30.5 -79.5v-39q0 -47 33.5 -81.5t79.5 -34.5q25 0 44 8.5 t28 19t18 19t16 8.5t12 -5t5 -12zM300 578q122 0 209 -87t87 -209q0 -125 -87 -211t-213 -86q-120 0 -206.5 87.5t-86.5 209.5t87 209t210 87zM300 537q-106 0 -181 -74.5t-75 -180.5q0 -105 74.5 -180.5t177.5 -75.5q109 0 184 74.5t75 181.5q0 105 -75 180t-180 75z" />
<glyph unicode="&#xaa;" d="M189 533q0 18 42.5 29.5t66.5 11.5q44 0 72 -23.5t28 -60.5v-171h26q23 0 23 -19q0 -18 -23 -18h-63v26q-54 -29 -107 -29q-44 0 -71.5 22t-27.5 57q0 43 37.5 70t95.5 27q28 0 73 -9v44q0 21 -18 34t-47 13q-21 0 -54.5 -11.5t-35.5 -11.5q-7 0 -12 5.5t-5 13.5z M361 350v59q-29 11 -71 11q-43 0 -70.5 -18t-27.5 -46q0 -18 17 -29t45 -11q55 0 107 34z" />
<glyph unicode="&#xab;" d="M63 209l208 197q11 11 21 11q8 0 14 -6t6 -14t-11 -20l-143 -168l143 -169q11 -12 11 -20t-6 -14t-14 -6t-21 11zM292 209l208 197q11 11 21 11q8 0 14 -6t6 -14t-11 -20l-143 -168l143 -169q11 -12 11 -20t-6 -14t-14 -6t-21 11z" />
<glyph unicode="&#xac;" d="M487 397h-388q-27 0 -27 21q0 20 27 20h429v-243q0 -27 -21 -27q-20 0 -20 27v202z" />
<glyph unicode="&#xad;" d="M501 258h-402q-27 0 -27 21q0 20 27 20h402q27 0 27 -20q0 -21 -27 -21z" />
<glyph unicode="&#xae;" d="M233 258v-102h36q20 0 20 -18t-20 -18h-96q-21 0 -21 18t21 18h24v251h-24q-21 0 -21 18t21 18h138q46 0 75.5 -26t29.5 -67q0 -28 -19 -50t-51 -31q25 -19 39.5 -39t45.5 -74h15q20 0 20 -18t-20 -18h-39q-57 119 -111 138h-63zM233 294h56q42 0 66.5 15.5t24.5 42.5 q0 24 -19.5 39.5t-50.5 15.5h-77v-113zM300 578q122 0 209 -87t87 -209q0 -125 -87 -211t-213 -86q-120 0 -206.5 87.5t-86.5 209.5t87 209t210 87zM300 537q-106 0 -181 -74.5t-75 -180.5q0 -105 74.5 -180.5t177.5 -75.5q109 0 184 74.5t75 181.5q0 105 -75 180t-180 75z " />
<glyph unicode="&#xaf;" d="M418 536h-236q-27 0 -27 20t27 20h236q27 0 27 -20t-27 -20z" />
<glyph unicode="&#xb0;" d="M300 636q60 0 102.5 -42.5t42.5 -102.5t-42.5 -102.5t-102.5 -42.5q-61 0 -103 42.5t-42 104.5q0 58 43 100.5t102 42.5zM300 595q-43 0 -73.5 -30.5t-30.5 -72.5q0 -44 30.5 -74.5t73.5 -30.5t73.5 30.5t30.5 73.5t-30.5 73.5t-73.5 30.5z" />
<glyph unicode="&#xb1;" d="M320 301v-162q0 -27 -20 -27q-21 0 -21 27v162h-180q-27 0 -27 20t27 20h180v161q0 27 21 27q20 0 20 -27v-161h180q28 0 28 -20t-28 -20h-180zM99 40h402q27 0 27 -20t-27 -20h-402q-27 0 -27 20t27 20z" />
<glyph unicode="&#xb2;" d="M186 525q0 26 32 56.5t77 30.5q43 0 75.5 -30t32.5 -71q0 -32 -29.5 -66.5t-154.5 -149.5h150v3q0 20 18 20t18 -20v-39h-230v43l132 123q38 38 49 54t11 32q0 26 -21.5 45.5t-50.5 19.5q-26 0 -46.5 -14.5t-27.5 -37.5q-4 -16 -18 -16q-7 0 -12 5t-5 12z" />
<glyph unicode="&#xb3;" d="M300 576q-21 0 -37 -6t-22.5 -12.5t-13 -12.5t-12.5 -6q-7 0 -12.5 5t-5.5 12q0 19 34.5 37.5t68.5 18.5q44 0 74 -26.5t30 -65.5q0 -43 -46 -74q58 -36 58 -88q0 -44 -35.5 -75.5t-85.5 -31.5q-37 0 -75.5 18t-38.5 35q0 7 5 12t12 5q3 0 32 -17t65 -17q34 0 59.5 21 t25.5 50q0 30 -26 51t-66 22q-21 2 -21 18q0 11 8 14.5t29 3.5q28 0 46 15t18 38q0 24 -19.5 40t-48.5 16z" />
<glyph unicode="&#xb4;" d="M433 599l-114 -100q-12 -9 -19 -9q-8 0 -14 6t-6 15q0 8 12 19l114 100q12 9 19 9q8 0 14 -6t6 -15q0 -8 -12 -19z" />
<glyph unicode="&#xb5;" d="M165 16v-189q0 -27 -21 -27q-20 0 -20 27v550h-54q-27 0 -27 20t27 20h95v-302q0 -41 25.5 -66t65.5 -25q101 0 183 91v262h-74q-28 0 -28 20t28 20h115v-377h34q27 0 27 -20t-27 -20h-75v59q-80 -75 -181 -75q-57 0 -93 32z" />
<glyph unicode="&#xb6;" d="M284 260q-92 6 -148.5 46t-56.5 100v47q0 67 60.5 109t158.5 42h200q25 0 25 -20q0 -21 -25 -21h-61v-584h62q26 0 26 -20q0 -21 -26 -21h-98q-25 0 -25 21q0 18 21 20v584h-72v-584q21 -2 21 -20q0 -21 -25 -21h-134q-26 0 -26 21q0 20 26 20h97v281zM284 307v251 q-58 -6 -96.5 -36.5t-38.5 -70.5v-37q0 -40 38.5 -70.5t96.5 -36.5z" />
<glyph unicode="&#xb7;" d="M300 280q21 0 35.5 -15t14.5 -36q0 -20 -15 -34.5t-35 -14.5t-35 15t-15 35t15 35t35 15z" />
<glyph unicode="&#xb8;" d="M230 -114q4 0 26 -10.5t40 -10.5q19 0 31.5 8t12.5 21q0 25 -46 25h-20v81h38v-47q65 -2 65 -61q0 -29 -22 -47t-57 -18q-26 0 -57 11.5t-31 28.5q0 8 6 13.5t14 5.5z" />
<glyph unicode="&#xb9;" d="M319 608v-317h71q20 0 20 -18t-20 -18h-178q-21 0 -21 18q0 19 31 19q39 0 61 -1v268l-65 -21q-8 -2 -9 -2q-6 0 -11.5 5.5t-5.5 12.5q0 11 16 18t111 36z" />
<glyph unicode="&#xba;" d="M301 577q62 0 104.5 -43t42.5 -105q0 -59 -43.5 -102t-103.5 -43q-61 0 -104 43t-43 104q0 60 43 103t104 43zM301 540q-46 0 -78 -32t-32 -77q0 -46 32.5 -78t77.5 -32t77.5 32t32.5 76q0 47 -32 79t-78 32z" />
<glyph unicode="&#xbb;" d="M311 208l-207 -197q-11 -11 -21 -11q-8 0 -14 6t-6 14t11 20l142 168l-142 169q-11 12 -11 20t6 14t14 6t21 -11zM541 208l-207 -197q-11 -11 -21 -11q-8 0 -14 6t-6 14t11 20l142 168l-142 169q-11 12 -11 20t6 14t14 6t21 -11z" />
<glyph unicode="&#xbc;" d="M144 612v-317h71q21 0 21 -18t-21 -18h-178q-21 0 -21 18q0 19 31 19q39 0 61 -1v268l-65 -21q-8 -2 -9 -2q-6 0 -11.5 5.5t-5.5 12.5q0 11 16 18t111 36zM492 477l-351 -414q-10 -12 -18 -12t-14 6t-6 14q0 7 9 17l350 414q11 12 18 12q8 0 14 -6t6 -14q0 -7 -8 -17z M453 18q0 12 9 15t37 3h11v57h-149v34l128 218h57v-216h13q21 0 21 -18t-25 -18h-9v-57h13q21 0 21 -18t-21 -18h-85q-21 0 -21 18zM510 129v180h-2l-107 -180h109z" />
<glyph unicode="&#xbd;" d="M485 477l-351 -414q-10 -12 -18 -12t-14 6t-6 14q0 7 9 17l350 414q11 12 18 12q8 0 14 -6t6 -14q0 -7 -8 -17zM151 612v-317h71q20 0 20 -18t-20 -18h-178q-21 0 -21 18q0 19 31 19q39 0 61 -1v268l-65 -21q-8 -2 -9 -2q-6 0 -11.5 5.5t-5.5 12.5q0 11 16 18t111 36z M354 266q0 26 32 56.5t77 30.5q43 0 75.5 -30t32.5 -71q0 -32 -29.5 -66.5t-154.5 -149.5h150v3q0 20 18 20t18 -20v-39h-230v43l132 123q38 38 49 54t11 32q0 26 -21.5 45.5t-50.5 19.5q-26 0 -46.5 -14.5t-27.5 -37.5q-4 -16 -18 -16q-7 0 -12 5t-5 12z" />
<glyph unicode="&#xbe;" d="M125 576q-21 0 -37 -6t-22.5 -12.5t-13 -12.5t-12.5 -6q-7 0 -12.5 5t-5.5 12q0 19 34.5 37.5t68.5 18.5q44 0 74 -26.5t30 -65.5q0 -43 -46 -74q58 -36 58 -88q0 -44 -35.5 -75.5t-85.5 -31.5q-37 0 -75.5 18t-38.5 35q0 7 5 12t12 5q3 0 32 -17t65 -17q34 0 59.5 21 t25.5 50q0 30 -26 51t-66 22q-21 2 -21 18q0 11 8 14.5t29 3.5q28 0 46 15t18 38q0 24 -19.5 40t-48.5 16zM491 477l-351 -414q-10 -12 -18 -12t-14 6t-6 14q0 7 9 17l350 414q11 12 18 12q8 0 14 -6t6 -14q0 -7 -8 -17zM453 18q0 12 9 15t37 3h11v57h-149v34l128 218h57 v-216h13q21 0 21 -18t-25 -18h-9v-57h13q21 0 21 -18t-21 -18h-85q-21 0 -21 18zM510 129v180h-2l-107 -180h109z" />
<glyph unicode="&#xbf;" d="M466 -126q-99 -49 -175 -49q-80 0 -129 42.5t-49 111.5q0 56 35.5 94t129.5 82v41q0 27 20 27q21 0 21 -27v-68q-87 -36 -126 -71t-39 -78q0 -50 40 -81.5t102 -31.5q60 0 129 34v41q0 27 20 27q21 0 21 -27v-67zM313 317h-27q-25 0 -41 14t-16 36t16 36t41 14h27 q26 0 41.5 -14t15.5 -36t-15.5 -36t-41.5 -14z" />
<glyph unicode="&#xc0;" d="M207 766l114 -100q12 -11 12 -19q0 -9 -6 -15t-15 -6q-8 0 -18 9l-114 100q-12 11 -12 20q0 8 6 14t14 6q7 0 19 -9zM428 188h-266l-54 -147h79q27 0 27 -20q0 -21 -27 -21h-151q-27 0 -27 21q0 20 27 20h31l179 481h-120q-27 0 -27 21q0 20 27 20h204l197 -522h37 q27 0 27 -20q0 -21 -27 -21h-156q-27 0 -27 21q0 20 27 20h76zM413 229l-112 293h-15l-108 -293h235z" />
<glyph unicode="&#xc1;" d="M395 732l-114 -100q-12 -9 -19 -9q-8 0 -14 6t-6 15q0 8 12 19l114 100q12 9 19 9q8 0 14 -6t6 -15q0 -8 -12 -19zM428 188h-266l-54 -147h79q27 0 27 -20q0 -21 -27 -21h-151q-27 0 -27 21q0 20 27 20h31l179 481h-120q-27 0 -27 21q0 20 27 20h204l197 -522h37 q27 0 27 -20q0 -21 -27 -21h-156q-27 0 -27 21q0 20 27 20h76zM413 229l-112 293h-15l-108 -293h235z" />
<glyph unicode="&#xc2;" d="M298 759l132 -108q13 -11 13 -21q0 -8 -6 -14t-14 -6q-7 0 -18 8l-107 88l-107 -88q-11 -8 -18 -8q-8 0 -14 6t-6 14t13 20zM428 188h-266l-54 -147h79q27 0 27 -20q0 -21 -27 -21h-151q-27 0 -27 21q0 20 27 20h31l179 481h-120q-27 0 -27 21q0 20 27 20h204l197 -522 h37q27 0 27 -20q0 -21 -27 -21h-156q-27 0 -27 21q0 20 27 20h76zM413 229l-112 293h-15l-108 -293h235z" />
<glyph unicode="&#xc3;" d="M364 655q18 0 42 23t31 23q8 0 14 -6t6 -14q0 -15 -31.5 -41t-59.5 -26q-26 0 -69 24t-55 24q-25 0 -44 -22.5t-31 -22.5q-8 0 -14 5.5t-6 13.5q0 18 32.5 42.5t61.5 24.5q23 0 66.5 -24t56.5 -24zM428 188h-266l-54 -147h79q27 0 27 -20q0 -21 -27 -21h-151 q-27 0 -27 21q0 20 27 20h31l179 481h-120q-27 0 -27 21q0 20 27 20h204l197 -522h37q27 0 27 -20q0 -21 -27 -21h-156q-27 0 -27 21q0 20 27 20h76zM413 229l-112 293h-15l-108 -293h235z" />
<glyph unicode="&#xc4;" d="M187 709q21 0 35.5 -15t14.5 -36q0 -20 -15 -34.5t-35 -14.5t-35 15t-15 35t15 35t35 15zM408 709q21 0 35.5 -15t14.5 -36q0 -20 -15 -34.5t-35 -14.5t-35 15t-15 35t15 35t35 15zM428 188h-266l-54 -147h79q27 0 27 -20q0 -21 -27 -21h-151q-27 0 -27 21q0 20 27 20h31 l179 481h-120q-27 0 -27 21q0 20 27 20h204l197 -522h37q27 0 27 -20q0 -21 -27 -21h-156q-27 0 -27 21q0 20 27 20h76zM413 229l-112 293h-15l-108 -293h235z" />
<glyph unicode="&#xc5;" d="M296 794q39 0 66 -26.5t27 -65.5q0 -36 -27.5 -62.5t-65.5 -26.5t-65.5 27t-27.5 64t27.5 63.5t65.5 26.5zM296 761q-25 0 -42.5 -17t-17.5 -40q0 -24 17.5 -41t42.5 -17t42.5 17t17.5 40q0 24 -17.5 41t-42.5 17zM428 188h-266l-54 -147h79q27 0 27 -20q0 -21 -27 -21 h-151q-27 0 -27 21q0 20 27 20h31l179 481h-120q-27 0 -27 21q0 20 27 20h204l197 -522h37q27 0 27 -20q0 -21 -27 -21h-156q-27 0 -27 21q0 20 27 20h76zM413 229l-112 293h-15l-108 -293h235z" />
<glyph unicode="&#xc6;" d="M297 189h-141l-41 -148h26q27 0 27 -20q0 -21 -27 -21h-104q-27 0 -27 21q0 20 27 20h37l133 481h-63q-27 0 -27 21q0 20 27 20h426v-152q0 -27 -21 -27q-20 0 -20 27v111h-191v-208h78v28q0 27 20 27t20 -27v-96q0 -27 -20 -27t-20 27v27h-78v-232h211v93q0 26 20 26 q21 0 21 -26v-134h-345q-27 0 -27 21q0 20 27 20h52v148zM297 230v292h-50l-80 -292h130z" />
<glyph unicode="&#xc7;" d="M63 325q0 19 5.5 46.5t22.5 64.5t42 67t70 51.5t102 21.5q101 0 173 -69v29q0 27 21 27q20 0 20 -27v-112q0 -27 -21 -27q-18 0 -20 24q-3 46 -54.5 80t-118.5 34q-83 0 -142 -63.5t-59 -152.5v-71q0 -90 65 -156.5t153 -66.5q52 0 93 21t81 69q9 10 18 10q20 0 20 -19 q0 -16 -38 -51q-35 -32 -80 -51.5t-86 -19.5h-13v-31q65 -2 65 -61q0 -29 -22 -47t-57 -18q-26 0 -57 11.5t-31 28.5q0 8 6 13.5t14 5.5q4 0 26 -10.5t40 -10.5q19 0 31.5 8t12.5 21q0 25 -46 25h-20v69q-108 27 -162 102t-54 152v83z" />
<glyph unicode="&#xc8;" d="M218 768l114 -100q12 -11 12 -19q0 -9 -6 -15t-15 -6q-7 0 -18 9l-114 100q-12 11 -12 20q0 8 6 14t14 6q7 0 19 -9zM165 272v-231h314v119q0 27 21 27q20 0 20 -27v-160h-450q-27 0 -27 21q0 20 27 20h54v481h-54q-27 0 -27 21q0 20 27 20h429v-139q0 -27 -21 -27 q-20 0 -20 27v98h-293v-209h145v45q0 27 21 27q20 0 20 -27v-131q0 -27 -20 -27q-21 0 -21 27v45h-145z" />
<glyph unicode="&#xc9;" d="M377 735l-114 -100q-12 -9 -19 -9q-8 0 -14 6t-6 15q0 8 12 19l114 100q12 9 19 9q8 0 14 -6t6 -15q0 -8 -12 -19zM165 272v-231h314v119q0 27 21 27q20 0 20 -27v-160h-450q-27 0 -27 21q0 20 27 20h54v481h-54q-27 0 -27 21q0 20 27 20h429v-139q0 -27 -21 -27 q-20 0 -20 27v98h-293v-209h145v45q0 27 21 27q20 0 20 -27v-131q0 -27 -20 -27q-21 0 -21 27v45h-145z" />
<glyph unicode="&#xca;" d="M288 755l132 -108q13 -11 13 -21q0 -8 -6 -14t-14 -6q-7 0 -18 8l-107 88l-107 -88q-11 -8 -18 -8q-8 0 -14 6t-6 14t13 20zM165 272v-231h314v119q0 27 21 27q20 0 20 -27v-160h-450q-27 0 -27 21q0 20 27 20h54v481h-54q-27 0 -27 21q0 20 27 20h429v-139 q0 -27 -21 -27q-20 0 -20 27v98h-293v-209h145v45q0 27 21 27q20 0 20 -27v-131q0 -27 -20 -27q-21 0 -21 27v45h-145z" />
<glyph unicode="&#xcb;" d="M180 706q21 0 35.5 -15t14.5 -36q0 -20 -15 -34.5t-35 -14.5t-35 15t-15 35t15 35t35 15zM401 706q21 0 35.5 -15t14.5 -36q0 -20 -15 -34.5t-35 -14.5t-35 15t-15 35t15 35t35 15zM165 272v-231h314v119q0 27 21 27q20 0 20 -27v-160h-450q-27 0 -27 21q0 20 27 20h54 v481h-54q-27 0 -27 21q0 20 27 20h429v-139q0 -27 -21 -27q-20 0 -20 27v98h-293v-209h145v45q0 27 21 27q20 0 20 -27v-131q0 -27 -20 -27q-21 0 -21 27v45h-145z" />
<glyph unicode="&#xcc;" d="M234 768l114 -100q12 -11 12 -19q0 -9 -6 -15t-15 -6q-7 0 -18 9l-114 100q-12 11 -12 20q0 8 6 14t14 6q7 0 19 -9zM320 522v-481h139q28 0 28 -20q0 -21 -28 -21h-319q-27 0 -27 21q0 20 27 20h139v481h-139q-27 0 -27 21q0 20 27 20h319q28 0 28 -20q0 -21 -28 -21 h-139z" />
<glyph unicode="&#xcd;" d="M423 734l-114 -100q-12 -9 -19 -9q-8 0 -14 6t-6 15q0 8 12 19l114 100q12 9 19 9q8 0 14 -6t6 -15q0 -8 -12 -19zM320 522v-481h139q28 0 28 -20q0 -21 -28 -21h-319q-27 0 -27 21q0 20 27 20h139v481h-139q-27 0 -27 21q0 20 27 20h319q28 0 28 -20q0 -21 -28 -21h-139 z" />
<glyph unicode="&#xce;" d="M300 760l132 -108q13 -11 13 -21q0 -8 -6 -14t-14 -6q-7 0 -18 8l-107 88l-107 -88q-11 -8 -18 -8q-8 0 -14 6t-6 14t13 20zM320 522v-481h139q28 0 28 -20q0 -21 -28 -21h-319q-27 0 -27 21q0 20 27 20h139v481h-139q-27 0 -27 21q0 20 27 20h319q28 0 28 -20 q0 -21 -28 -21h-139z" />
<glyph unicode="&#xcf;" d="M189 708q21 0 35.5 -15t14.5 -36q0 -20 -15 -34.5t-35 -14.5t-35 15t-15 35t15 35t35 15zM410 708q21 0 35.5 -15t14.5 -36q0 -20 -15 -34.5t-35 -14.5t-35 15t-15 35t15 35t35 15zM320 522v-481h139q28 0 28 -20q0 -21 -28 -21h-319q-27 0 -27 21q0 20 27 20h139v481 h-139q-27 0 -27 21q0 20 27 20h319q28 0 28 -20q0 -21 -28 -21h-139z" />
<glyph unicode="&#xd0;" d="M104 272h-77q-27 0 -27 21q0 20 27 20h77v209h-34q-27 0 -27 21q0 20 27 20h220q94 0 162 -74.5t68 -178.5v-56q0 -104 -68 -179t-162 -75h-220q-27 0 -27 21q0 20 27 20h34v231zM479 319q0 15 -5 37t-18.5 52t-34 54.5t-55.5 42t-78 17.5h-143v-209h162q27 0 27 -20 q0 -21 -27 -21h-162v-231h150q71 0 127.5 62.5t56.5 141.5v74z" />
<glyph unicode="&#xd1;" d="M354 657q18 0 42 23t31 23q8 0 14 -6t6 -14q0 -15 -31.5 -41t-59.5 -26q-26 0 -69 24t-55 24q-25 0 -44 -22.5t-31 -22.5q-8 0 -14 5.5t-6 13.5q0 18 32.5 42.5t61.5 24.5q23 0 66.5 -24t56.5 -24zM501 0h-52l-305 504v-463h75q27 0 27 -20q0 -21 -27 -21h-150 q-27 0 -27 21q0 20 27 20h34v481h-54q-27 0 -27 21q0 20 27 20h106l305 -504v463h-74q-28 0 -28 21q0 20 28 20h149q27 0 27 -20q0 -21 -27 -21h-34v-522z" />
<glyph unicode="&#xd2;" d="M225 768l114 -100q12 -11 12 -19q0 -9 -6 -15t-15 -6q-8 0 -18 9l-114 100q-12 11 -12 20q0 8 6 14t14 6q7 0 19 -9zM300 576q106 0 177.5 -86.5t71.5 -213.5q0 -121 -73 -206.5t-176 -85.5q-104 0 -176.5 86t-72.5 210t72.5 210t176.5 86zM300 535q-86 0 -147 -75 t-61 -180t61 -180t147 -75q85 0 146.5 74.5t61.5 177.5q0 108 -60.5 183t-147.5 75z" />
<glyph unicode="&#xd3;" d="M393 738l-114 -100q-12 -9 -19 -9q-8 0 -14 6t-6 15q0 8 12 19l114 100q12 9 19 9q8 0 14 -6t6 -15q0 -8 -12 -19zM300 576q106 0 177.5 -86.5t71.5 -213.5q0 -121 -73 -206.5t-176 -85.5q-104 0 -176.5 86t-72.5 210t72.5 210t176.5 86zM300 535q-86 0 -147 -75 t-61 -180t61 -180t147 -75q85 0 146.5 74.5t61.5 177.5q0 108 -60.5 183t-147.5 75z" />
<glyph unicode="&#xd4;" d="M300 759l132 -108q13 -11 13 -21q0 -8 -6 -14t-14 -6q-7 0 -18 8l-107 88l-107 -88q-11 -8 -18 -8q-8 0 -14 6t-6 14t13 20zM300 576q106 0 177.5 -86.5t71.5 -213.5q0 -121 -73 -206.5t-176 -85.5q-104 0 -176.5 86t-72.5 210t72.5 210t176.5 86zM300 535 q-86 0 -147 -75t-61 -180t61 -180t147 -75q85 0 146.5 74.5t61.5 177.5q0 108 -60.5 183t-147.5 75z" />
<glyph unicode="&#xd5;" d="M362 655q18 0 42 23t31 23q8 0 14 -6t6 -14q0 -15 -31.5 -41t-59.5 -26q-26 0 -69 24t-55 24q-25 0 -44 -22.5t-31 -22.5q-8 0 -14 5.5t-6 13.5q0 18 32.5 42.5t61.5 24.5q23 0 66.5 -24t56.5 -24zM300 576q106 0 177.5 -86.5t71.5 -213.5q0 -121 -73 -206.5t-176 -85.5 q-104 0 -176.5 86t-72.5 210t72.5 210t176.5 86zM300 535q-86 0 -147 -75t-61 -180t61 -180t147 -75q85 0 146.5 74.5t61.5 177.5q0 108 -60.5 183t-147.5 75z" />
<glyph unicode="&#xd6;" d="M190 707q21 0 35.5 -15t14.5 -36q0 -20 -15 -34.5t-35 -14.5t-35 15t-15 35t15 35t35 15zM411 707q21 0 35.5 -15t14.5 -36q0 -20 -15 -34.5t-35 -14.5t-35 15t-15 35t15 35t35 15zM300 576q106 0 177.5 -86.5t71.5 -213.5q0 -121 -73 -206.5t-176 -85.5 q-104 0 -176.5 86t-72.5 210t72.5 210t176.5 86zM300 535q-86 0 -147 -75t-61 -180t61 -180t147 -75q85 0 146.5 74.5t61.5 177.5q0 108 -60.5 183t-147.5 75z" />
<glyph unicode="&#xd7;" d="M300 311l142 142q11 11 19 11t14.5 -6t6.5 -15q0 -8 -11 -19l-142 -142l142 -143q11 -10 11 -19q0 -8 -6 -14t-15 -6t-19 10l-142 143l-142 -143q-11 -10 -19 -10q-9 0 -15 6t-6 14q0 9 10 19l143 143l-143 142q-10 11 -10 19q0 9 6 15t15 6q7 0 18 -11z" />
<glyph unicode="&#xd8;" d="M141 51l-65 -82q-9 -12 -18 -12q-8 0 -13 5.5t-5 12.5q0 6 8 16l69 87q-66 88 -66 202q0 124 72.5 210t176.5 86q86 0 158 -66l66 83q9 12 18 12q8 0 13 -5.5t5 -12.5q0 -5 -8 -16l-70 -88q67 -83 67 -203q0 -124 -72.5 -210t-176.5 -86q-90 0 -159 67zM144 112l288 364 q-59 59 -132 59q-86 0 -147 -75t-61 -180q0 -91 52 -168zM456 449l-289 -365q59 -59 133 -59q86 0 147 75t61 180q0 94 -52 169z" />
<glyph unicode="&#xd9;" d="M225 768l114 -100q12 -11 12 -19q0 -9 -6 -15t-15 -6q-8 0 -18 9l-114 100q-12 11 -12 20q0 8 6 14t14 6q7 0 19 -9zM499 522v-337q0 -85 -57.5 -143t-141.5 -58q-85 0 -142 57.5t-57 143.5v337h-34q-27 0 -27 21q0 20 27 20h149q27 0 27 -20q0 -21 -27 -21h-74v-337 q0 -68 45.5 -114t112.5 -46q66 0 112 46.5t46 113.5v337h-74q-27 0 -27 21q0 20 27 20h149q27 0 27 -20q0 -21 -27 -21h-34z" />
<glyph unicode="&#xda;" d="M393 735l-114 -100q-12 -9 -19 -9q-8 0 -14 6t-6 15q0 8 12 19l114 100q12 9 19 9q8 0 14 -6t6 -15q0 -8 -12 -19zM499 522v-337q0 -85 -57.5 -143t-141.5 -58q-85 0 -142 57.5t-57 143.5v337h-34q-27 0 -27 21q0 20 27 20h149q27 0 27 -20q0 -21 -27 -21h-74v-337 q0 -68 45.5 -114t112.5 -46q66 0 112 46.5t46 113.5v337h-74q-27 0 -27 21q0 20 27 20h149q27 0 27 -20q0 -21 -27 -21h-34z" />
<glyph unicode="&#xdb;" d="M300 759l132 -108q13 -11 13 -21q0 -8 -6 -14t-14 -6q-7 0 -18 8l-107 88l-107 -88q-11 -8 -18 -8q-8 0 -14 6t-6 14t13 20zM499 522v-337q0 -85 -57.5 -143t-141.5 -58q-85 0 -142 57.5t-57 143.5v337h-34q-27 0 -27 21q0 20 27 20h149q27 0 27 -20q0 -21 -27 -21h-74 v-337q0 -68 45.5 -114t112.5 -46q66 0 112 46.5t46 113.5v337h-74q-27 0 -27 21q0 20 27 20h149q27 0 27 -20q0 -21 -27 -21h-34z" />
<glyph unicode="&#xdc;" d="M190 707q21 0 35.5 -15t14.5 -36q0 -20 -15 -34.5t-35 -14.5t-35 15t-15 35t15 35t35 15zM411 707q21 0 35.5 -15t14.5 -36q0 -20 -15 -34.5t-35 -14.5t-35 15t-15 35t15 35t35 15zM499 522v-337q0 -85 -57.5 -143t-141.5 -58q-85 0 -142 57.5t-57 143.5v337h-34 q-27 0 -27 21q0 20 27 20h149q27 0 27 -20q0 -21 -27 -21h-74v-337q0 -68 45.5 -114t112.5 -46q66 0 112 46.5t46 113.5v337h-74q-27 0 -27 21q0 20 27 20h149q27 0 27 -20q0 -21 -27 -21h-34z" />
<glyph unicode="&#xdd;" d="M393 738l-114 -100q-12 -9 -19 -9q-8 0 -14 6t-6 15q0 8 12 19l114 100q12 9 19 9q8 0 14 -6t6 -15q0 -8 -12 -19zM322 254v-213h105q27 0 27 -20q0 -21 -27 -21h-251q-27 0 -27 21q0 20 27 20h105v213l-179 268h-24q-27 0 -27 21q0 20 27 20h111q27 0 27 -20 q0 -21 -27 -21h-38l152 -227l149 227h-40q-28 0 -28 21q0 20 28 20h110q27 0 27 -20q0 -21 -27 -21h-24z" />
<glyph unicode="&#xde;" d="M165 111v-70h138q28 0 28 -20q0 -21 -28 -21h-233q-27 0 -27 21q0 20 27 20h54v481h-54q-27 0 -27 21q0 20 27 20h233q28 0 28 -20q0 -21 -28 -21h-138v-79h145q80 0 134.5 -47.5t54.5 -117.5t-59 -118.5t-144 -48.5h-131zM165 152h134q65 0 112 37t47 89 q0 51 -42.5 87.5t-101.5 36.5h-149v-250z" />
<glyph unicode="&#xdf;" d="M456 162q0 48 -22 84t-54.5 54t-61 26t-49.5 8h-5q-27 0 -27 21q0 20 23 20h5q38 0 67 25.5t29 58.5q0 42 -33 73t-77 31q-42 0 -74 -28t-32 -65v-429h15q27 0 27 -20q0 -21 -27 -21h-110q-27 0 -27 21q0 20 27 20h54v429q0 53 44.5 93.5t102.5 40.5q64 0 107.5 -41.5 t43.5 -104.5q0 -60 -58 -99q153 -46 153 -198q0 -84 -36 -130.5t-101 -46.5q-51 0 -86 34t-35 83q0 23 20 23q11 0 18.5 -15.5t12.5 -34t23 -34t47 -15.5q46 0 71 35t25 102z" />
<glyph unicode="&#xe0;" d="M214 631l114 -100q12 -11 12 -19q0 -9 -6 -15t-15 -6q-7 0 -18 9l-114 100q-12 11 -12 20q0 8 6 14t14 6q7 0 19 -9zM125 378q0 22 68 37.5t106 15.5q70 0 115.5 -35t45.5 -88v-267h54q27 0 27 -20q0 -21 -27 -21h-95v67q-89 -83 -191 -83q-70 0 -113 35.5t-43 92.5 q0 65 58.5 105.5t152.5 40.5q59 0 136 -21v71q0 37 -34 59.5t-89 22.5q-46 0 -95 -16t-57 -16t-13.5 6t-5.5 14zM419 112v90q-60 15 -128 15q-79 0 -128.5 -29.5t-49.5 -76.5q0 -39 31 -62.5t83 -23.5q53 0 97.5 20t94.5 67z" />
<glyph unicode="&#xe1;" d="M382 600l-114 -100q-12 -9 -19 -9q-8 0 -14 6t-6 15q0 8 12 19l114 100q12 9 19 9q8 0 14 -6t6 -15q0 -8 -12 -19zM125 378q0 22 68 37.5t106 15.5q70 0 115.5 -35t45.5 -88v-267h54q27 0 27 -20q0 -21 -27 -21h-95v67q-89 -83 -191 -83q-70 0 -113 35.5t-43 92.5 q0 65 58.5 105.5t152.5 40.5q59 0 136 -21v71q0 37 -34 59.5t-89 22.5q-46 0 -95 -16t-57 -16t-13.5 6t-5.5 14zM419 112v90q-60 15 -128 15q-79 0 -128.5 -29.5t-49.5 -76.5q0 -39 31 -62.5t83 -23.5q53 0 97.5 20t94.5 67z" />
<glyph unicode="&#xe2;" d="M289 626l132 -108q13 -11 13 -21q0 -8 -6 -14t-14 -6q-7 0 -18 8l-107 88l-107 -88q-11 -8 -18 -8q-8 0 -14 6t-6 14t13 20zM125 378q0 22 68 37.5t106 15.5q70 0 115.5 -35t45.5 -88v-267h54q27 0 27 -20q0 -21 -27 -21h-95v67q-89 -83 -191 -83q-70 0 -113 35.5 t-43 92.5q0 65 58.5 105.5t152.5 40.5q59 0 136 -21v71q0 37 -34 59.5t-89 22.5q-46 0 -95 -16t-57 -16t-13.5 6t-5.5 14zM419 112v90q-60 15 -128 15q-79 0 -128.5 -29.5t-49.5 -76.5q0 -39 31 -62.5t83 -23.5q53 0 97.5 20t94.5 67z" />
<glyph unicode="&#xe3;" d="M361 532q19 0 43 23t30 23q8 0 14 -6t6 -14q0 -15 -31.5 -41t-59.5 -26q-26 0 -69 24t-55 24q-25 0 -44 -22.5t-31 -22.5q-8 0 -14 5.5t-6 13.5q0 18 32.5 42.5t61.5 24.5q23 0 66.5 -24t56.5 -24zM125 378q0 22 68 37.5t106 15.5q70 0 115.5 -35t45.5 -88v-267h54 q27 0 27 -20q0 -21 -27 -21h-95v67q-89 -83 -191 -83q-70 0 -113 35.5t-43 92.5q0 65 58.5 105.5t152.5 40.5q59 0 136 -21v71q0 37 -34 59.5t-89 22.5q-46 0 -95 -16t-57 -16t-13.5 6t-5.5 14zM419 112v90q-60 15 -128 15q-79 0 -128.5 -29.5t-49.5 -76.5q0 -39 31 -62.5 t83 -23.5q53 0 97.5 20t94.5 67z" />
<glyph unicode="&#xe4;" d="M178 591q21 0 35.5 -15t14.5 -36q0 -20 -15 -34.5t-35 -14.5t-35 15t-15 35t15 35t35 15zM399 591q21 0 35.5 -15t14.5 -36q0 -20 -15 -34.5t-35 -14.5t-35 15t-15 35t15 35t35 15zM125 378q0 22 68 37.5t106 15.5q70 0 115.5 -35t45.5 -88v-267h54q27 0 27 -20 q0 -21 -27 -21h-95v67q-89 -83 -191 -83q-70 0 -113 35.5t-43 92.5q0 65 58.5 105.5t152.5 40.5q59 0 136 -21v71q0 37 -34 59.5t-89 22.5q-46 0 -95 -16t-57 -16t-13.5 6t-5.5 14zM419 112v90q-60 15 -128 15q-79 0 -128.5 -29.5t-49.5 -76.5q0 -39 31 -62.5t83 -23.5 q53 0 97.5 20t94.5 67z" />
<glyph unicode="&#xe5;" d="M299 672q39 0 66 -26.5t27 -65.5q0 -36 -27.5 -62.5t-65.5 -26.5t-65.5 27t-27.5 64t27.5 63.5t65.5 26.5zM299 639q-25 0 -42.5 -17t-17.5 -40q0 -24 17.5 -41t42.5 -17t42.5 17t17.5 40q0 24 -17.5 41t-42.5 17zM125 378q0 22 68 37.5t106 15.5q70 0 115.5 -35 t45.5 -88v-267h54q27 0 27 -20q0 -21 -27 -21h-95v67q-89 -83 -191 -83q-70 0 -113 35.5t-43 92.5q0 65 58.5 105.5t152.5 40.5q59 0 136 -21v71q0 37 -34 59.5t-89 22.5q-46 0 -95 -16t-57 -16t-13.5 6t-5.5 14zM419 112v90q-60 15 -128 15q-79 0 -128.5 -29.5t-49.5 -76.5 q0 -39 31 -62.5t83 -23.5q53 0 97.5 20t94.5 67z" />
<glyph unicode="&#xe6;" d="M71 378q0 21 49 37t79 16q37 0 68 -23t45 -61q18 39 50 61.5t68 22.5q73 0 109 -62.5t38 -169.5h-258q5 -76 41 -125t86 -49q25 0 48 15.5t39.5 31t24.5 15.5t14 -6t6 -14q0 -17 -46.5 -50t-87.5 -33q-74 0 -124 77v-34q0 -27 -20 -27t-20 27v25q-56 -68 -120 -68 t-106 42t-42 106q0 54 53.5 89.5t129.5 35.5q41 0 85 -12v60q0 35 -25.5 60t-62.5 25q-36 0 -67 -16t-35 -16q-7 0 -13 6.5t-6 13.5zM280 110v93q-44 13 -79 13q-32 0 -69 -12t-54 -28q-21 -21 -21 -55q0 -42 29.5 -69t75.5 -27q51 0 118 85zM535 240q-4 29 -8 48.5t-15 46 t-32 41t-51 14.5q-89 0 -109 -150h215z" />
<glyph unicode="&#xe7;" d="M535 88q0 -7 -8 -18t-26.5 -25t-43 -27t-62 -22.5t-80.5 -11.5v-31q65 -2 65 -61q0 -29 -22 -47t-57 -18q-26 0 -57 12t-31 27q0 8 6 14t14 6q4 0 26 -10.5t40 -10.5q19 0 31.5 8t12.5 21q0 25 -45 25h-21v67q-50 7 -87.5 28t-57 45.5t-31 55.5t-14.5 51t-3 38 q0 99 65 163t165 64q93 0 156 -55v13q0 28 21 28q20 0 20 -28v-91q0 -27 -20 -27t-21 24q-4 40 -50 67.5t-109 27.5q-83 0 -134.5 -51.5t-51.5 -133.5q0 -79 52 -129.5t134 -50.5q109 0 187 72q10 10 18 10t13.5 -5.5t5.5 -13.5z" />
<glyph unicode="&#xe8;" d="M226 631l114 -100q12 -11 12 -19q0 -9 -6 -15t-15 -6q-7 0 -18 9l-114 100q-12 11 -12 20q0 8 6 14t14 6q7 0 19 -9zM520 199h-416q11 -79 66 -126.5t136 -47.5q47 0 96 15t79 39q10 7 16 7q8 0 13.5 -6t5.5 -14q0 -26 -71.5 -54t-139.5 -28q-101 0 -171.5 68t-70.5 165 q0 91 66 152.5t162 61.5q101 0 165 -63.5t64 -168.5zM104 240h374q-12 68 -63 109t-124 41t-123 -40.5t-64 -109.5z" />
<glyph unicode="&#xe9;" d="M394 600l-114 -100q-12 -9 -19 -9q-8 0 -14 6t-6 15q0 8 12 19l114 100q12 9 19 9q8 0 14 -6t6 -15q0 -8 -12 -19zM520 199h-416q11 -79 66 -126.5t136 -47.5q47 0 96 15t79 39q10 7 16 7q8 0 13.5 -6t5.5 -14q0 -26 -71.5 -54t-139.5 -28q-101 0 -171.5 68t-70.5 165 q0 91 66 152.5t162 61.5q101 0 165 -63.5t64 -168.5zM104 240h374q-12 68 -63 109t-124 41t-123 -40.5t-64 -109.5z" />
<glyph unicode="&#xea;" d="M303 624l132 -108q13 -11 13 -21q0 -8 -6 -14t-14 -6q-7 0 -18 8l-107 88l-107 -88q-11 -8 -18 -8q-8 0 -14 6t-6 14t13 20zM520 199h-416q11 -79 66 -126.5t136 -47.5q47 0 96 15t79 39q10 7 16 7q8 0 13.5 -6t5.5 -14q0 -26 -71.5 -54t-139.5 -28q-101 0 -171.5 68 t-70.5 165q0 91 66 152.5t162 61.5q101 0 165 -63.5t64 -168.5zM104 240h374q-12 68 -63 109t-124 41t-123 -40.5t-64 -109.5z" />
<glyph unicode="&#xeb;" d="M194 591q21 0 35.5 -15t14.5 -36q0 -20 -15 -34.5t-35 -14.5t-35 15t-15 35t15 35t35 15zM415 591q21 0 35.5 -15t14.5 -36q0 -20 -15 -34.5t-35 -14.5t-35 15t-15 35t15 35t35 15zM520 199h-416q11 -79 66 -126.5t136 -47.5q47 0 96 15t79 39q10 7 16 7q8 0 13.5 -6 t5.5 -14q0 -26 -71.5 -54t-139.5 -28q-101 0 -171.5 68t-70.5 165q0 91 66 152.5t162 61.5q101 0 165 -63.5t64 -168.5zM104 240h374q-12 68 -63 109t-124 41t-123 -40.5t-64 -109.5z" />
<glyph unicode="&#xec;" d="M215 631l114 -100q12 -11 12 -19q0 -9 -6 -15t-15 -6q-8 0 -18 9l-114 100q-12 11 -12 20q0 8 6 14t14 6q7 0 19 -9zM320 417v-376h160q28 0 28 -20q0 -21 -28 -21h-361q-27 0 -27 21q0 20 27 20h160v335h-118q-27 0 -27 21q0 20 27 20h159z" />
<glyph unicode="&#xed;" d="M382 600l-114 -100q-12 -9 -19 -9q-8 0 -14 6t-6 15q0 8 12 19l114 100q12 9 19 9q8 0 14 -6t6 -15q0 -8 -12 -19zM320 417v-376h160q28 0 28 -20q0 -21 -28 -21h-361q-27 0 -27 21q0 20 27 20h160v335h-118q-27 0 -27 21q0 20 27 20h159z" />
<glyph unicode="&#xee;" d="M281 628l132 -108q13 -11 13 -21q0 -8 -6 -14t-14 -6q-7 0 -18 8l-107 88l-107 -88q-11 -8 -18 -8q-8 0 -14 6t-6 14t13 20zM320 417v-376h160q28 0 28 -20q0 -21 -28 -21h-361q-27 0 -27 21q0 20 27 20h160v335h-118q-27 0 -27 21q0 20 27 20h159z" />
<glyph unicode="&#xef;" d="M176 591q21 0 35.5 -15t14.5 -36q0 -20 -15 -34.5t-35 -14.5t-35 15t-15 35t15 35t35 15zM397 591q21 0 35.5 -15t14.5 -36q0 -20 -15 -34.5t-35 -14.5t-35 15t-15 35t15 35t35 15zM320 417v-376h160q28 0 28 -20q0 -21 -28 -21h-361q-27 0 -27 21q0 20 27 20h160v335 h-118q-27 0 -27 21q0 20 27 20h159z" />
<glyph unicode="&#xf0;" d="M277 549q-25 11 -48 18.5t-34.5 10t-20.5 5t-12 5.5t-3 10q0 10 6 16t15 6q47 0 148 -48l95 42l7 1q8 0 13.5 -6t5.5 -15q0 -13 -9 -17l-75 -34q75 -64 119 -151.5t44 -170.5q0 -108 -66 -173t-162 -65q-95 0 -161.5 65t-66.5 159q0 92 66 157.5t160 65.5q41 0 73 -12 t73 -41q-53 99 -121 148l-91 -42q-2 -1 -7 -1q-8 0 -14 7t-6 16q0 13 9 16zM301 390q-78 0 -132.5 -53t-54.5 -129t54.5 -129.5t132.5 -53.5q77 0 132 53t55 127q0 79 -54 132t-133 53z" />
<glyph unicode="&#xf1;" d="M352 532q18 0 42 23t31 23q8 0 14 -6t6 -14q0 -15 -31.5 -41t-59.5 -26q-26 0 -69 24t-55 24q-25 0 -44 -22.5t-31 -22.5q-8 0 -14 5.5t-6 13.5q0 18 32.5 42.5t61.5 24.5q23 0 66.5 -24t56.5 -24zM319 390q-18 0 -34.5 -3.5t-31 -11t-24.5 -14t-21.5 -18.5t-16 -17.5 t-14 -18t-10.5 -13.5v-253h45q27 0 27 -20q0 -21 -27 -21h-131q-28 0 -28 21q0 20 28 20h45v335h-34q-27 0 -27 21q0 20 27 20h75v-69q43 48 76 65.5t80 17.5q67 0 112 -39t45 -97v-254h34q27 0 27 -20q0 -21 -27 -21h-109q-27 0 -27 21q0 20 27 20h34v247q0 43 -32.5 72.5 t-87.5 29.5z" />
<glyph unicode="&#xf2;" d="M228 631l114 -100q12 -11 12 -19q0 -9 -6 -15t-15 -6q-7 0 -18 9l-114 100q-12 11 -12 20q0 8 6 14t14 6q7 0 19 -9zM300 431q96 0 162 -65.5t66 -160.5q0 -92 -67 -156.5t-161 -64.5q-95 0 -161.5 65t-66.5 159q0 92 66.5 157.5t161.5 65.5zM300 390q-78 0 -132.5 -53 t-54.5 -129t54.5 -129.5t132.5 -53.5q77 0 132 53t55 127q0 79 -54 132t-133 53z" />
<glyph unicode="&#xf3;" d="M388 600l-114 -100q-12 -9 -19 -9q-8 0 -14 6t-6 15q0 8 12 19l114 100q12 9 19 9q8 0 14 -6t6 -15q0 -8 -12 -19zM300 431q96 0 162 -65.5t66 -160.5q0 -92 -67 -156.5t-161 -64.5q-95 0 -161.5 65t-66.5 159q0 92 66.5 157.5t161.5 65.5zM300 390q-78 0 -132.5 -53 t-54.5 -129t54.5 -129.5t132.5 -53.5q77 0 132 53t55 127q0 79 -54 132t-133 53z" />
<glyph unicode="&#xf4;" d="M300 630l132 -108q13 -11 13 -21q0 -8 -6 -14t-14 -6q-7 0 -18 8l-107 88l-107 -88q-11 -8 -18 -8q-8 0 -14 6t-6 14t13 20zM300 431q96 0 162 -65.5t66 -160.5q0 -92 -67 -156.5t-161 -64.5q-95 0 -161.5 65t-66.5 159q0 92 66.5 157.5t161.5 65.5zM300 390 q-78 0 -132.5 -53t-54.5 -129t54.5 -129.5t132.5 -53.5q77 0 132 53t55 127q0 79 -54 132t-133 53z" />
<glyph unicode="&#xf5;" d="M362 532q18 0 42 23t31 23q8 0 14 -6t6 -14q0 -15 -31.5 -41t-59.5 -26q-26 0 -69 24t-55 24q-25 0 -44 -22.5t-31 -22.5q-8 0 -14 5.5t-6 13.5q0 18 32.5 42.5t61.5 24.5q23 0 66.5 -24t56.5 -24zM300 431q96 0 162 -65.5t66 -160.5q0 -92 -67 -156.5t-161 -64.5 q-95 0 -161.5 65t-66.5 159q0 92 66.5 157.5t161.5 65.5zM300 390q-78 0 -132.5 -53t-54.5 -129t54.5 -129.5t132.5 -53.5q77 0 132 53t55 127q0 79 -54 132t-133 53z" />
<glyph unicode="&#xf6;" d="M190 591q21 0 35.5 -15t14.5 -36q0 -20 -15 -34.5t-35 -14.5t-35 15t-15 35t15 35t35 15zM411 591q21 0 35.5 -15t14.5 -36q0 -20 -15 -34.5t-35 -14.5t-35 15t-15 35t15 35t35 15zM300 431q96 0 162 -65.5t66 -160.5q0 -92 -67 -156.5t-161 -64.5q-95 0 -161.5 65 t-66.5 159q0 92 66.5 157.5t161.5 65.5zM300 390q-78 0 -132.5 -53t-54.5 -129t54.5 -129.5t132.5 -53.5q77 0 132 53t55 127q0 79 -54 132t-133 53z" />
<glyph unicode="&#xf7;" d="M501 262h-402q-27 0 -27 20t27 20h402q27 0 27 -20t-27 -20zM300 124q21 0 35.5 -14.5t14.5 -35.5q0 -20 -15 -34.5t-35 -14.5t-34.5 14.5t-14.5 35.5q0 20 14.5 34.5t34.5 14.5zM300 540q21 0 35.5 -14.5t14.5 -35.5q0 -20 -15 -34.5t-35 -14.5t-34.5 14.5t-14.5 35.5 q0 20 14.5 34.5t34.5 14.5z" />
<glyph unicode="&#xf8;" d="M154 35l-66 -68q-10 -10 -17 -10t-12.5 5.5t-5.5 12.5t10 17l66 67q-57 66 -57 149q0 93 66.5 158t161.5 65q82 0 144 -49l64 66q11 10 18 10t12 -5.5t5 -12.5t-10 -17l-64 -65q59 -65 59 -151q0 -93 -66.5 -158t-161.5 -65q-80 0 -146 51zM441 329l-258 -264 q51 -40 117 -40q78 0 132.5 53t54.5 129q0 68 -46 122zM158 89l257 263q-50 38 -115 38q-78 0 -132.5 -53t-54.5 -129q0 -68 45 -119z" />
<glyph unicode="&#xf9;" d="M220 631l114 -100q12 -11 12 -19q0 -9 -6 -15t-15 -6q-7 0 -18 9l-114 100q-12 11 -12 20q0 8 6 14t14 6q7 0 19 -9zM439 0v66q-84 -82 -182 -82q-60 0 -96.5 36t-36.5 95v261h-54q-27 0 -27 21q0 20 27 20h95v-302q0 -38 26.5 -64t64.5 -26q100 0 183 90v261h-74 q-28 0 -28 21q0 20 28 20h115v-376h34q27 0 27 -20q0 -21 -27 -21h-75z" />
<glyph unicode="&#xfa;" d="M373 600l-114 -100q-12 -9 -19 -9q-8 0 -14 6t-6 15q0 8 12 19l114 100q12 9 19 9q8 0 14 -6t6 -15q0 -8 -12 -19zM439 0v66q-84 -82 -182 -82q-60 0 -96.5 36t-36.5 95v261h-54q-27 0 -27 21q0 20 27 20h95v-302q0 -38 26.5 -64t64.5 -26q100 0 183 90v261h-74 q-28 0 -28 21q0 20 28 20h115v-376h34q27 0 27 -20q0 -21 -27 -21h-75z" />
<glyph unicode="&#xfb;" d="M294 626l132 -108q13 -11 13 -21q0 -8 -6 -14t-14 -6q-7 0 -18 8l-107 88l-107 -88q-11 -8 -18 -8q-8 0 -14 6t-6 14t13 20zM439 0v66q-84 -82 -182 -82q-60 0 -96.5 36t-36.5 95v261h-54q-27 0 -27 21q0 20 27 20h95v-302q0 -38 26.5 -64t64.5 -26q100 0 183 90v261h-74 q-28 0 -28 21q0 20 28 20h115v-376h34q27 0 27 -20q0 -21 -27 -21h-75z" />
<glyph unicode="&#xfc;" d="M182 591q21 0 35.5 -15t14.5 -36q0 -20 -15 -34.5t-35 -14.5t-35 15t-15 35t15 35t35 15zM403 591q21 0 35.5 -15t14.5 -36q0 -20 -15 -34.5t-35 -14.5t-35 15t-15 35t15 35t35 15zM439 0v66q-84 -82 -182 -82q-60 0 -96.5 36t-36.5 95v261h-54q-27 0 -27 21q0 20 27 20 h95v-302q0 -38 26.5 -64t64.5 -26q100 0 183 90v261h-74q-28 0 -28 21q0 20 28 20h115v-376h34q27 0 27 -20q0 -21 -27 -21h-75z" />
<glyph unicode="&#xfd;" d="M423 600l-114 -100q-12 -9 -19 -9q-8 0 -14 6t-6 15q0 8 12 19l114 100q12 9 19 9q8 0 14 -6t6 -15q0 -8 -12 -19zM282 0l-188 376h-16q-27 0 -27 21q0 20 27 20h115q27 0 27 -20q0 -21 -27 -21h-52l164 -331l161 331h-54q-27 0 -27 21q0 20 27 20h110q27 0 27 -20 q0 -21 -27 -21h-14l-256 -521h65q27 0 27 -20q0 -21 -27 -21h-233q-27 0 -27 21q0 20 27 20h127z" />
<glyph unicode="&#xfe;" d="M144 590v-255q40 52 81 74t98 22q93 0 155.5 -60.5t62.5 -149.5t-63 -150t-155 -61q-112 0 -179 96v-251h98q27 0 27 -20q0 -21 -27 -21h-193q-27 0 -27 21q0 20 27 20h54v694h-54q-27 0 -27 21q0 20 27 20h95zM322 390q-74 0 -126 -49.5t-52 -119.5q0 -71 52 -120.5 t126 -49.5t126 49t52 119q0 73 -51 122t-127 49z" />
<glyph unicode="&#xff;" d="M190 591q21 0 35.5 -15t14.5 -36q0 -20 -15 -34.5t-35 -14.5t-35 15t-15 35t15 35t35 15zM411 591q21 0 35.5 -15t14.5 -36q0 -20 -15 -34.5t-35 -14.5t-35 15t-15 35t15 35t35 15zM282 0l-188 376h-16q-27 0 -27 21q0 20 27 20h115q27 0 27 -20q0 -21 -27 -21h-52 l164 -331l161 331h-54q-27 0 -27 21q0 20 27 20h110q27 0 27 -20q0 -21 -27 -21h-14l-256 -521h65q27 0 27 -20q0 -21 -27 -21h-233q-27 0 -27 21q0 20 27 20h127z" />
<glyph unicode="&#x100;" d="M346 628h-236q-27 0 -27 20t27 20h236q27 0 27 -20t-27 -20zM428 188h-266l-54 -147h79q27 0 27 -20q0 -21 -27 -21h-151q-27 0 -27 21q0 20 27 20h31l179 481h-120q-27 0 -27 21q0 20 27 20h204l197 -522h37q27 0 27 -20q0 -21 -27 -21h-156q-27 0 -27 21q0 20 27 20h76 zM413 229l-112 293h-15l-108 -293h235z" />
<glyph unicode="&#x101;" d="M417 491h-236q-27 0 -27 20t27 20h236q27 0 27 -20t-27 -20zM125 378q0 22 68 37.5t106 15.5q70 0 115.5 -35t45.5 -88v-267h54q27 0 27 -20q0 -21 -27 -21h-95v67q-89 -83 -191 -83q-70 0 -113 35.5t-43 92.5q0 65 58.5 105.5t152.5 40.5q59 0 136 -21v71q0 37 -34 59.5 t-89 22.5q-46 0 -95 -16t-57 -16t-13.5 6t-5.5 14zM419 112v90q-60 15 -128 15q-79 0 -128.5 -29.5t-49.5 -76.5q0 -39 31 -62.5t83 -23.5q53 0 97.5 20t94.5 67z" />
<glyph unicode="&#x102;" d="M174 743q17 0 20 -22q2 -29 32 -48t72 -19t71.5 19t32.5 48q3 22 21 22q8 0 14 -6.5t6 -16.5q0 -45 -42 -76t-103 -31t-103 31t-42 76q0 23 21 23zM428 188h-266l-54 -147h79q27 0 27 -20q0 -21 -27 -21h-151q-27 0 -27 21q0 20 27 20h31l179 481h-120q-27 0 -27 21 q0 20 27 20h204l197 -522h37q27 0 27 -20q0 -21 -27 -21h-156q-27 0 -27 21q0 20 27 20h76zM413 229l-112 293h-15l-108 -293h235z" />
<glyph unicode="&#x103;" d="M175 623q17 0 20 -22q2 -29 32 -48t72 -19t71.5 19t32.5 48q3 22 21 22q8 0 14 -6.5t6 -16.5q0 -45 -42 -76t-103 -31t-103 31t-42 76q0 23 21 23zM125 378q0 22 68 37.5t106 15.5q70 0 115.5 -35t45.5 -88v-267h54q27 0 27 -20q0 -21 -27 -21h-95v67q-89 -83 -191 -83 q-70 0 -113 35.5t-43 92.5q0 65 58.5 105.5t152.5 40.5q59 0 136 -21v71q0 37 -34 59.5t-89 22.5q-46 0 -95 -16t-57 -16t-13.5 6t-5.5 14zM419 112v90q-60 15 -128 15q-79 0 -128.5 -29.5t-49.5 -76.5q0 -39 31 -62.5t83 -23.5q53 0 97.5 20t94.5 67z" />
<glyph unicode="&#x104;" d="M530 -123q22 0 38 9.5t19 9.5q5 0 9.5 -4.5t4.5 -10.5q0 -13 -24.5 -24.5t-52.5 -11.5q-36 0 -56 16t-20 45q0 58 77 94h-117q-27 0 -27 21q0 20 27 20h76l-56 147h-266l-54 -147h79q27 0 27 -20q0 -21 -27 -21h-151q-27 0 -27 21q0 20 27 20h31l179 481h-120 q-27 0 -27 21q0 20 27 20h204l197 -522h37q27 0 27 -20q0 -21 -27 -21h8l-27 -15q-58 -33 -58 -74q0 -34 43 -34zM413 229l-112 293h-15l-108 -293h235z" />
<glyph unicode="&#x105;" d="M125 378q0 22 68 37.5t106 15.5q70 0 115.5 -35t45.5 -88v-267h54q27 0 27 -20q0 -9 -15.5 -20t-34 -21.5t-34 -29t-15.5 -39.5q0 -34 43 -34q22 0 38 9.5t19 9.5q5 0 9.5 -4.5t4.5 -10.5q0 -13 -24.5 -24.5t-52.5 -11.5q-36 0 -56 16t-20 45q0 31 17.5 52.5t59.5 41.5 h-61v67q-89 -83 -191 -83q-70 0 -113 35.5t-43 92.5q0 65 58.5 105.5t152.5 40.5q59 0 136 -21v71q0 37 -34 59.5t-89 22.5q-46 0 -95 -16t-57 -16t-13.5 6t-5.5 14zM419 112v90q-60 15 -128 15q-79 0 -128.5 -29.5t-49.5 -76.5q0 -39 31 -62.5t83 -23.5q53 0 97.5 20 t94.5 67z" />
<glyph unicode="&#x106;" d="M419 737l-114 -100q-12 -9 -19 -9q-8 0 -14 6t-6 15q0 8 12 19l114 100q12 9 19 9q8 0 14 -6t6 -15q0 -8 -12 -19zM63 325q0 19 5.5 46.5t22.5 64.5t42 67t70 51.5t102 21.5q101 0 173 -69v29q0 27 21 27q20 0 20 -27v-112q0 -27 -21 -27q-18 0 -20 24q-3 46 -54.5 80 t-118.5 34q-83 0 -142 -63.5t-59 -152.5v-71q0 -90 65 -156.5t153 -66.5q52 0 93 21t81 69q9 10 18 10q20 0 20 -19q0 -9 -16 -28t-42 -40.5t-68 -37.5t-86 -16q-102 0 -180.5 78.5t-78.5 179.5v83z" />
<glyph unicode="&#x107;" d="M423 600l-114 -100q-12 -9 -19 -9q-8 0 -14 6t-6 15q0 8 12 19l114 100q12 9 19 9q8 0 14 -6t6 -15q0 -8 -12 -19zM535 88q0 -9 -17 -25.5t-44.5 -34.5t-72.5 -31t-92 -13q-98 0 -161.5 62t-63.5 158q0 99 65 163t165 64q93 0 156 -55v13q0 28 21 28q20 0 20 -28v-91 q0 -27 -20 -27q-18 0 -21 24q-3 40 -49.5 67.5t-109.5 27.5q-83 0 -134.5 -51.5t-51.5 -133.5q0 -79 52 -129.5t134 -50.5q109 0 187 72q10 10 18 10t13.5 -5.5t5.5 -13.5z" />
<glyph unicode="&#x108;" d="M305 760l132 -108q13 -11 13 -21q0 -8 -6 -14t-14 -6q-7 0 -18 8l-107 88l-107 -88q-11 -8 -18 -8q-8 0 -14 6t-6 14t13 20zM63 325q0 19 5.5 46.5t22.5 64.5t42 67t70 51.5t102 21.5q101 0 173 -69v29q0 27 21 27q20 0 20 -27v-112q0 -27 -21 -27q-18 0 -20 24 q-3 46 -54.5 80t-118.5 34q-83 0 -142 -63.5t-59 -152.5v-71q0 -90 65 -156.5t153 -66.5q52 0 93 21t81 69q9 10 18 10q20 0 20 -19q0 -9 -16 -28t-42 -40.5t-68 -37.5t-86 -16q-102 0 -180.5 78.5t-78.5 179.5v83z" />
<glyph unicode="&#x109;" d="M314 623l132 -108q13 -11 13 -21q0 -8 -6 -14t-14 -6q-7 0 -18 8l-107 88l-107 -88q-11 -8 -18 -8q-8 0 -14 6t-6 14t13 20zM535 88q0 -9 -17 -25.5t-44.5 -34.5t-72.5 -31t-92 -13q-98 0 -161.5 62t-63.5 158q0 99 65 163t165 64q93 0 156 -55v13q0 28 21 28 q20 0 20 -28v-91q0 -27 -20 -27q-18 0 -21 24q-3 40 -49.5 67.5t-109.5 27.5q-83 0 -134.5 -51.5t-51.5 -133.5q0 -79 52 -129.5t134 -50.5q109 0 187 72q10 10 18 10t13.5 -5.5t5.5 -13.5z" />
<glyph unicode="&#x10a;" d="M305 712q21 0 35.5 -15t14.5 -36q0 -20 -15 -34.5t-35 -14.5t-35 15t-15 35t15 35t35 15zM63 325q0 19 5.5 46.5t22.5 64.5t42 67t70 51.5t102 21.5q101 0 173 -69v29q0 27 21 27q20 0 20 -27v-112q0 -27 -21 -27q-18 0 -20 24q-3 46 -54.5 80t-118.5 34 q-83 0 -142 -63.5t-59 -152.5v-71q0 -90 65 -156.5t153 -66.5q52 0 93 21t81 69q9 10 18 10q20 0 20 -19q0 -9 -16 -28t-42 -40.5t-68 -37.5t-86 -16q-102 0 -180.5 78.5t-78.5 179.5v83z" />
<glyph unicode="&#x10b;" d="M314 591q21 0 35.5 -15t14.5 -36q0 -20 -15 -34.5t-35 -14.5t-35 15t-15 35t15 35t35 15zM535 88q0 -9 -17 -25.5t-44.5 -34.5t-72.5 -31t-92 -13q-98 0 -161.5 62t-63.5 158q0 99 65 163t165 64q93 0 156 -55v13q0 28 21 28q20 0 20 -28v-91q0 -27 -20 -27q-18 0 -21 24 q-3 40 -49.5 67.5t-109.5 27.5q-83 0 -134.5 -51.5t-51.5 -133.5q0 -79 52 -129.5t134 -50.5q109 0 187 72q10 10 18 10t13.5 -5.5t5.5 -13.5z" />
<glyph unicode="&#x10c;" d="M305 604l-132 109q-13 9 -13 20q0 8 6 14t14 6q7 0 18 -8l107 -88l107 88q11 8 18 8q8 0 14 -6.5t6 -13.5q0 -10 -13 -21zM63 325q0 19 5.5 46.5t22.5 64.5t42 67t70 51.5t102 21.5q101 0 173 -69v29q0 27 21 27q20 0 20 -27v-112q0 -27 -21 -27q-18 0 -20 24 q-3 46 -54.5 80t-118.5 34q-83 0 -142 -63.5t-59 -152.5v-71q0 -90 65 -156.5t153 -66.5q52 0 93 21t81 69q9 10 18 10q20 0 20 -19q0 -9 -16 -28t-42 -40.5t-68 -37.5t-86 -16q-102 0 -180.5 78.5t-78.5 179.5v83z" />
<glyph unicode="&#x10d;" d="M330 491l-132 109q-13 9 -13 20q0 8 6 14t14 6q7 0 18 -8l107 -88l107 88q11 8 18 8t13.5 -6t6.5 -14q0 -10 -13 -21zM535 88q0 -9 -17 -25.5t-44.5 -34.5t-72.5 -31t-92 -13q-98 0 -161.5 62t-63.5 158q0 99 65 163t165 64q93 0 156 -55v13q0 28 21 28q20 0 20 -28v-91 q0 -27 -20 -27q-18 0 -21 24q-3 40 -49.5 67.5t-109.5 27.5q-83 0 -134.5 -51.5t-51.5 -133.5q0 -79 52 -129.5t134 -50.5q109 0 187 72q10 10 18 10t13.5 -5.5t5.5 -13.5z" />
<glyph unicode="&#x10e;" d="M282 602l-132 109q-13 9 -13 20q0 8 6 14t14 6q7 0 18 -8l107 -88l107 88q11 8 18 8t13.5 -6.5t6.5 -13.5q0 -10 -13 -21zM104 41v481h-34q-27 0 -27 21q0 20 27 20h220q97 0 163.5 -73.5t66.5 -179.5v-56q0 -107 -66.5 -180.5t-163.5 -73.5h-220q-27 0 -27 21 q0 20 27 20h34zM479 318q0 20 -9 50t-28.5 66.5t-60 62t-93.5 25.5h-143v-481h150q72 0 128 62t56 142v73z" />
<glyph unicode="&#x10f;" d="M606 604h80l-87 -159q-8 -15 -19 -15q-7 0 -12 5t-5 12q0 2 0.5 4t0.5 3zM502 604v-563h54q27 0 27 -20q0 -21 -27 -21h-95v89q-71 -105 -182 -105q-89 0 -152.5 66t-63.5 158t63.5 157.5t152.5 65.5q110 0 182 -104v236h-54q-27 0 -27 21q0 20 27 20h95zM282 390 q-74 0 -126 -53t-52 -129q0 -77 52 -130t127 -53q74 0 126 53t52 128q0 78 -51.5 131t-127.5 53z" />
<glyph unicode="&#x110;" d="M104 272h-77q-27 0 -27 21q0 20 27 20h77v209h-34q-27 0 -27 21q0 20 27 20h220q94 0 162 -74.5t68 -178.5v-56q0 -104 -68 -179t-162 -75h-220q-27 0 -27 21q0 20 27 20h34v231zM479 319q0 15 -5 37t-18.5 52t-34 54.5t-55.5 42t-78 17.5h-143v-209h162q27 0 27 -20 q0 -21 -27 -21h-162v-231h150q71 0 127.5 62.5t56.5 141.5v74z" />
<glyph unicode="&#x111;" d="M502 520h54q27 0 27 -20q0 -21 -27 -21h-54v-438h54q27 0 27 -20q0 -21 -27 -21h-95v81q-70 -97 -181 -97q-90 0 -153.5 65.5t-63.5 158.5q0 92 63.5 157.5t153.5 65.5q109 0 181 -96v144h-138q-27 0 -27 21q0 20 27 20h138v43h-54q-27 0 -27 21q0 20 27 20h95v-84z M282 390q-74 0 -126 -53t-52 -129q0 -77 52 -130t127 -53q73 0 125.5 53t52.5 127q0 79 -51.5 132t-127.5 53z" />
<glyph unicode="&#x112;" d="M402 628h-236q-27 0 -27 20t27 20h236q27 0 27 -20t-27 -20zM165 272v-231h314v119q0 27 21 27q20 0 20 -27v-160h-450q-27 0 -27 21q0 20 27 20h54v481h-54q-27 0 -27 21q0 20 27 20h429v-139q0 -27 -21 -27q-20 0 -20 27v98h-293v-209h145v45q0 27 21 27q20 0 20 -27 v-131q0 -27 -20 -27q-21 0 -21 27v45h-145z" />
<glyph unicode="&#x113;" d="M409 491h-236q-27 0 -27 20t27 20h236q27 0 27 -20t-27 -20zM520 199h-416q11 -79 66 -126.5t136 -47.5q47 0 96 15t79 39q10 7 16 7q8 0 13.5 -6t5.5 -14q0 -26 -71.5 -54t-139.5 -28q-101 0 -171.5 68t-70.5 165q0 91 66 152.5t162 61.5q101 0 165 -63.5t64 -168.5z M104 240h374q-12 68 -63 109t-124 41t-123 -40.5t-64 -109.5z" />
<glyph unicode="&#x114;" d="M160 744q17 0 20 -22q2 -29 32 -48t72 -19t71.5 19t32.5 48q3 22 21 22q8 0 14 -6.5t6 -16.5q0 -45 -42 -76t-103 -31t-103 31t-42 76q0 23 21 23zM165 272v-231h314v119q0 27 21 27q20 0 20 -27v-160h-450q-27 0 -27 21q0 20 27 20h54v481h-54q-27 0 -27 21q0 20 27 20 h429v-139q0 -27 -21 -27q-20 0 -20 27v98h-293v-209h145v45q0 27 21 27q20 0 20 -27v-131q0 -27 -20 -27q-21 0 -21 27v45h-145z" />
<glyph unicode="&#x115;" d="M167 624q17 0 20 -22q2 -29 32 -48t72 -19t71.5 19t32.5 48q3 22 21 22q8 0 14 -6.5t6 -16.5q0 -45 -42 -76t-103 -31t-103 31t-42 76q0 23 21 23zM520 199h-416q11 -79 66 -126.5t136 -47.5q47 0 96 15t79 39q10 7 16 7q8 0 13.5 -6t5.5 -14q0 -26 -71.5 -54t-139.5 -28 q-101 0 -171.5 68t-70.5 165q0 91 66 152.5t162 61.5q101 0 165 -63.5t64 -168.5zM104 240h374q-12 68 -63 109t-124 41t-123 -40.5t-64 -109.5z" />
<glyph unicode="&#x116;" d="M284 708q21 0 35.5 -15t14.5 -36q0 -20 -15 -34.5t-35 -14.5t-35 15t-15 35t15 35t35 15zM165 272v-231h314v119q0 27 21 27q20 0 20 -27v-160h-450q-27 0 -27 21q0 20 27 20h54v481h-54q-27 0 -27 21q0 20 27 20h429v-139q0 -27 -21 -27q-20 0 -20 27v98h-293v-209h145 v45q0 27 21 27q20 0 20 -27v-131q0 -27 -20 -27q-21 0 -21 27v45h-145z" />
<glyph unicode="&#x117;" d="M291 604q21 0 35.5 -15t14.5 -36q0 -20 -15 -34.5t-35 -14.5t-35 15t-15 35t15 35t35 15zM520 199h-416q11 -79 66 -126.5t136 -47.5q47 0 96 15t79 39q10 7 16 7q8 0 13.5 -6t5.5 -14q0 -26 -71.5 -54t-139.5 -28q-101 0 -171.5 68t-70.5 165q0 91 66 152.5t162 61.5 q101 0 165 -63.5t64 -168.5zM104 240h374q-12 68 -63 109t-124 41t-123 -40.5t-64 -109.5z" />
<glyph unicode="&#x118;" d="M477 -123q22 0 38 9.5t19 9.5q5 0 9.5 -4.5t4.5 -10.5q0 -13 -24.5 -24.5t-52.5 -11.5q-36 0 -56 16t-20 45q0 58 77 94h-402q-27 0 -27 21q0 20 27 20h54v481h-54q-27 0 -27 21q0 20 27 20h429v-139q0 -27 -21 -27q-20 0 -20 27v98h-293v-209h145v45q0 27 21 27 q20 0 20 -27v-131q0 -27 -20 -27q-21 0 -21 27v45h-145v-231h314v119q0 27 21 27q20 0 20 -27v-160l-28 -15q-58 -31 -58 -74q0 -34 43 -34z" />
<glyph unicode="&#x119;" d="M389 -123q22 0 38 9.5t19 9.5q5 0 9.5 -4.5t4.5 -10.5q0 -13 -24.5 -24.5t-52.5 -11.5q-36 0 -56 16t-20 45q0 50 54 83q-30 -5 -55 -5q-102 0 -172.5 67.5t-70.5 165.5q0 91 66 152.5t162 61.5q101 0 165 -63.5t64 -168.5h-416q11 -79 66 -126.5t136 -47.5q47 0 96 15 t79 39q10 7 16 7q8 0 13.5 -6t5.5 -14q0 -12 -26.5 -30t-58.5 -35t-58.5 -42t-26.5 -48q0 -34 43 -34zM104 240h374q-12 68 -63 109t-124 41t-123 -40.5t-64 -109.5z" />
<glyph unicode="&#x11a;" d="M284 602l-132 109q-13 9 -13 20q0 8 6 14t14 6q7 0 18 -8l107 -88l107 88q11 8 18 8t13.5 -6.5t6.5 -13.5q0 -10 -13 -21zM165 272v-231h314v119q0 27 21 27q20 0 20 -27v-160h-450q-27 0 -27 21q0 20 27 20h54v481h-54q-27 0 -27 21q0 20 27 20h429v-139q0 -27 -21 -27 q-20 0 -20 27v98h-293v-209h145v45q0 27 21 27q20 0 20 -27v-131q0 -27 -20 -27q-21 0 -21 27v45h-145z" />
<glyph unicode="&#x11b;" d="M291 491l-132 109q-13 9 -13 20q0 8 6 14t14 6q7 0 18 -8l107 -88l107 88q11 8 18 8q8 0 14 -6t6 -14q0 -10 -13 -21zM520 199h-416q11 -79 66 -126.5t136 -47.5q47 0 96 15t79 39q10 7 16 7q8 0 13.5 -6t5.5 -14q0 -26 -71.5 -54t-139.5 -28q-101 0 -171.5 68t-70.5 165 q0 91 66 152.5t162 61.5q101 0 165 -63.5t64 -168.5zM104 240h374q-12 68 -63 109t-124 41t-123 -40.5t-64 -109.5z" />
<glyph unicode="&#x11c;" d="M313 756l132 -108q13 -11 13 -21q0 -8 -6 -14t-14 -6q-7 0 -18 8l-107 88l-107 -88q-11 -8 -18 -8q-8 0 -14 6t-6 14t13 20zM315 535q-62 0 -107 -27t-65.5 -66t-29.5 -71t-9 -54v-73q0 -102 62 -160.5t170 -58.5q70 0 143 34v150h-139q-27 0 -27 21q0 20 27 20h194 q28 0 28 -20q0 -21 -28 -21h-14v-173q-90 -52 -187 -52q-123 0 -196.5 71t-73.5 189v74q0 105 70.5 181.5t179.5 76.5q99 0 166 -54v14q0 27 21 27q20 0 20 -27v-91q0 -27 -20 -27q-19 0 -20 25q-3 38 -51 65t-114 27z" />
<glyph unicode="&#x11d;" d="M269 640l132 -108q13 -11 13 -21q0 -8 -6 -14t-14 -6q-7 0 -18 8l-107 88l-107 -88q-11 -8 -18 -8q-8 0 -14 6t-6 14t13 20zM440 334v83h95q27 0 27 -20q0 -21 -27 -21h-54v-404q0 -64 -48 -111t-117 -47h-114q-27 0 -27 21q0 20 27 20h116q51 0 86.5 36t35.5 87v129 q-66 -97 -171 -97q-85 0 -145.5 62t-60.5 149t60.5 148.5t145.5 61.5q106 0 171 -97zM272 390q-70 0 -119 -49t-49 -120t49 -120.5t119 -49.5t119 49t49 119q0 73 -48.5 122t-119.5 49z" />
<glyph unicode="&#x11e;" d="M189 744q17 0 20 -22q2 -29 32 -48t72 -19t71.5 19t32.5 48q3 22 21 22q8 0 14 -6.5t6 -16.5q0 -45 -42 -76t-103 -31t-103 31t-42 76q0 23 21 23zM315 535q-62 0 -107 -27t-65.5 -66t-29.5 -71t-9 -54v-73q0 -102 62 -160.5t170 -58.5q70 0 143 34v150h-139 q-27 0 -27 21q0 20 27 20h194q28 0 28 -20q0 -21 -28 -21h-14v-173q-90 -52 -187 -52q-123 0 -196.5 71t-73.5 189v74q0 105 70.5 181.5t179.5 76.5q99 0 166 -54v14q0 27 21 27q20 0 20 -27v-91q0 -27 -20 -27q-19 0 -20 25q-3 38 -51 65t-114 27z" />
<glyph unicode="&#x11f;" d="M175 621q17 0 20 -22q2 -29 32 -48t72 -19t71.5 19t32.5 48q3 22 21 22q8 0 14 -6.5t6 -16.5q0 -45 -42 -76t-103 -31t-103 31t-42 76q0 23 21 23zM440 334v83h95q27 0 27 -20q0 -21 -27 -21h-54v-404q0 -64 -48 -111t-117 -47h-114q-27 0 -27 21q0 20 27 20h116 q51 0 86.5 36t35.5 87v129q-66 -97 -171 -97q-85 0 -145.5 62t-60.5 149t60.5 148.5t145.5 61.5q106 0 171 -97zM272 390q-70 0 -119 -49t-49 -120t49 -120.5t119 -49.5t119 49t49 119q0 73 -48.5 122t-119.5 49z" />
<glyph unicode="&#x120;" d="M313 714q21 0 35.5 -15t14.5 -36q0 -20 -15 -34.5t-35 -14.5t-35 15t-15 35t15 35t35 15zM315 535q-62 0 -107 -27t-65.5 -66t-29.5 -71t-9 -54v-73q0 -102 62 -160.5t170 -58.5q70 0 143 34v150h-139q-27 0 -27 21q0 20 27 20h194q28 0 28 -20q0 -21 -28 -21h-14v-173 q-90 -52 -187 -52q-123 0 -196.5 71t-73.5 189v74q0 105 70.5 181.5t179.5 76.5q99 0 166 -54v14q0 27 21 27q20 0 20 -27v-91q0 -27 -20 -27q-19 0 -20 25q-3 38 -51 65t-114 27z" />
<glyph unicode="&#x121;" d="M269 606q21 0 35.5 -15t14.5 -36q0 -20 -15 -34.5t-35 -14.5t-35 15t-15 35t15 35t35 15zM440 334v83h95q27 0 27 -20q0 -21 -27 -21h-54v-404q0 -64 -48 -111t-117 -47h-114q-27 0 -27 21q0 20 27 20h116q51 0 86.5 36t35.5 87v129q-66 -97 -171 -97q-85 0 -145.5 62 t-60.5 149t60.5 148.5t145.5 61.5q106 0 171 -97zM272 390q-70 0 -119 -49t-49 -120t49 -120.5t119 -49.5t119 49t49 119q0 73 -48.5 122t-119.5 49z" />
<glyph unicode="&#x122;" d="M285 -52h68l-74 -135q-7 -13 -16 -13q-6 0 -10.5 4.5t-4.5 10.5q0 1 1 5zM315 535q-62 0 -107 -27t-65.5 -66t-29.5 -71t-9 -54v-73q0 -102 62 -160.5t170 -58.5q70 0 143 34v150h-139q-27 0 -27 21q0 20 27 20h194q28 0 28 -20q0 -21 -28 -21h-14v-173q-90 -52 -187 -52 q-123 0 -196.5 71t-73.5 189v74q0 105 70.5 181.5t179.5 76.5q99 0 166 -54v14q0 27 21 27q20 0 20 -27v-91q0 -27 -20 -27q-19 0 -20 25q-3 38 -51 65t-114 27z" />
<glyph unicode="&#x123;" d="M287 491h-80l87 159q8 15 19 15q7 0 12 -5t5 -12q0 -2 -0.5 -4t-0.5 -3zM440 334v83h95q27 0 27 -20q0 -21 -27 -21h-54v-404q0 -64 -48 -111t-117 -47h-114q-27 0 -27 21q0 20 27 20h116q51 0 86.5 36t35.5 87v129q-66 -97 -171 -97q-85 0 -145.5 62t-60.5 149 t60.5 148.5t145.5 61.5q106 0 171 -97zM272 390q-70 0 -119 -49t-49 -120t49 -120.5t119 -49.5t119 49t49 119q0 73 -48.5 122t-119.5 49z" />
<glyph unicode="&#x124;" d="M302 759l132 -108q13 -11 13 -21q0 -8 -6 -14t-14 -6q-7 0 -18 8l-107 88l-107 -88q-11 -8 -18 -8q-8 0 -14 6t-6 14t13 20zM437 272h-270v-231h54q27 0 27 -20q0 -21 -27 -21h-140q-28 0 -28 21q0 20 28 20h45v481h-25q-27 0 -27 21q0 20 27 20h120q27 0 27 -20 q0 -21 -27 -21h-54v-209h270v209h-54q-27 0 -27 21q0 20 27 20h120q27 0 27 -20q0 -21 -27 -21h-25v-481h46q27 0 27 -20q0 -21 -27 -21h-141q-27 0 -27 21q0 20 27 20h54v231z" />
<glyph unicode="&#x125;" d="M297 786l132 -108q13 -11 13 -21q0 -8 -6 -14t-14 -6q-7 0 -18 8l-107 88l-107 -88q-11 -8 -18 -8q-8 0 -14 6t-6 14t13 20zM437 288q0 45 -34 73.5t-89 28.5q-42 0 -69.5 -16.5t-68.5 -64.5l-11 -13v-255h45q28 0 28 -20q0 -21 -28 -21h-132q-27 0 -27 21q0 20 27 20h46 v522h-54q-27 0 -27 21q0 20 27 20h95v-257q38 46 73 65t81 19q70 0 114.5 -39.5t44.5 -100.5v-250h45q28 0 28 -20q0 -21 -28 -21h-131q-27 0 -27 21q0 20 27 20h45v247z" />
<glyph unicode="&#x126;" d="M478 421h25q27 0 27 -20t-27 -20h-25v-340h46q27 0 27 -20q0 -21 -27 -21h-141q-27 0 -27 21q0 20 27 20h54v231h-270v-231h54q27 0 27 -20q0 -21 -27 -21h-140q-28 0 -28 21q0 20 28 20h45v340h-25q-27 0 -27 20t27 20h25v101h-25q-27 0 -27 21q0 20 27 20h120 q27 0 27 -20q0 -21 -27 -21h-54v-101h270v101h-54q-27 0 -27 21q0 20 27 20h120q27 0 27 -20q0 -21 -27 -21h-25v-101zM437 381h-270v-68h270v68z" />
<glyph unicode="&#x127;" d="M437 288q0 45 -34 73.5t-89 28.5q-42 0 -69.5 -16.5t-68.5 -64.5l-11 -13v-255h45q28 0 28 -20q0 -21 -28 -21h-132q-27 0 -27 21q0 20 27 20h46v428h-54q-27 0 -27 20t27 20h54v54h-54q-27 0 -27 21q0 20 27 20h95v-95h141q27 0 27 -20t-27 -20h-141v-122q38 46 73 65 t81 19q70 0 114.5 -39.5t44.5 -100.5v-250h45q28 0 28 -20q0 -21 -28 -21h-131q-27 0 -27 21q0 20 27 20h45v247z" />
<glyph unicode="&#x128;" d="M362 656q18 0 42 23t31 23q8 0 14 -6t6 -14q0 -15 -31.5 -41t-59.5 -26q-26 0 -69 24t-55 24q-25 0 -44 -22.5t-31 -22.5q-8 0 -14 5.5t-6 13.5q0 18 32.5 42.5t61.5 24.5q23 0 66.5 -24t56.5 -24zM320 522v-481h139q28 0 28 -20q0 -21 -28 -21h-319q-27 0 -27 21 q0 20 27 20h139v481h-139q-27 0 -27 21q0 20 27 20h319q28 0 28 -20q0 -21 -28 -21h-139z" />
<glyph unicode="&#x129;" d="M361 532q19 0 43 23t30 23q8 0 14 -6t6 -14q0 -15 -31.5 -41t-59.5 -26q-26 0 -69 24t-55 24q-25 0 -44 -22.5t-31 -22.5q-8 0 -14 5.5t-6 13.5q0 18 32.5 42.5t61.5 24.5q23 0 66.5 -24t56.5 -24zM320 417v-376h160q28 0 28 -20q0 -21 -28 -21h-361q-27 0 -27 21 q0 20 27 20h160v335h-118q-27 0 -27 21q0 20 27 20h159z" />
<glyph unicode="&#x12a;" d="M418 627h-236q-27 0 -27 20t27 20h236q27 0 27 -20t-27 -20zM320 522v-481h139q28 0 28 -20q0 -21 -28 -21h-319q-27 0 -27 21q0 20 27 20h139v481h-139q-27 0 -27 21q0 20 27 20h319q28 0 28 -20q0 -21 -28 -21h-139z" />
<glyph unicode="&#x12b;" d="M417 491h-236q-27 0 -27 20t27 20h236q27 0 27 -20t-27 -20zM320 417v-376h160q28 0 28 -20q0 -21 -28 -21h-361q-27 0 -27 21q0 20 27 20h160v335h-118q-27 0 -27 21q0 20 27 20h159z" />
<glyph unicode="&#x12c;" d="M176 744q17 0 20 -22q2 -29 32 -48t72 -19t71.5 19t32.5 48q3 22 21 22q8 0 14 -6.5t6 -16.5q0 -45 -42 -76t-103 -31t-103 31t-42 76q0 23 21 23zM320 522v-481h139q28 0 28 -20q0 -21 -28 -21h-319q-27 0 -27 21q0 20 27 20h139v481h-139q-27 0 -27 21q0 20 27 20h319 q28 0 28 -20q0 -21 -28 -21h-139z" />
<glyph unicode="&#x12d;" d="M175 622q17 0 20 -22q2 -29 32 -48t72 -19t71.5 19t32.5 48q3 22 21 22q8 0 14 -6.5t6 -16.5q0 -45 -42 -76t-103 -31t-103 31t-42 76q0 23 21 23zM320 417v-376h160q28 0 28 -20q0 -21 -28 -21h-361q-27 0 -27 21q0 20 27 20h160v335h-118q-27 0 -27 21q0 20 27 20h159z " />
<glyph unicode="&#x12e;" d="M429 -123q22 0 38 9.5t19 9.5q5 0 9.5 -4.5t4.5 -10.5q0 -13 -24.5 -24.5t-52.5 -11.5q-36 0 -56 16t-20 45q0 31 17.5 52.5t59.5 41.5h-284q-27 0 -27 21q0 20 27 20h139v481h-139q-27 0 -27 21q0 20 27 20h319q28 0 28 -20q0 -21 -28 -21h-139v-481h139q28 0 28 -20 q0 -9 -16 -20t-34.5 -21t-34.5 -28.5t-16 -40.5q0 -34 43 -34z" />
<glyph unicode="&#x12f;" d="M449 -123q22 0 38 9.5t19 9.5q5 0 9.5 -4.5t4.5 -10.5q0 -13 -24.5 -24.5t-52.5 -11.5q-36 0 -56 16t-20 45q0 31 17.5 52.5t59.5 41.5h-325q-27 0 -27 21q0 20 27 20h160v335h-118q-27 0 -27 21q0 20 27 20h159v-376h160q28 0 28 -20q0 -10 -16 -20.5t-35 -20.5t-35 -28 t-16 -41q0 -34 43 -34zM318 624v-104h-59v104h59z" />
<glyph unicode="&#x130;" d="M300 710q21 0 35.5 -15t14.5 -36q0 -20 -15 -34.5t-35 -14.5t-35 15t-15 35t15 35t35 15zM320 522v-481h139q28 0 28 -20q0 -21 -28 -21h-319q-27 0 -27 21q0 20 27 20h139v481h-139q-27 0 -27 21q0 20 27 20h319q28 0 28 -20q0 -21 -28 -21h-139z" />
<glyph unicode="&#x131;" d="M320 417v-376h160q28 0 28 -20q0 -21 -28 -21h-361q-27 0 -27 21q0 20 27 20h160v335h-118q-27 0 -27 21q0 20 27 20h159z" />
<glyph unicode="&#x132;" d="M494 522v-357q0 -80 -35 -130.5t-108 -50.5q-47 0 -78 21t-63 69v149q0 27 21 27q20 0 20 -27v-130q24 -41 44 -54.5t57 -13.5q56 0 78.5 37t22.5 103v357h-95q-27 0 -27 21q0 20 27 20h186q27 0 27 -20q0 -21 -27 -21h-50zM141 522v-481h44q28 0 28 -20q0 -21 -28 -21 h-129q-27 0 -27 21q0 20 27 20h44v481h-44q-27 0 -27 21q0 20 27 20h129q28 0 28 -20q0 -21 -28 -21h-44z" />
<glyph unicode="&#x133;" d="M435 376h-81q-27 0 -27 21q0 20 27 20h122v-445q0 -70 -43.5 -114t-111.5 -44h-129q-27 0 -27 21q0 20 27 20h128q50 0 82.5 33t32.5 84v404zM483 624v-104h-59v104h59zM258 417v-376h64q28 0 28 -20q0 -21 -28 -21h-171q-27 0 -27 21q0 20 27 20h66v335h-56 q-27 0 -27 21q0 20 27 20h97zM269 624v-104h-59v104h59z" />
<glyph unicode="&#x134;" d="M408 749l132 -108q13 -11 13 -21q0 -8 -6 -14t-14 -6q-7 0 -18 8l-107 88l-107 -88q-11 -8 -18 -8q-8 0 -14 6t-6 14t13 20zM460 522v-357q0 -74 -55.5 -127.5t-132.5 -53.5q-48 0 -91 20.5t-97 69.5v149q0 27 21 27q20 0 20 -27v-130q75 -68 148 -68q61 0 103.5 41 t42.5 99v357h-159q-27 0 -27 21q0 20 27 20h296q27 0 27 -20q0 -21 -27 -21h-96z" />
<glyph unicode="&#x135;" d="M417 376h-241q-27 0 -27 21q0 20 27 20h282v-445q0 -70 -43.5 -114t-111.5 -44h-129q-27 0 -27 21q0 20 27 20h128q50 0 82.5 33t32.5 84v404zM317 666l132 -108q13 -11 13 -21q0 -8 -6 -14t-14 -6q-7 0 -18 8l-107 88l-107 -88q-11 -8 -18 -8q-8 0 -14 6t-6 14t13 20z " />
<glyph unicode="&#x136;" d="M263 -52h68l-74 -135q-7 -13 -16 -13q-6 0 -10.5 4.5t-4.5 10.5q0 1 1 5zM165 221v-180h75q27 0 27 -20q0 -21 -27 -21h-170q-27 0 -27 21q0 20 27 20h54v481h-54q-27 0 -27 21q0 20 27 20h170q27 0 27 -20q0 -21 -27 -21h-75v-249l280 249h-45q-28 0 -28 21q0 20 28 20 h118q28 0 28 -20q0 -21 -28 -21h-16l-222 -198q73 -30 113 -84.5t96 -198.5h56q27 0 27 -20q0 -21 -27 -21h-87q-55 152 -98 211.5t-114 82.5z" />
<glyph unicode="&#x137;" d="M263 -52h68l-74 -135q-7 -13 -16 -13q-6 0 -10.5 4.5t-4.5 10.5q0 1 1 5zM185 180v-180h-95q-27 0 -27 21q0 20 27 20h54v522h-54q-27 0 -27 21q0 20 27 20h95v-375l173 147h-22q-27 0 -27 21q0 20 27 20h130q27 0 27 -20q0 -21 -27 -21h-47l-157 -131l207 -204h45 q27 0 27 -20q0 -21 -27 -21h-131q-27 0 -27 21q0 20 27 20h28l-180 178z" />
<glyph unicode="&#x138;" d="M192 0h-95q-27 0 -27 21q0 20 27 20h54v335h-54q-27 0 -27 21q0 20 27 20h95v-177l173 136h-22q-27 0 -27 21q0 20 27 20h130q27 0 27 -20q0 -21 -27 -21h-47l-203 -159l235 -176h45q27 0 27 -20q0 -21 -27 -21h-131q-27 0 -27 21q0 20 27 20h28l-208 150v-191z" />
<glyph unicode="&#x139;" d="M329 720l-114 -100q-12 -9 -19 -9q-8 0 -14 6t-6 15q0 8 12 19l114 100q12 9 19 9q8 0 14 -6t6 -15q0 -8 -12 -19zM227 522v-481h273v160q0 27 21 27q20 0 20 -27v-201h-451q-27 0 -27 21q0 20 27 20h96v481h-96q-27 0 -27 21q0 20 27 20h233q27 0 27 -20q0 -21 -27 -21 h-96z" />
<glyph unicode="&#x13a;" d="M422 758l-114 -100q-12 -9 -19 -9q-8 0 -14 6t-6 15q0 8 12 19l114 100q12 9 19 9q8 0 14 -6t6 -15q0 -8 -12 -19zM320 604v-563h160q28 0 28 -20q0 -21 -28 -21h-361q-27 0 -27 21q0 20 27 20h160v522h-117q-27 0 -27 21q0 20 27 20h158z" />
<glyph unicode="&#x13b;" d="M263 -52h68l-74 -135q-7 -13 -16 -13q-6 0 -10.5 4.5t-4.5 10.5q0 1 1 5zM227 522v-481h273v160q0 27 21 27q20 0 20 -27v-201h-451q-27 0 -27 21q0 20 27 20h96v481h-96q-27 0 -27 21q0 20 27 20h233q27 0 27 -20q0 -21 -27 -21h-96z" />
<glyph unicode="&#x13c;" d="M263 -52h68l-74 -135q-7 -13 -16 -13q-6 0 -10.5 4.5t-4.5 10.5q0 1 1 5zM320 604v-563h160q28 0 28 -20q0 -21 -28 -21h-361q-27 0 -27 21q0 20 27 20h160v522h-117q-27 0 -27 21q0 20 27 20h158z" />
<glyph unicode="&#x13d;" d="M464 576h80l-87 -159q-8 -15 -19 -15q-7 0 -12 5t-5 12q0 2 0.5 4t0.5 3zM227 522v-481h273v160q0 27 21 27q20 0 20 -27v-201h-451q-27 0 -27 21q0 20 27 20h96v481h-96q-27 0 -27 21q0 20 27 20h233q27 0 27 -20q0 -21 -27 -21h-96z" />
<glyph unicode="&#x13e;" d="M432 604h80l-87 -159q-8 -15 -19 -15q-7 0 -12 5t-5 12q0 2 0.5 4t0.5 3zM320 604v-563h160q28 0 28 -20q0 -21 -28 -21h-361q-27 0 -27 21q0 20 27 20h160v522h-117q-27 0 -27 21q0 20 27 20h158z" />
<glyph unicode="&#x13f;" d="M432 418q21 0 35.5 -15t14.5 -36q0 -20 -15 -34.5t-35 -14.5t-35 15t-15 35t15 35t35 15zM227 522v-481h273v160q0 27 21 27q20 0 20 -27v-201h-451q-27 0 -27 21q0 20 27 20h96v481h-96q-27 0 -27 21q0 20 27 20h233q27 0 27 -20q0 -21 -27 -21h-96z" />
<glyph unicode="&#x140;" d="M432 418q21 0 35.5 -15t14.5 -36q0 -20 -15 -34.5t-35 -14.5t-35 15t-15 35t15 35t35 15zM280 604v-563h160q28 0 28 -20q0 -21 -28 -21h-361q-27 0 -27 21q0 20 27 20h160v522h-117q-27 0 -27 21q0 20 27 20h158z" />
<glyph unicode="&#x141;" d="M226 522v-212l134 80q12 5 17 5q8 0 14 -6t6 -14q0 -11 -17 -20l-154 -92v-222h274v161q0 27 21 27q20 0 20 -27v-202h-452q-27 0 -27 21q0 20 27 20h96v205l-106 -62q-9 -6 -17 -6q-7 0 -13 6.5t-6 14.5q0 11 16 20l126 74v229h-96q-27 0 -27 21q0 20 27 20h233 q27 0 27 -20q0 -21 -27 -21h-96z" />
<glyph unicode="&#x142;" d="M319 604v-261l88 51q11 6 17 6q8 0 13.5 -6t5.5 -14q0 -12 -16 -21l-108 -62v-256h162q27 0 27 -20q0 -21 -27 -21h-362q-27 0 -27 21q0 20 27 20h159v239l-87 -50q-11 -6 -17 -6q-7 0 -13 6.5t-6 14.5q0 12 16 21l107 61v236h-117q-27 0 -27 21q0 20 27 20h158z" />
<glyph unicode="&#x143;" d="M364 715l-114 -100q-12 -9 -19 -9q-8 0 -14 6t-6 15q0 8 12 19l114 100q12 9 19 9q8 0 14 -6t6 -15q0 -8 -12 -19zM501 0h-52l-305 504v-463h75q27 0 27 -20q0 -21 -27 -21h-150q-27 0 -27 21q0 20 27 20h34v481h-54q-27 0 -27 21q0 20 27 20h106l305 -504v463h-74 q-28 0 -28 21q0 20 28 20h149q27 0 27 -20q0 -21 -27 -21h-34v-522z" />
<glyph unicode="&#x144;" d="M420 600l-114 -100q-12 -9 -19 -9q-8 0 -14 6t-6 15q0 8 12 19l114 100q12 9 19 9q8 0 14 -6t6 -15q0 -8 -12 -19zM319 390q-18 0 -34.5 -3.5t-31 -11t-24.5 -14t-21.5 -18.5t-16 -17.5t-14 -18t-10.5 -13.5v-253h45q27 0 27 -20q0 -21 -27 -21h-131q-28 0 -28 21 q0 20 28 20h45v335h-34q-27 0 -27 21q0 20 27 20h75v-69q43 48 76 65.5t80 17.5q67 0 112 -39t45 -97v-254h34q27 0 27 -20q0 -21 -27 -21h-109q-27 0 -27 21q0 20 27 20h34v247q0 43 -32.5 72.5t-87.5 29.5z" />
<glyph unicode="&#x145;" d="M263 -52h68l-74 -135q-7 -13 -16 -13q-6 0 -10.5 4.5t-4.5 10.5q0 1 1 5zM501 0h-52l-305 504v-463h75q27 0 27 -20q0 -21 -27 -21h-150q-27 0 -27 21q0 20 27 20h34v481h-54q-27 0 -27 21q0 20 27 20h106l305 -504v463h-74q-28 0 -28 21q0 20 28 20h149q27 0 27 -20 q0 -21 -27 -21h-34v-522z" />
<glyph unicode="&#x146;" d="M263 -52h68l-74 -135q-7 -13 -16 -13q-6 0 -10.5 4.5t-4.5 10.5q0 1 1 5zM319 390q-18 0 -34.5 -3.5t-31 -11t-24.5 -14t-21.5 -18.5t-16 -17.5t-14 -18t-10.5 -13.5v-253h45q27 0 27 -20q0 -21 -27 -21h-131q-28 0 -28 21q0 20 28 20h45v335h-34q-27 0 -27 21 q0 20 27 20h75v-69q43 48 76 65.5t80 17.5q67 0 112 -39t45 -97v-254h34q27 0 27 -20q0 -21 -27 -21h-109q-27 0 -27 21q0 20 27 20h34v247q0 43 -32.5 72.5t-87.5 29.5z" />
<glyph unicode="&#x147;" d="M292 605l-132 109q-13 9 -13 20q0 8 6 14t14 6q7 0 18 -8l107 -88l107 88q11 8 18 8t13.5 -6t6.5 -14q0 -10 -13 -21zM501 0h-52l-305 504v-463h75q27 0 27 -20q0 -21 -27 -21h-150q-27 0 -27 21q0 20 27 20h34v481h-54q-27 0 -27 21q0 20 27 20h106l305 -504v463h-74 q-28 0 -28 21q0 20 28 20h149q27 0 27 -20q0 -21 -27 -21h-34v-522z" />
<glyph unicode="&#x148;" d="M297 491l-132 109q-13 9 -13 20q0 8 6 14t14 6q7 0 18 -8l107 -88l107 88q11 8 18 8q8 0 14 -6t6 -14q0 -10 -13 -21zM319 390q-18 0 -34.5 -3.5t-31 -11t-24.5 -14t-21.5 -18.5t-16 -17.5t-14 -18t-10.5 -13.5v-253h45q27 0 27 -20q0 -21 -27 -21h-131q-28 0 -28 21 q0 20 28 20h45v335h-34q-27 0 -27 21q0 20 27 20h75v-69q43 48 76 65.5t80 17.5q67 0 112 -39t45 -97v-254h34q27 0 27 -20q0 -21 -27 -21h-109q-27 0 -27 21q0 20 27 20h34v247q0 43 -32.5 72.5t-87.5 29.5z" />
<glyph unicode="&#x149;" d="M319 390q-18 0 -34.5 -3.5t-31 -11t-24.5 -14t-21.5 -18.5t-16 -17.5t-14 -18t-10.5 -13.5v-253h45q27 0 27 -20q0 -21 -27 -21h-131q-28 0 -28 21q0 20 28 20h45v335h-34q-27 0 -27 21q0 20 27 20h75v-69q43 48 76 65.5t80 17.5q67 0 112 -39t45 -97v-254h34 q27 0 27 -20q0 -21 -27 -21h-109q-27 0 -27 21q0 20 27 20h34v247q0 43 -32.5 72.5t-87.5 29.5zM51 664h80l-87 -159q-8 -15 -19 -15q-7 0 -12 5t-5 12q0 2 0.5 4t0.5 3z" />
<glyph unicode="&#x14a;" d="M480 299q0 113 -40 175t-101 62q-97 0 -172 -96v-399h45q27 0 27 -20q0 -21 -27 -21h-131q-28 0 -28 21q0 20 28 20h45v481h-34q-27 0 -27 21q0 20 27 20h75v-69q75 83 176 83q73 0 125.5 -69.5t52.5 -201.5q0 -317 -147 -317q-25 0 -56 8t-31 26q0 8 5.5 14t12.5 6 q3 0 26 -6.5t44 -6.5q105 0 105 269z" />
<glyph unicode="&#x14b;" d="M264 -145q4 0 26 -6.5t44 -6.5q46 0 75.5 32.5t29.5 83.5v330q0 43 -32.5 72.5t-87.5 29.5q-18 0 -34.5 -3.5t-31 -11t-24.5 -14t-21.5 -18.5t-16 -17.5t-14 -18t-10.5 -13.5v-253h45q27 0 27 -20q0 -21 -27 -21h-131q-28 0 -28 21q0 20 28 20h45v335h-34q-27 0 -27 21 q0 20 27 20h75v-69q43 48 76 65.5t80 17.5q67 0 112 -39t45 -97v-343q0 -63 -43 -107t-104 -44q-25 0 -56 8t-31 26q0 8 5.5 14t12.5 6z" />
<glyph unicode="&#x14c;" d="M418 629h-236q-27 0 -27 20t27 20h236q27 0 27 -20t-27 -20zM300 576q106 0 177.5 -86.5t71.5 -213.5q0 -121 -73 -206.5t-176 -85.5q-104 0 -176.5 86t-72.5 210t72.5 210t176.5 86zM300 535q-86 0 -147 -75t-61 -180t61 -180t147 -75q85 0 146.5 74.5t61.5 177.5 q0 108 -60.5 183t-147.5 75z" />
<glyph unicode="&#x14d;" d="M418 491h-236q-27 0 -27 20t27 20h236q27 0 27 -20t-27 -20zM300 431q96 0 162 -65.5t66 -160.5q0 -92 -67 -156.5t-161 -64.5q-95 0 -161.5 65t-66.5 159q0 92 66.5 157.5t161.5 65.5zM300 390q-78 0 -132.5 -53t-54.5 -129t54.5 -129.5t132.5 -53.5q77 0 132 53t55 127 q0 79 -54 132t-133 53z" />
<glyph unicode="&#x14e;" d="M176 744q17 0 20 -22q2 -29 32 -48t72 -19t71.5 19t32.5 48q3 22 21 22q8 0 14 -6.5t6 -16.5q0 -45 -42 -76t-103 -31t-103 31t-42 76q0 23 21 23zM300 576q106 0 177.5 -86.5t71.5 -213.5q0 -121 -73 -206.5t-176 -85.5q-104 0 -176.5 86t-72.5 210t72.5 210t176.5 86z M300 535q-86 0 -147 -75t-61 -180t61 -180t147 -75q85 0 146.5 74.5t61.5 177.5q0 108 -60.5 183t-147.5 75z" />
<glyph unicode="&#x14f;" d="M176 621q17 0 20 -22q2 -29 32 -48t72 -19t71.5 19t32.5 48q3 22 21 22q8 0 14 -6.5t6 -16.5q0 -45 -42 -76t-103 -31t-103 31t-42 76q0 23 21 23zM300 431q96 0 162 -65.5t66 -160.5q0 -92 -67 -156.5t-161 -64.5q-95 0 -161.5 65t-66.5 159q0 92 66.5 157.5t161.5 65.5 zM300 390q-78 0 -132.5 -53t-54.5 -129t54.5 -129.5t132.5 -53.5q77 0 132 53t55 127q0 79 -54 132t-133 53z" />
<glyph unicode="&#x150;" d="M345 705l-97 -94q-10 -9 -19 -9q-8 0 -14 6t-6 15q0 8 12 19l98 94q9 9 18 9q8 0 14 -6t6 -15q0 -7 -12 -19zM487 705l-98 -94q-11 -9 -19 -9t-14 6t-6 15t12 19l98 94q10 9 19 9q8 0 14 -6t6 -15q0 -8 -12 -19zM300 576q106 0 177.5 -86.5t71.5 -213.5 q0 -121 -73 -206.5t-176 -85.5q-104 0 -176.5 86t-72.5 210t72.5 210t176.5 86zM300 535q-86 0 -147 -75t-61 -180t61 -180t147 -75q85 0 146.5 74.5t61.5 177.5q0 108 -60.5 183t-147.5 75z" />
<glyph unicode="&#x151;" d="M345 594l-97 -94q-10 -9 -19 -9q-8 0 -14 6t-6 15q0 8 12 19l98 94q9 9 18 9q8 0 14 -6t6 -15q0 -7 -12 -19zM487 594l-98 -94q-11 -9 -19 -9t-14 6t-6 15t12 19l98 94q10 9 19 9q8 0 14 -6t6 -15q0 -8 -12 -19zM300 431q96 0 162 -65.5t66 -160.5q0 -92 -67 -156.5 t-161 -64.5q-95 0 -161.5 65t-66.5 159q0 92 66.5 157.5t161.5 65.5zM300 390q-78 0 -132.5 -53t-54.5 -129t54.5 -129.5t132.5 -53.5q77 0 132 53t55 127q0 79 -54 132t-133 53z" />
<glyph unicode="&#x152;" d="M338 272v-231h211v92q0 27 20 27q21 0 21 -27v-133h-327q-114 0 -183.5 77.5t-69.5 204.5q0 125 68 203t177 78h315v-154q0 -27 -20 -27q-21 0 -21 27v113h-191v-209h78v27q0 27 21 27q20 0 20 -27v-96q0 -27 -20 -27q-21 0 -21 27v28h-78zM51 281q0 -41 10 -80 t32.5 -76.5t66.5 -60.5t105 -23h32v481h-32q-61 0 -105 -23t-66.5 -60.5t-32.5 -76.5t-10 -81z" />
<glyph unicode="&#x153;" d="M299 317q45 114 132 114q24 0 47.5 -10.5t47 -35t37.5 -72.5t14 -114h-258q6 -74 42.5 -124t84.5 -50q25 0 48 15.5t39.5 31t24.5 15.5t14 -6.5t6 -13.5q0 -17 -46.5 -50t-87.5 -33q-45 0 -83.5 32t-61.5 87q-22 -57 -56.5 -88t-76.5 -31q-62 0 -108 68t-46 160 q0 89 45.5 154t107.5 65q41 0 77 -31t57 -83zM536 240q-4 29 -8.5 48t-15 46t-32 41.5t-51.5 14.5q-89 0 -109 -150h216zM166 390q-45 0 -79 -54.5t-34 -127.5t34 -128t80 -55q44 0 78.5 55t34.5 126q0 74 -34 129t-80 55z" />
<glyph unicode="&#x154;" d="M317 716l-114 -100q-12 -9 -19 -9q-8 0 -14 6t-6 15q0 8 12 19l114 100q12 9 19 9q8 0 14 -6t6 -15q0 -8 -12 -19zM165 251v-210h75q27 0 27 -20q0 -21 -27 -21h-170q-27 0 -27 21q0 20 27 20h54v481h-54q-27 0 -27 21q0 20 27 20h248q73 0 126.5 -46.5t53.5 -109.5 q0 -97 -139 -145q47 -32 79 -73t93 -148h31q27 0 27 -20q0 -21 -27 -21h-57q-66 122 -108.5 173.5t-99.5 77.5h-132zM165 292h114q74 0 126 34t52 82q0 45 -42.5 79.5t-96.5 34.5h-153v-230z" />
<glyph unicode="&#x155;" d="M435 600l-114 -100q-12 -9 -19 -9q-8 0 -14 6t-6 15q0 8 12 19l114 100q12 9 19 9q8 0 14 -6t6 -15q0 -8 -12 -19zM520 344q-5 0 -31 21t-51 21q-34 0 -70.5 -24t-119.5 -100v-221h179q27 0 27 -21q0 -20 -27 -20h-316q-27 0 -27 21q0 20 27 20h96v335h-75q-27 0 -27 21 q0 20 27 20h116v-102q69 63 112 87.5t81 24.5q40 0 70 -24t30 -38q0 -9 -6 -15t-15 -6z" />
<glyph unicode="&#x156;" d="M263 -52h68l-74 -135q-7 -13 -16 -13q-6 0 -10.5 4.5t-4.5 10.5q0 1 1 5zM165 251v-210h75q27 0 27 -20q0 -21 -27 -21h-170q-27 0 -27 21q0 20 27 20h54v481h-54q-27 0 -27 21q0 20 27 20h248q73 0 126.5 -46.5t53.5 -109.5q0 -97 -139 -145q47 -32 79 -73t93 -148h31 q27 0 27 -20q0 -21 -27 -21h-57q-66 122 -108.5 173.5t-99.5 77.5h-132zM165 292h114q74 0 126 34t52 82q0 45 -42.5 79.5t-96.5 34.5h-153v-230z" />
<glyph unicode="&#x157;" d="M263 -52h68l-74 -135q-7 -13 -16 -13q-6 0 -10.5 4.5t-4.5 10.5q0 1 1 5zM520 344q-5 0 -31 21t-51 21q-34 0 -70.5 -24t-119.5 -100v-221h179q27 0 27 -21q0 -20 -27 -20h-316q-27 0 -27 21q0 20 27 20h96v335h-75q-27 0 -27 21q0 20 27 20h116v-102q69 63 112 87.5 t81 24.5q40 0 70 -24t30 -38q0 -9 -6 -15t-15 -6z" />
<glyph unicode="&#x158;" d="M300 603l-132 109q-13 9 -13 20q0 8 6 14t14 6q7 0 18 -8l107 -88l107 88q11 8 18 8t13.5 -6t6.5 -14q0 -10 -13 -21zM165 251v-210h75q27 0 27 -20q0 -21 -27 -21h-170q-27 0 -27 21q0 20 27 20h54v481h-54q-27 0 -27 21q0 20 27 20h248q73 0 126.5 -46.5t53.5 -109.5 q0 -97 -139 -145q47 -32 79 -73t93 -148h31q27 0 27 -20q0 -21 -27 -21h-57q-66 122 -108.5 173.5t-99.5 77.5h-132zM165 292h114q74 0 126 34t52 82q0 45 -42.5 79.5t-96.5 34.5h-153v-230z" />
<glyph unicode="&#x159;" d="M312 491l-132 109q-13 9 -13 20q0 8 6 14t14 6q7 0 18 -8l107 -88l107 88q11 8 18 8t13.5 -6t6.5 -14q0 -10 -13 -21zM520 344q-5 0 -31 21t-51 21q-34 0 -70.5 -24t-119.5 -100v-221h179q27 0 27 -21q0 -20 -27 -20h-316q-27 0 -27 21q0 20 27 20h96v335h-75 q-27 0 -27 21q0 20 27 20h116v-102q69 63 112 87.5t81 24.5q40 0 70 -24t30 -38q0 -9 -6 -15t-15 -6z" />
<glyph unicode="&#x15a;" d="M422 718l-114 -100q-12 -9 -19 -9q-8 0 -14 6t-6 15q0 8 12 19l114 100q12 9 19 9q8 0 14 -6t6 -15q0 -8 -12 -19zM464 153q0 42 -26 68t-64.5 34.5t-84 19t-84 22t-64.5 43t-26 81.5q0 66 52.5 110.5t131.5 44.5q86 0 146 -59v19q0 27 21 27q20 0 20 -27v-103 q0 -27 -20 -27t-21 24q-3 45 -44 75t-99 30q-62 0 -102.5 -33t-40.5 -82q0 -39 26 -63t64.5 -32.5t84 -20t84 -23.5t64.5 -45.5t26 -84.5q0 -73 -58 -120t-148 -47q-106 0 -169 72v-29q0 -27 -21 -27q-20 0 -20 27v112q0 27 21 27q19 0 20 -24q2 -49 51 -83t117 -34 q70 0 116.5 36.5t46.5 91.5z" />
<glyph unicode="&#x15b;" d="M418 600l-114 -100q-12 -9 -19 -9q-8 0 -14 6t-6 15q0 8 12 19l114 100q12 9 19 9q8 0 14 -6t6 -15q0 -8 -12 -19zM452 117q0 37 -34 57t-82 27t-96 15t-82 33t-34 69q0 49 48.5 81t122.5 32q85 0 137 -46v4q0 28 21 28q20 0 20 -28v-69q0 -27 -20 -27q-18 0 -21 23 q-4 34 -40 54t-93 20q-56 0 -93 -21.5t-37 -53.5q0 -30 34 -46t82 -22.5t96 -16t82 -38t34 -76.5q0 -57 -55.5 -94.5t-140.5 -37.5q-96 0 -157 54v-11q0 -27 -20 -27q-21 0 -21 27v83q0 27 21 27q20 0 20 -22v-7q0 -34 45 -58.5t109 -24.5q66 0 110 26t44 66z" />
<glyph unicode="&#x15c;" d="M299 751l132 -108q13 -11 13 -21q0 -8 -6 -14t-14 -6q-7 0 -18 8l-107 88l-107 -88q-11 -8 -18 -8q-8 0 -14 6t-6 14t13 20zM464 153q0 42 -26 68t-64.5 34.5t-84 19t-84 22t-64.5 43t-26 81.5q0 66 52.5 110.5t131.5 44.5q86 0 146 -59v19q0 27 21 27q20 0 20 -27v-103 q0 -27 -20 -27t-21 24q-3 45 -44 75t-99 30q-62 0 -102.5 -33t-40.5 -82q0 -39 26 -63t64.5 -32.5t84 -20t84 -23.5t64.5 -45.5t26 -84.5q0 -73 -58 -120t-148 -47q-106 0 -169 72v-29q0 -27 -21 -27q-20 0 -20 27v112q0 27 21 27q19 0 20 -24q2 -49 51 -83t117 -34 q70 0 116.5 36.5t46.5 91.5z" />
<glyph unicode="&#x15d;" d="M295 626l132 -108q13 -11 13 -21q0 -8 -6 -14t-14 -6q-7 0 -18 8l-107 88l-107 -88q-11 -8 -18 -8q-8 0 -14 6t-6 14t13 20zM452 117q0 37 -34 57t-82 27t-96 15t-82 33t-34 69q0 49 48.5 81t122.5 32q85 0 137 -46v4q0 28 21 28q20 0 20 -28v-69q0 -27 -20 -27 q-18 0 -21 23q-4 34 -40 54t-93 20q-56 0 -93 -21.5t-37 -53.5q0 -30 34 -46t82 -22.5t96 -16t82 -38t34 -76.5q0 -57 -55.5 -94.5t-140.5 -37.5q-96 0 -157 54v-11q0 -27 -20 -27q-21 0 -21 27v83q0 27 21 27q20 0 20 -22v-7q0 -34 45 -58.5t109 -24.5q66 0 110 26t44 66z " />
<glyph unicode="&#x15e;" d="M159 420q0 -39 26 -63t64.5 -32.5t84 -20t84 -23.5t64.5 -45.5t26 -84.5q0 -70 -54 -116t-142 -51v-31q65 -2 65 -61q0 -29 -22 -47t-57 -18q-26 0 -57 11.5t-31 28.5q0 8 6 13.5t14 5.5q4 0 26.5 -10.5t40.5 -10.5q19 0 31.5 8t12.5 21q0 25 -47 25h-20v66 q-92 11 -141 71v-29q0 -27 -21 -27q-20 0 -20 27v112q0 27 21 27q19 0 20 -24q2 -49 51 -83t117 -34q71 0 117 36.5t46 91.5q0 42 -26 68t-64.5 34.5t-84 19t-84 22t-64.5 43t-26 81.5q0 66 52.5 110.5t131.5 44.5q86 0 146 -59v19q0 27 21 27q20 0 20 -27v-103 q0 -27 -20 -27t-21 24q-3 45 -44 75t-99 30q-62 0 -102.5 -33t-40.5 -82z" />
<glyph unicode="&#x15f;" d="M452 117q0 37 -34 57t-82 27t-96 15t-82 33t-34 69q0 49 48.5 81t121.5 32q86 0 138 -46v4q0 28 21 28q20 0 20 -28v-69q0 -27 -20 -27q-18 0 -21 23q-3 33 -40 53.5t-93 20.5t-93 -21.5t-37 -53.5q0 -30 31 -45t71.5 -18.5t92.5 -14.5t83 -31q50 -34 50 -90t-51 -92 t-134 -40v-31q65 -2 65 -61q0 -29 -22 -47t-57 -18q-26 0 -57 11.5t-31 28.5q0 8 5.5 13.5t13.5 5.5q5 0 27 -10.5t40 -10.5q19 0 31.5 8t12.5 21q0 25 -46 25h-20v66q-84 9 -130 53v-11q0 -27 -20 -27q-21 0 -21 27v83q0 27 21 27q20 0 20 -22v-7q0 -34 45 -58.5t109 -24.5 q66 0 110 26t44 66z" />
<glyph unicode="&#x160;" d="M308 600l-132 109q-13 9 -13 20q0 8 6 14t14 6q7 0 18 -8l107 -88l107 88q11 8 18 8t13.5 -6.5t6.5 -13.5q0 -10 -13 -21zM464 153q0 42 -26 68t-64.5 34.5t-84 19t-84 22t-64.5 43t-26 81.5q0 66 52.5 110.5t131.5 44.5q86 0 146 -59v19q0 27 21 27q20 0 20 -27v-103 q0 -27 -20 -27t-21 24q-3 45 -44 75t-99 30q-62 0 -102.5 -33t-40.5 -82q0 -39 26 -63t64.5 -32.5t84 -20t84 -23.5t64.5 -45.5t26 -84.5q0 -73 -58 -120t-148 -47q-106 0 -169 72v-29q0 -27 -21 -27q-20 0 -20 27v112q0 27 21 27q19 0 20 -24q2 -49 51 -83t117 -34 q70 0 116.5 36.5t46.5 91.5z" />
<glyph unicode="&#x161;" d="M306 490l-132 109q-13 9 -13 20q0 8 6 14t14 6q7 0 18 -8l107 -88l107 88q11 8 18 8t13.5 -6.5t6.5 -13.5q0 -10 -13 -21zM452 117q0 37 -34 57t-82 27t-96 15t-82 33t-34 69q0 49 48.5 81t122.5 32q85 0 137 -46v4q0 28 21 28q20 0 20 -28v-69q0 -27 -20 -27 q-18 0 -21 23q-4 34 -40 54t-93 20q-56 0 -93 -21.5t-37 -53.5q0 -30 34 -46t82 -22.5t96 -16t82 -38t34 -76.5q0 -57 -55.5 -94.5t-140.5 -37.5q-96 0 -157 54v-11q0 -27 -20 -27q-21 0 -21 27v83q0 27 21 27q20 0 20 -22v-7q0 -34 45 -58.5t109 -24.5q66 0 110 26t44 66z " />
<glyph unicode="&#x162;" d="M236 -114q4 0 26 -10.5t40 -10.5q19 0 31.5 8t12.5 21q0 25 -46 25h-20v81h-105q-27 0 -27 21q0 20 27 20h105v481h-167v-73q0 -27 -21 -27q-20 0 -20 27v114h456v-114q0 -27 -20 -27q-9 0 -15 7.5t-6 19.5v73h-166v-481h105q27 0 27 -20q0 -21 -27 -21h-108v-47 q65 -2 65 -61q0 -29 -22 -47t-57 -18q-26 0 -57 11.5t-31 28.5q0 8 6 13.5t14 5.5z" />
<glyph unicode="&#x163;" d="M208 -130q4 0 26 -10.5t40 -10.5q19 0 31.5 8t12.5 21q0 25 -46 25h-20v81h38v-47q65 -2 65 -61q0 -29 -22 -47t-57 -18q-26 0 -57 11.5t-31 28.5q0 8 6 13.5t14 5.5zM186 417h220q27 0 27 -20q0 -21 -27 -21h-220v-267q0 -38 30 -61t82 -23q42 0 89.5 11.5t76.5 28.5 q10 6 16 6q7 0 13 -6t6 -14q0 -22 -67.5 -44.5t-131.5 -22.5q-71 0 -113 33.5t-42 89.5v269h-74q-28 0 -28 21q0 20 28 20h74v119q0 27 21 27q20 0 20 -27v-119z" />
<glyph unicode="&#x164;" d="M300 603l-132 109q-13 9 -13 20q0 8 6 14t14 6q7 0 18 -8l107 -88l107 88q11 8 18 8t13.5 -6t6.5 -14q0 -10 -13 -21zM321 41h105q27 0 27 -20q0 -21 -27 -21h-251q-27 0 -27 21q0 20 27 20h105v481h-167v-73q0 -27 -21 -27q-20 0 -20 27v114h456v-114q0 -27 -20 -27 q-9 0 -15 7.5t-6 19.5v73h-166v-481z" />
<glyph unicode="&#x165;" d="M438 613h80l-87 -159q-8 -15 -19 -15q-7 0 -12 5t-5 12q0 2 0.5 4t0.5 3zM186 417h220q27 0 27 -20q0 -21 -27 -21h-220v-267q0 -38 30 -61t82 -23q42 0 89.5 11.5t76.5 28.5q10 6 16 6q7 0 13 -6t6 -14q0 -22 -67.5 -44.5t-131.5 -22.5q-71 0 -113 33.5t-42 89.5v269 h-74q-28 0 -28 21q0 20 28 20h74v119q0 27 21 27q20 0 20 -27v-119z" />
<glyph unicode="&#x166;" d="M321 337h99q27 0 27 -20t-27 -20h-99v-256h105q27 0 27 -20q0 -21 -27 -21h-251q-27 0 -27 21q0 20 27 20h105v256h-96q-27 0 -27 20t27 20h96v185h-167v-73q0 -27 -21 -27q-20 0 -20 27v114h456v-114q0 -27 -20 -27q-9 0 -15 7.5t-6 19.5v73h-166v-185z" />
<glyph unicode="&#x167;" d="M145 275v101h-74q-28 0 -28 21q0 20 28 20h74v119q0 27 21 27q20 0 20 -27v-119h220q27 0 27 -20q0 -21 -27 -21h-220v-101h220q27 0 27 -20t-27 -20h-220v-126q0 -38 30 -61t82 -23q42 0 89.5 11.5t76.5 28.5q10 6 16 6q7 0 13 -6t6 -14q0 -22 -67.5 -44.5t-131.5 -22.5 q-71 0 -113 33.5t-42 89.5v128h-75q-27 0 -27 20t27 20h75z" />
<glyph unicode="&#x168;" d="M362 656q18 0 42 23t31 23q8 0 14 -6t6 -14q0 -15 -31.5 -41t-59.5 -26q-26 0 -69 24t-55 24q-25 0 -44 -22.5t-31 -22.5q-8 0 -14 5.5t-6 13.5q0 18 32.5 42.5t61.5 24.5q23 0 66.5 -24t56.5 -24zM499 522v-337q0 -85 -57.5 -143t-141.5 -58q-85 0 -142 57.5t-57 143.5 v337h-34q-27 0 -27 21q0 20 27 20h149q27 0 27 -20q0 -21 -27 -21h-74v-337q0 -68 45.5 -114t112.5 -46q66 0 112 46.5t46 113.5v337h-74q-27 0 -27 21q0 20 27 20h149q27 0 27 -20q0 -21 -27 -21h-34z" />
<glyph unicode="&#x169;" d="M337 532q19 0 43 23t30 23q8 0 14 -6t6 -14q0 -15 -31.5 -41t-59.5 -26q-26 0 -69 24t-55 24q-25 0 -44 -22.5t-31 -22.5q-8 0 -14 5.5t-6 13.5q0 18 32.5 42.5t61.5 24.5q23 0 66.5 -24t56.5 -24zM439 0v66q-84 -82 -182 -82q-60 0 -96.5 36t-36.5 95v261h-54 q-27 0 -27 21q0 20 27 20h95v-302q0 -38 26.5 -64t64.5 -26q100 0 183 90v261h-74q-28 0 -28 21q0 20 28 20h115v-376h34q27 0 27 -20q0 -21 -27 -21h-75z" />
<glyph unicode="&#x16a;" d="M418 627h-236q-27 0 -27 20t27 20h236q27 0 27 -20t-27 -20zM499 522v-337q0 -85 -57.5 -143t-141.5 -58q-85 0 -142 57.5t-57 143.5v337h-34q-27 0 -27 21q0 20 27 20h149q27 0 27 -20q0 -21 -27 -21h-74v-337q0 -68 45.5 -114t112.5 -46q66 0 112 46.5t46 113.5v337 h-74q-27 0 -27 21q0 20 27 20h149q27 0 27 -20q0 -21 -27 -21h-34z" />
<glyph unicode="&#x16b;" d="M393 491h-236q-27 0 -27 20t27 20h236q27 0 27 -20t-27 -20zM439 0v66q-84 -82 -182 -82q-60 0 -96.5 36t-36.5 95v261h-54q-27 0 -27 21q0 20 27 20h95v-302q0 -38 26.5 -64t64.5 -26q100 0 183 90v261h-74q-28 0 -28 21q0 20 28 20h115v-376h34q27 0 27 -20 q0 -21 -27 -21h-75z" />
<glyph unicode="&#x16c;" d="M176 745q17 0 20 -22q2 -29 32 -48t72 -19t71.5 19t32.5 48q3 22 21 22q8 0 14 -6.5t6 -16.5q0 -45 -42 -76t-103 -31t-103 31t-42 76q0 23 21 23zM499 522v-337q0 -85 -57.5 -143t-141.5 -58q-85 0 -142 57.5t-57 143.5v337h-34q-27 0 -27 21q0 20 27 20h149 q27 0 27 -20q0 -21 -27 -21h-74v-337q0 -68 45.5 -114t112.5 -46q66 0 112 46.5t46 113.5v337h-74q-27 0 -27 21q0 20 27 20h149q27 0 27 -20q0 -21 -27 -21h-34z" />
<glyph unicode="&#x16d;" d="M151 621q17 0 20 -22q2 -29 32 -48t72 -19t71.5 19t32.5 48q3 22 21 22q8 0 14 -6.5t6 -16.5q0 -45 -42 -76t-103 -31t-103 31t-42 76q0 23 21 23zM439 0v66q-84 -82 -182 -82q-60 0 -96.5 36t-36.5 95v261h-54q-27 0 -27 21q0 20 27 20h95v-302q0 -38 26.5 -64t64.5 -26 q100 0 183 90v261h-74q-28 0 -28 21q0 20 28 20h115v-376h34q27 0 27 -20q0 -21 -27 -21h-75z" />
<glyph unicode="&#x16e;" d="M300 781q39 0 66 -26.5t27 -65.5q0 -36 -27.5 -62.5t-65.5 -26.5t-65.5 27t-27.5 64t27.5 63.5t65.5 26.5zM300 748q-25 0 -42.5 -17t-17.5 -40q0 -24 17.5 -41t42.5 -17t42.5 17t17.5 40q0 24 -17.5 41t-42.5 17zM499 522v-337q0 -85 -57.5 -143t-141.5 -58 q-85 0 -142 57.5t-57 143.5v337h-34q-27 0 -27 21q0 20 27 20h149q27 0 27 -20q0 -21 -27 -21h-74v-337q0 -68 45.5 -114t112.5 -46q66 0 112 46.5t46 113.5v337h-74q-27 0 -27 21q0 20 27 20h149q27 0 27 -20q0 -21 -27 -21h-34z" />
<glyph unicode="&#x16f;" d="M275 672q39 0 66 -26.5t27 -65.5q0 -36 -27.5 -62.5t-65.5 -26.5t-65.5 27t-27.5 64t27.5 63.5t65.5 26.5zM275 639q-25 0 -42.5 -17t-17.5 -40q0 -24 17.5 -41t42.5 -17t42.5 17t17.5 40q0 24 -17.5 41t-42.5 17zM439 0v66q-84 -82 -182 -82q-60 0 -96.5 36t-36.5 95 v261h-54q-27 0 -27 21q0 20 27 20h95v-302q0 -38 26.5 -64t64.5 -26q100 0 183 90v261h-74q-28 0 -28 21q0 20 28 20h115v-376h34q27 0 27 -20q0 -21 -27 -21h-75z" />
<glyph unicode="&#x170;" d="M345 708l-97 -94q-10 -9 -19 -9q-8 0 -14 6t-6 15q0 8 12 19l98 94q9 9 18 9q8 0 14 -6t6 -15q0 -7 -12 -19zM487 708l-98 -94q-11 -9 -19 -9t-14 6t-6 15t12 19l98 94q10 9 19 9q8 0 14 -6t6 -15q0 -8 -12 -19zM499 522v-337q0 -85 -57.5 -143t-141.5 -58 q-85 0 -142 57.5t-57 143.5v337h-34q-27 0 -27 21q0 20 27 20h149q27 0 27 -20q0 -21 -27 -21h-74v-337q0 -68 45.5 -114t112.5 -46q66 0 112 46.5t46 113.5v337h-74q-27 0 -27 21q0 20 27 20h149q27 0 27 -20q0 -21 -27 -21h-34z" />
<glyph unicode="&#x171;" d="M321 594l-97 -94q-10 -9 -19 -9q-8 0 -14 6t-6 15q0 8 12 19l98 94q9 9 18 9q8 0 14 -6t6 -15q0 -7 -12 -19zM463 594l-98 -94q-11 -9 -19 -9t-14 6t-6 15t12 19l98 94q10 9 19 9q8 0 14 -6t6 -15q0 -8 -12 -19zM439 0v66q-84 -82 -182 -82q-60 0 -96.5 36t-36.5 95v261 h-54q-27 0 -27 21q0 20 27 20h95v-302q0 -38 26.5 -64t64.5 -26q100 0 183 90v261h-74q-28 0 -28 21q0 20 28 20h115v-376h34q27 0 27 -20q0 -21 -27 -21h-75z" />
<glyph unicode="&#x172;" d="M383 -123q21 0 37 9.5t19 9.5q5 0 9.5 -4.5t4.5 -10.5q0 -13 -24.5 -24.5t-52.5 -11.5q-35 0 -55.5 16.5t-20.5 44.5q0 50 60 86q-39 -8 -61 -8q-84 0 -141 58t-57 143v337h-34q-27 0 -27 21q0 20 27 20h149q27 0 27 -20q0 -21 -27 -21h-74v-337q0 -68 45.5 -114 t112.5 -46q66 0 112 46.5t46 113.5v337h-74q-27 0 -27 21q0 20 27 20h149q27 0 27 -20q0 -21 -27 -21h-34v-337q0 -45 -16.5 -82t-40 -60.5t-47 -43.5t-40 -42t-16.5 -46q0 -34 44 -34z" />
<glyph unicode="&#x173;" d="M485 -123q22 0 38 9.5t19 9.5q5 0 9.5 -4.5t4.5 -10.5q0 -13 -24.5 -24.5t-52.5 -11.5q-36 0 -56 16t-20 45q0 31 17.5 52.5t59.5 41.5h-41v66q-84 -82 -182 -82q-60 0 -96.5 36t-36.5 95v261h-54q-27 0 -27 21q0 20 27 20h95v-302q0 -38 26.5 -64t64.5 -26q100 0 183 90 v261h-74q-28 0 -28 21q0 20 28 20h115v-376h34q27 0 27 -20q0 -9 -15.5 -20t-34 -21.5t-34 -29t-15.5 -39.5q0 -34 43 -34z" />
<glyph unicode="&#x174;" d="M300 751l132 -108q13 -11 13 -21q0 -8 -6 -14t-14 -6q-7 0 -18 8l-107 88l-107 -88q-11 -8 -18 -8q-8 0 -14 6t-6 14t13 20zM122 0l-60 522h-15q-27 0 -27 21q0 20 27 20h149q28 0 28 -20q0 -21 -28 -21h-93l56 -476l112 392h62l109 -392l57 476h-96q-27 0 -27 21 q0 20 27 20h150q27 0 27 -20q0 -21 -27 -21h-15l-62 -522h-64l-112 400l-115 -400h-63z" />
<glyph unicode="&#x175;" d="M300 640l132 -108q13 -11 13 -21q0 -8 -6 -14t-14 -6q-7 0 -18 8l-107 88l-107 -88q-11 -8 -18 -8q-8 0 -14 6t-6 14t13 20zM441 0h-50l-91 259l-89 -259h-51l-84 376h-19q-27 0 -27 21q0 20 27 20h111q27 0 27 -20q0 -21 -27 -21h-53l72 -320l86 255h51l89 -255l69 320 h-50q-27 0 -27 21q0 20 27 20h111q27 0 27 -20q0 -21 -27 -21h-19z" />
<glyph unicode="&#x176;" d="M300 752l132 -108q13 -11 13 -21q0 -8 -6 -14t-14 -6q-7 0 -18 8l-107 88l-107 -88q-11 -8 -18 -8q-8 0 -14 6t-6 14t13 20zM322 254v-213h105q27 0 27 -20q0 -21 -27 -21h-251q-27 0 -27 21q0 20 27 20h105v213l-179 268h-24q-27 0 -27 21q0 20 27 20h111q27 0 27 -20 q0 -21 -27 -21h-38l152 -227l149 227h-40q-28 0 -28 21q0 20 28 20h110q27 0 27 -20q0 -21 -27 -21h-24z" />
<glyph unicode="&#x177;" d="M300 640l132 -108q13 -11 13 -21q0 -8 -6 -14t-14 -6q-7 0 -18 8l-107 88l-107 -88q-11 -8 -18 -8q-8 0 -14 6t-6 14t13 20zM282 0l-188 376h-16q-27 0 -27 21q0 20 27 20h115q27 0 27 -20q0 -21 -27 -21h-52l164 -331l161 331h-54q-27 0 -27 21q0 20 27 20h110 q27 0 27 -20q0 -21 -27 -21h-14l-256 -521h65q27 0 27 -20q0 -21 -27 -21h-233q-27 0 -27 21q0 20 27 20h127z" />
<glyph unicode="&#x178;" d="M190 722q21 0 35.5 -15t14.5 -36q0 -20 -15 -34.5t-35 -14.5t-35 15t-15 35t15 35t35 15zM411 722q21 0 35.5 -15t14.5 -36q0 -20 -15 -34.5t-35 -14.5t-35 15t-15 35t15 35t35 15zM322 254v-213h105q27 0 27 -20q0 -21 -27 -21h-251q-27 0 -27 21q0 20 27 20h105v213 l-179 268h-24q-27 0 -27 21q0 20 27 20h111q27 0 27 -20q0 -21 -27 -21h-38l152 -227l149 227h-40q-28 0 -28 21q0 20 28 20h110q27 0 27 -20q0 -21 -27 -21h-24z" />
<glyph unicode="&#x179;" d="M376 721l-114 -100q-12 -9 -19 -9q-8 0 -14 6t-6 15q0 8 12 19l114 100q12 9 19 9q8 0 14 -6t6 -15q0 -8 -12 -19zM497 0h-394v59l328 460v3h-269v-118q0 -28 -20 -28q-21 0 -21 28v159h349v-58l-328 -460v-4h314v141q0 27 20 27q21 0 21 -27v-182z" />
<glyph unicode="&#x17a;" d="M377 600l-114 -100q-12 -9 -19 -9q-8 0 -14 6t-6 15q0 8 12 19l114 100q12 9 19 9q8 0 14 -6t6 -15q0 -8 -12 -19zM474 417v-36l-303 -340h277v56q0 27 21 27q20 0 20 -27v-97h-374v36l301 340h-251v-55q0 -27 -20 -27q-21 0 -21 27v96h350z" />
<glyph unicode="&#x17b;" d="M296 718q21 0 35.5 -15t14.5 -36q0 -20 -15 -34.5t-35 -14.5t-35 15t-15 35t15 35t35 15zM497 0h-394v59l328 460v3h-269v-118q0 -28 -20 -28q-21 0 -21 28v159h349v-58l-328 -460v-4h314v141q0 27 20 27q21 0 21 -27v-182z" />
<glyph unicode="&#x17c;" d="M299 605q21 0 35.5 -15t14.5 -36q0 -20 -15 -34.5t-35 -14.5t-35 15t-15 35t15 35t35 15zM474 417v-36l-303 -340h277v56q0 27 21 27q20 0 20 -27v-97h-374v36l301 340h-251v-55q0 -27 -20 -27q-21 0 -21 27v96h350z" />
<glyph unicode="&#x17d;" d="M296 605l-132 109q-13 9 -13 20q0 8 6 14t14 6q7 0 18 -8l107 -88l107 88q11 8 18 8t13.5 -6t6.5 -14q0 -10 -13 -21zM497 0h-394v59l328 460v3h-269v-118q0 -28 -20 -28q-21 0 -21 28v159h349v-58l-328 -460v-4h314v141q0 27 20 27q21 0 21 -27v-182z" />
<glyph unicode="&#x17e;" d="M299 491l-132 109q-13 9 -13 20q0 8 6 14t14 6q7 0 18 -8l107 -88l107 88q11 8 18 8q8 0 14 -6t6 -14q0 -10 -13 -21zM474 417v-36l-303 -340h277v56q0 27 21 27q20 0 20 -27v-97h-374v36l301 340h-251v-55q0 -27 -20 -27q-21 0 -21 27v96h350z" />
<glyph unicode="&#x17f;" d="M520 551q-2 0 -25 3t-55.5 6t-57.5 3q-49 0 -80 -23.5t-31 -61.5v-437h178q27 0 27 -20q0 -21 -27 -21h-317q-27 0 -27 21q0 20 27 20h98v335h-88q-27 0 -27 21q0 20 27 20h88v61q0 55 43.5 90.5t110.5 35.5q70 0 139 -13q18 -5 18 -20q0 -20 -21 -20z" />
<glyph unicode="&#x180;" d="M322 390q-74 0 -126 -53t-52 -129t52 -129.5t126 -53.5q73 0 125.5 53t52.5 127q0 78 -51.5 131.5t-126.5 53.5zM103 520v43h-54q-27 0 -27 21q0 20 27 20h95v-84h138q27 0 27 -20q0 -21 -27 -21h-138v-151q73 103 180 103q91 0 154 -64t63 -157q0 -94 -63.5 -160 t-153.5 -66q-110 0 -180 104v-88h-95q-27 0 -27 21q0 20 27 20h54v438h-54q-27 0 -27 21q0 20 27 20h54z" />
<glyph unicode="&#x181;" d="M165 313h147q64 0 105 30t41 76q0 44 -37 73.5t-92 29.5h-164v-209zM500 153q0 21 -8.5 40t-27.5 37.5t-57.5 30t-92.5 11.5h-149v-231h208q53 0 90 32.5t37 79.5zM70 563h258q73 0 122 -41.5t49 -103.5q0 -74 -85 -120q127 -45 127 -145q0 -63 -48.5 -108t-116.5 -45 h-306q-27 0 -27 21q0 20 27 20h54v481h-54q-18 0 -36.5 -16.5t-18.5 -35.5v-2q0 -22 16.5 -37.5t36.5 -15.5q9 0 15 -6t6 -15q0 -8 -6 -14t-15 -6q-37 0 -65.5 27.5t-28.5 68.5t30 67t66 26z" />
<glyph unicode="&#x182;" d="M313 323q65 0 112.5 -16t71.5 -42t34.5 -52.5t10.5 -54.5q0 -64 -48.5 -111t-116.5 -47h-306q-27 0 -27 21q0 20 27 20h54v481h-54q-27 0 -27 21q0 20 27 20h440v-139q0 -27 -21 -27q-20 0 -20 27v98h-304v-199h147zM501 158q0 48 -40.5 86t-145.5 38h-149v-241h208 q53 0 90 35t37 82z" />
<glyph unicode="&#x183;" d="M322 390q-74 0 -126 -53t-52 -129t52 -129.5t126 -53.5q73 0 125.5 53t52.5 127q0 78 -51.5 131.5t-126.5 53.5zM144 563v-235q73 103 180 103q91 0 154 -64t63 -157q0 -94 -63.5 -160t-153.5 -66q-110 0 -180 104v-88h-95q-27 0 -27 21q0 20 27 20h54v522h-54 q-27 0 -27 21q0 20 27 20h424q27 0 27 -20q0 -21 -27 -21h-329z" />
<glyph unicode="&#x184;" d="M508 153q0 21 -8.5 40t-27.5 37.5t-57.5 30t-92.5 11.5h-149v-231h208q53 0 90 32.5t37 79.5zM173 476v-163h147q65 0 112.5 -15t71.5 -40t34.5 -51t10.5 -54q0 -63 -48.5 -108t-116.5 -45h-306q-27 0 -27 21q0 20 27 20h54v407l-50 -35q-11 -6 -17 -6q-7 0 -13 6.5 t-6 14.5q0 12 16 21l70 48v66q0 27 20 27q21 0 21 -27v-37l74 51q12 6 17 6q8 0 13.5 -6t5.5 -14q0 -12 -16 -21z" />
<glyph unicode="&#x185;" d="M144 208q0 -76 52 -129.5t126 -53.5q73 0 125.5 53t52.5 127q0 78 -51.5 131.5t-126.5 53.5q-74 0 -126 -53t-52 -129zM144 475v-147q73 103 180 103q91 0 154 -64t63 -157q0 -94 -63.5 -160t-153.5 -66q-110 0 -180 104v-88h-95q-27 0 -27 21q0 20 27 20h54v405l-45 -31 q-11 -6 -17 -6q-7 0 -13 6.5t-6 14.5q0 12 16 21l65 45v67q0 27 20 27q21 0 21 -27v-39l79 55q12 6 17 6q8 0 13.5 -6t5.5 -14q0 -12 -16 -21z" />
<glyph unicode="&#x186;" d="M83 125q9 0 24 -15.5t32.5 -34.5t53.5 -34.5t82 -15.5q88 0 153 66.5t65 156.5v71q0 89 -59 152.5t-142 63.5q-67 0 -118.5 -34t-54.5 -80q-1 -24 -20 -24q-21 0 -21 27v112q0 27 20 27q21 0 21 -27v-29q72 69 173 69q55 0 99.5 -20.5t70 -50.5t43 -66.5t23.5 -64.5 t6 -49v-83q0 -101 -78.5 -179.5t-180.5 -78.5q-43 0 -84.5 15.5t-68 36.5t-43 40.5t-16.5 29.5q0 19 20 19z" />
<glyph unicode="&#x187;" d="M63 325q0 19 5.5 46.5t22.5 64.5t42 67t70 51.5t102 21.5q101 0 173 -69v29q0 37 26 66.5t67 29.5t68.5 -28t27.5 -66q0 -8 -6 -14t-14 -6q-9 0 -15 6t-6 14q0 21 -16 37.5t-40 16.5q-19 -1 -35 -19t-16 -37v-112q0 -27 -21 -27q-18 0 -20 24q-3 46 -54.5 80t-118.5 34 q-83 0 -142 -63.5t-59 -152.5v-71q0 -90 65 -156.5t153 -66.5q52 0 93 21t81 69q9 10 18 10q20 0 20 -19q0 -9 -16 -28t-42 -40.5t-68 -37.5t-86 -16q-102 0 -180.5 78.5t-78.5 179.5v83z" />
<glyph unicode="&#x188;" d="M535 88q0 -9 -17 -25.5t-44.5 -34.5t-72.5 -31t-92 -13q-98 0 -161.5 62t-63.5 158q0 99 65 163t165 64q93 0 156 -55v13q0 37 26 66.5t67 29.5t68.5 -28t27.5 -66q0 -8 -6 -14t-14 -6q-9 0 -15 6t-6 14q0 21 -16 37.5t-40 16.5q-19 -1 -35 -19t-16 -37v-91 q0 -27 -20 -27q-18 0 -21 24q-3 40 -49.5 67.5t-109.5 27.5q-83 0 -134.5 -51.5t-51.5 -133.5q0 -79 52 -129.5t134 -50.5q109 0 187 72q10 10 18 10t13.5 -5.5t5.5 -13.5z" />
<glyph unicode="&#x189;" d="M104 272h-77q-27 0 -27 21q0 20 27 20h77v209h-34q-27 0 -27 21q0 20 27 20h220q94 0 162 -74.5t68 -178.5v-56q0 -104 -68 -179t-162 -75h-220q-27 0 -27 21q0 20 27 20h34v231zM479 319q0 15 -5 37t-18.5 52t-34 54.5t-55.5 42t-78 17.5h-143v-209h162q27 0 27 -20 q0 -21 -27 -21h-162v-231h150q71 0 127.5 62.5t56.5 141.5v74z" />
<glyph unicode="&#x18a;" d="M479 318q0 20 -9 50t-28.5 66.5t-60 62t-93.5 25.5h-143v-481h150q72 0 128 62t56 142v73zM34 563h256q97 0 163.5 -73.5t66.5 -179.5v-56q0 -107 -66.5 -180.5t-163.5 -73.5h-220q-27 0 -27 21q0 20 27 20h34v481h-70q-19 0 -37 -16t-19 -35q0 -24 16.5 -40t37.5 -16 q8 0 14 -6t6 -15q0 -8 -6 -14t-14 -6q-38 0 -66 27.5t-28 68.5t30 67t66 26z" />
<glyph unicode="&#x18b;" d="M287 323h147v199h-304v-98q0 -27 -20 -27q-21 0 -21 27v139h440q27 0 27 -20q0 -21 -27 -21h-54v-481h54q27 0 27 -20q0 -21 -27 -21h-306q-68 0 -116.5 47t-48.5 111q0 28 10.5 54.5t34.5 52.5t71.5 42t112.5 16zM99 158q0 -47 37 -82t90 -35h208v241h-149 q-105 0 -145.5 -38t-40.5 -86z" />
<glyph unicode="&#x18c;" d="M241 390q-75 0 -126.5 -53.5t-51.5 -131.5q0 -74 52.5 -127t125.5 -53q74 0 126 53.5t52 129.5t-52 129t-126 53zM419 563h-329q-27 0 -27 21q0 20 27 20h424q27 0 27 -20q0 -21 -27 -21h-54v-522h54q27 0 27 -20q0 -21 -27 -21h-95v88q-70 -104 -180 -104 q-90 0 -153.5 66t-63.5 160q0 93 63 157t154 64q107 0 180 -103v235z" />
<glyph unicode="&#x18d;" d="M433 -73q0 32 -40 53t-102 21q-99 0 -174 86q-49 55 -49 145q0 92 63.5 160t161.5 68q93 0 159 -68t66 -160q0 -94 -47 -143q-57 -58 -89 -67q38 -6 65 -31.5t27 -61.5q0 -56 -35.5 -86t-94.5 -30q-54 0 -214 39v-24q0 -27 -21 -27q-20 0 -20 27v78q0 29 20 29 q21 0 21 -29v-14q154 -39 211 -39q42 0 67 19t25 55zM293 419q-82 0 -133 -55.5t-51 -131.5q0 -42 15 -76.5t37 -54.5t48.5 -33.5t47.5 -18.5t36 -5q78 0 131 54.5t53 133.5q0 76 -55 132q-55 55 -129 55z" />
<glyph unicode="&#x18e;" d="M398 272h-145v-45q0 -27 -21 -27q-20 0 -20 27v131q0 27 20 27q21 0 21 -27v-45h145v209h-293v-98q0 -27 -20 -27q-21 0 -21 27v139h429q27 0 27 -20q0 -21 -27 -21h-54v-481h54q27 0 27 -20q0 -21 -27 -21h-450v160q0 27 20 27q21 0 21 -27v-119h314v231z" />
<glyph unicode="&#x18f;" d="M493 253l-402 -1v-11q0 -89 59 -152.5t142 -63.5t142 63.5t59 152.5v12zM292 -16q-55 0 -99.5 20.5t-70 50.5t-43 66.5t-23.5 64.5t-6 49v58h443v19q0 90 -65 156.5t-153 66.5q-52 0 -93 -21t-81 -69q-9 -10 -18 -10q-20 0 -20 19q0 9 16 28t42 40.5t68 37.5t86 16 q102 0 180.5 -78.5t78.5 -179.5v-83q0 -19 -5.5 -46.5t-22.5 -64.5t-42 -67t-70 -51.5t-102 -21.5z" />
<glyph unicode="&#x190;" d="M297 270q-73 0 -117 -32t-44 -85q0 -55 46.5 -91.5t116.5 -36.5q68 0 117 34t51 83q1 24 20 24q21 0 21 -27v-112q0 -27 -20 -27q-21 0 -21 27v29q-63 -72 -169 -72q-90 0 -148 47t-58 120q0 53 30 89t80 51v7q-39 14 -63.5 46.5t-24.5 76.5q0 66 52.5 110.5t131.5 44.5 q86 0 146 -59v19q0 27 21 27q20 0 20 -27v-103q0 -27 -20 -27q-19 0 -21 24q-3 45 -44 75t-99 30q-62 0 -102.5 -33t-40.5 -82t43.5 -79t108.5 -30h48q27 0 27 -20q0 -21 -27 -21h-61z" />
<glyph unicode="&#x191;" d="M26 -39q3 0 25.5 -6.5t44.5 -6.5q33 0 53 32.5t20 83.5v458h-54q-27 0 -27 21q0 20 27 20h450v-139q0 -27 -21 -27q-20 0 -20 27v98h-314v-209h145v45q0 27 20 27q21 0 21 -27v-131q0 -27 -21 -27q-20 0 -20 27v45h-145v-231q-6 -59 -36 -96t-79 -38q-25 0 -56 8t-31 26 q0 8 5.5 14t12.5 6z" />
<glyph unicode="&#x192;" d="M499 566q-2 0 -22.5 5.5t-41.5 5.5q-51 0 -82.5 -32t-31.5 -83v-87h96q27 0 27 -20q0 -21 -27 -21h-96v-276q0 -63 -43 -107t-104 -44q-25 0 -56 8t-31 26q0 8 5.5 14t12.5 6q3 0 26 -6.5t44 -6.5q46 0 75.5 32.5t29.5 83.5v270h-96q-27 0 -27 21q0 20 27 20h96v87 q0 65 43.5 110.5t107.5 45.5q25 0 56 -7.5t31 -24.5q0 -8 -5.5 -14t-13.5 -6z" />
<glyph unicode="&#x193;" d="M63 318q0 105 70.5 181.5t179.5 76.5q99 0 166 -54v14q0 37 26 66.5t67 29.5t68.5 -28t27.5 -66q0 -8 -6 -14t-14 -6q-9 0 -15 6t-6 14q0 21 -16 37.5t-40 16.5q-19 -1 -35 -19t-16 -37v-91q0 -27 -20 -27q-19 0 -20 25q-3 38 -51 65t-114 27q-62 0 -107 -27t-65.5 -66 t-29.5 -71t-9 -54v-73q0 -102 62 -160.5t170 -58.5q70 0 143 34v150h-139q-27 0 -27 21q0 20 27 20h194q28 0 28 -20q0 -21 -28 -21h-14v-173q-90 -52 -187 -52q-123 0 -196.5 71t-73.5 189v74z" />
<glyph unicode="&#x194;" d="M300 227q-7 -11 -21 -30t-20.5 -29t-12.5 -27t-6 -35v-2q0 -37 13.5 -63.5t46.5 -26.5q60 0 60 90q0 10 -3 21t-5.5 18.5t-10 20.5t-11.5 18.5t-15 22zM277 261l-178 261h-24q-27 0 -27 21q0 20 27 20h111q27 0 27 -20q0 -21 -27 -21h-38l152 -227l149 227h-40 q-28 0 -28 21q0 20 28 20h110q27 0 27 -20q0 -21 -27 -21h-24l-172 -260q1 -2 12.5 -16.5t17.5 -22.5t16.5 -25t16.5 -30t10.5 -30.5t4.5 -33.5q0 -58 -26.5 -94.5t-74.5 -36.5q-47 0 -74 39t-27 92q0 28 10.5 55t19.5 41t28 36.5t20 24.5z" />
<glyph unicode="&#x195;" d="M581 116q-1 -56 -36.5 -94t-94.5 -38q-64 0 -110 57q-8 11 -13 29.5t-5 31.5l-1 13v182q0 93 -68 93h-23q-36 0 -61.5 -26.5t-32.5 -47.5l-7 -20v-255h45q28 0 28 -20q0 -21 -28 -21h-132q-27 0 -27 21q0 20 27 20h46v522h-54q-27 0 -27 21q0 20 27 20h95l-1 -244 q18 37 40.5 54t63.5 17q130 0 130 -140v-176q0 -38 26.5 -64t64.5 -26q45 0 65.5 30t20.5 63v258h-74q-28 0 -28 21q0 20 28 20h115z" />
<glyph unicode="&#x196;" d="M502 68q0 -9 -15 -26t-47.5 -33.5t-69.5 -16.5q-50 0 -79.5 35.5t-29.5 92.5v403h-61q-27 0 -27 20t27 20h102v-443q0 -87 68 -87q26 0 46.5 8.5t30.5 19t19.5 19t15.5 8.5q3 0 7.5 -1.5t8.5 -6.5t4 -12z" />
<glyph unicode="&#x197;" d="M279 321v201h-139q-27 0 -27 21q0 20 27 20h319q28 0 28 -20q0 -21 -28 -21h-139v-201h100q27 0 27 -20t-27 -20h-100v-240h139q28 0 28 -20q0 -21 -28 -21h-319q-27 0 -27 21q0 20 27 20h139v240h-95q-27 0 -27 20t27 20h95z" />
<glyph unicode="&#x198;" d="M502 522l-222 -198q73 -30 113 -84.5t96 -198.5h56q27 0 27 -20q0 -21 -27 -21h-87q-55 152 -98 211.5t-114 82.5l-81 -73v-180h75q27 0 27 -20q0 -21 -27 -21h-170q-27 0 -27 21q0 20 27 20h54v481h-54q-27 0 -27 21q0 20 27 20h170q27 0 27 -20q0 -21 -27 -21h-75v-249 l280 249h-45q-28 0 -28 21q0 20 28 20h118q36 0 66 -26t30 -67t-28 -68.5t-66 -27.5q-8 0 -14 6t-6 14q0 9 6 15t14 6q21 0 37.5 16t16.5 40q-1 19 -19 35t-37 16h-16z" />
<glyph unicode="&#x199;" d="M363 566q-2 0 -22.5 5.5t-41.5 5.5q-51 0 -82.5 -32t-31.5 -83v-233l173 147h-22q-27 0 -27 21q0 20 27 20h130q27 0 27 -20q0 -21 -27 -21h-47l-157 -131l207 -204h45q27 0 27 -20q0 -21 -27 -21h-131q-27 0 -27 21q0 20 27 20h28l-180 178l-46 -39v-180h-95 q-27 0 -27 21q0 20 27 20h54v421q0 65 43.5 110.5t107.5 45.5q25 0 56 -7.5t31 -24.5q0 -8 -5.5 -14t-13.5 -6z" />
<glyph unicode="&#x19a;" d="M445 297q0 -4 -2 -8.5t-8.5 -9.5t-16.5 -5h-98v-233h160q28 0 28 -20q0 -21 -28 -21h-361q-27 0 -27 21q0 20 27 20h160v233h-97q-27 0 -27 20t27 20h97v249h-117q-27 0 -27 21q0 20 27 20h158v-290h98q27 0 27 -17z" />
<glyph unicode="&#x19b;" d="M203 614q19 0 32 -9.5t17 -18t4 -13.5l15 -32l72 49q12 6 17 6q8 0 13.5 -6t5.5 -14q0 -12 -16 -21l-74 -52l221 -464h17q17 0 19 -8l4 -13q0 -20 -28 -20h-110q-25 0 -25 20q0 21 25 21h56l-163 340l-163 -340h53q27 0 27 -21q0 -20 -27 -20h-110q-9 0 -15 2q-4 0 -8 7 t-4 11q0 21 27 21h12l186 385l-27 56l-78 -54q-11 -6 -17 -6q-7 0 -13 6.5t-6 14.5q0 12 16 21l80 56l-26 55h-94q-27 0 -27 21q0 20 27 20h85z" />
<glyph unicode="&#x19c;" d="M492 0v52q-25 -36 -49 -51t-56 -15q-64 0 -97 71q-55 -71 -113 -71q-43 0 -74 32t-31 76v428h-34q-27 0 -27 20q0 21 27 21h74v-465q0 -28 20 -49.5t46 -21.5q50 0 104 82v413h-34q-27 0 -27 20q0 21 27 21h74v-462q0 -29 19.5 -51.5t45.5 -22.5q50 0 105 82v413h-34 q-27 0 -27 20q0 21 27 21h109q26 0 26 -21q0 -20 -27 -20h-34v-481h34q27 0 27 -21q0 -20 -27 -20h-74z" />
<glyph unicode="&#x19d;" d="M210 58q0 -64 -31.5 -107t-83.5 -44q-25 0 -56 8t-31 26q0 8 5.5 14t12.5 6q3 0 25.5 -6.5t44.5 -6.5q33 0 53 32.5t20 83.5v458h-54q-27 0 -27 21q0 20 27 20h106l273 -504v463h-74q-28 0 -28 21q0 20 28 20h149q27 0 27 -20q0 -21 -27 -21h-34v-522h-52l-273 504v-446z " />
<glyph unicode="&#x19e;" d="M319 390q-18 0 -34.5 -3.5t-31 -11t-24.5 -14t-21.5 -18.5t-16 -17.5t-14 -18t-10.5 -13.5v-253h45q27 0 27 -20q0 -21 -27 -21h-131q-28 0 -28 21q0 20 28 20h45v335h-34q-27 0 -27 21q0 20 27 20h75v-69q43 48 76 65.5t80 17.5q67 0 112 -39t45 -97v-438h34 q27 0 27 -20q0 -21 -27 -21h-109q-27 0 -27 21q0 20 27 20h34v431q0 43 -32.5 72.5t-87.5 29.5z" />
<glyph unicode="&#x19f;" d="M300 576q106 0 177.5 -86.5t71.5 -213.5q0 -121 -73 -206.5t-176 -85.5q-104 0 -176.5 86t-72.5 210t72.5 210t176.5 86zM507 300q-7 100 -66 167.5t-141 67.5q-81 0 -141 -68t-66 -167h414zM508 260h-415q6 -99 66 -167t141 -68t141.5 69t66.5 166z" />
<glyph unicode="&#x1a0;" d="M300 535q-86 0 -147 -75t-61 -180t61 -180t147 -75q85 0 146.5 74.5t61.5 177.5q0 108 -60.5 183t-147.5 75zM443 524h58q19 0 37 16t19 35q0 24 -16.5 40t-37.5 16q-8 0 -14 6t-6 15q0 8 6 14t14 6q38 0 66 -27.5t28 -68.5t-29.5 -67t-66.5 -26h-18q66 -85 66 -207 q0 -121 -73 -206.5t-176 -85.5q-104 0 -176.5 86t-72.5 210t72.5 210t176.5 86q80 0 143 -52z" />
<glyph unicode="&#x1a1;" d="M300 390q-78 0 -132.5 -53t-54.5 -129t54.5 -129.5t132.5 -53.5q77 0 132 53t55 127q0 79 -54 132t-133 53zM431 391h63q19 0 37 16t19 35q0 24 -16.5 40t-37.5 16q-8 0 -14 6t-6 15q0 8 6 14t14 6q38 0 66 -27.5t28 -68.5t-29.5 -67t-66.5 -26h-18q52 -61 52 -145 q0 -92 -67 -156.5t-161 -64.5q-95 0 -161.5 65t-66.5 159q0 92 66.5 157.5t161.5 65.5q72 0 131 -40z" />
<glyph unicode="&#x1a2;" d="M217 535q-84 0 -128.5 -72.5t-44.5 -185.5q0 -108 46 -180t127 -72q82 0 127.5 72.5t45.5 182.5q0 111 -45 183t-128 72zM281 565q41 73 143 73q63 0 92 -37t29 -79v-481h21q28 0 28 -20q0 -21 -28 -21h-87q-27 0 -27 21q0 20 27 20h25v481q0 11 -3 21.5t-12 23t-29 20 t-50 7.5q-33 0 -53 -10t-40 -38q51 -34 81 -98t31 -135l1 -41q-2 -126 -58 -207t-155 -81t-156.5 83t-57.5 209q0 133 56 216.5t158 83.5q33 0 64 -11z" />
<glyph unicode="&#x1a3;" d="M200 390q-58 0 -95 -54t-37 -134q0 -75 37.5 -126t94.5 -51q58 0 96 53t38 130t-38 129.5t-96 52.5zM280 408q50 60 144 60q41 0 69.5 -29.5t28.5 -78.5v-319h46q28 0 28 -20q0 -21 -28 -21h-132q-26 0 -26 21q0 20 26 20h46v319q0 33 -17.5 52.5t-50.5 19.5 q-61 0 -106 -46q63 -60 63 -161l-1 -41v-2q0 -81 -51.5 -139.5t-118.5 -58.5q-71 0 -121 65t-50 156q0 95 49.5 160.5t121.5 65.5q43 0 80 -23z" />
<glyph unicode="&#x1a4;" d="M165 522v-250h134q65 0 112 37t47 89q0 51 -42.5 87.5t-101.5 36.5h-149zM124 522h-54q-19 0 -37 -16t-19 -35q0 -24 16.5 -40t37.5 -16q8 0 14 -6t6 -15q0 -8 -6 -14t-14 -6q-38 0 -66 27.5t-28 68.5t30 67t66 26h240q80 0 134.5 -47.5t54.5 -117.5t-59 -118.5 t-144 -48.5h-131v-190h138q28 0 28 -20q0 -21 -28 -21h-233q-27 0 -27 21q0 20 27 20h54v481z" />
<glyph unicode="&#x1a5;" d="M144 221q0 -71 52 -120.5t126 -49.5t126 49t52 119q0 73 -51 122t-127 49q-74 0 -126 -49.5t-52 -119.5zM322 566q-2 0 -22.5 5.5t-41.5 5.5q-51 0 -82.5 -32t-31.5 -83v-127q40 52 81 74t98 22q93 0 155.5 -60.5t62.5 -149.5t-63 -150t-155 -61q-112 0 -179 96v-251h98 q27 0 27 -20q0 -21 -27 -21h-193q-27 0 -27 21q0 20 27 20h54v607q0 65 43.5 110.5t107.5 45.5q25 0 56 -7.5t31 -24.5q0 -8 -5.5 -14t-13.5 -6z" />
<glyph unicode="&#x1a6;" d="M170 221h97q62 0 107 23t45 58q0 30 -36.5 51t-80.5 21h-132v-153zM170 417h131q67 0 113 -33t46 -83q0 -42 -29 -68t-93 -39q43 -24 66.5 -86t42.5 -139.5t42 -113.5h27q11 0 17.5 -6t6.5 -14q0 -21 -24 -21h-50q-24 31 -44.5 92.5t-32.5 114.5t-39.5 100.5t-66.5 59.5 h-113v-140h63q11 0 17.5 -6t6.5 -14q0 -21 -24 -21h-149q-24 0 -24 21q0 8 6.5 14t17.5 6h45v481h-45q-11 0 -17.5 6t-6.5 14q0 21 24 21h149q24 0 24 -21q0 -8 -6.5 -14t-17.5 -6h-63v-105z" />
<glyph unicode="&#x1a7;" d="M92 151q0 51 26 84.5t64.5 45.5t84 23.5t84 20t64.5 32.5t26 63q0 49 -40.5 82t-102.5 33q-58 0 -99 -30t-44 -75q-1 -24 -21 -24t-20 27v103q0 27 20 27q21 0 21 -27v-19q60 59 146 59q79 0 131.5 -44.5t52.5 -110.5q0 -50 -26 -81.5t-64.5 -43t-84 -22t-84 -19 t-64.5 -34.5t-26 -68q0 -55 46.5 -91.5t116.5 -36.5q68 0 117 34t51 83q1 24 20 24q21 0 21 -27v-112q0 -27 -20 -27q-21 0 -21 27v29q-63 -72 -169 -72q-90 0 -148 47t-58 120z" />
<glyph unicode="&#x1a8;" d="M476 318q0 -45 -34 -69.5t-82 -32.5t-96 -15t-82 -26.5t-34 -57.5q0 -40 44 -66t110 -26q64 0 109 24.5t45 58.5v7q0 22 20 22q21 0 21 -27v-83q0 -27 -21 -27q-20 0 -20 27v11q-61 -54 -157 -54q-85 0 -140.5 37.5t-55.5 94.5q0 42 24.5 69t63 39t78 18t77.5 12t53 16 q32 18 32 45q0 32 -37 53.5t-93 21.5q-57 0 -93 -20t-40 -54q-3 -23 -21 -23q-20 0 -20 27v69q0 28 20 28q21 0 21 -28v-4q52 46 137 46q74 0 122.5 -32t48.5 -81z" />
<glyph unicode="&#x1a9;" d="M490 0h-388v60l157 247l-157 212v58h388v-163q0 -28 -21 -28q-20 0 -20 28v121h-310v-4l168 -226l-166 -258v-4h308v143q0 28 20 28q21 0 21 -28v-186z" />
<glyph unicode="&#x1aa;" d="M174 585q-25 0 -42.5 -17t-17.5 -40q0 -24 17.5 -41t42.5 -17t42.5 17t17.5 40q0 24 -17.5 41t-42.5 17zM518 -59q0 -18 -31 -26t-56 -8q-61 0 -104 44t-43 107v404q0 38 -17 70v-6q0 -36 -27.5 -62.5t-65.5 -26.5t-65.5 27t-27.5 64t27.5 63.5t65.5 26.5 q64 0 107.5 -45.5t43.5 -110.5v-398q0 -51 29.5 -83.5t75.5 -32.5q21 0 43.5 6.5t26.5 6.5q7 0 12.5 -6t5.5 -14z" />
<glyph unicode="&#x1ab;" d="M283 -145q3 0 26 -6.5t44 -6.5q46 0 75.5 32.5t29.5 83.5v59q-75 -33 -158 -33q-71 0 -113 33.5t-42 89.5v269h-74q-28 0 -28 21q0 20 28 20h74v119q0 27 21 27q20 0 20 -27v-119h220q27 0 27 -20q0 -21 -27 -21h-220v-267q0 -38 30 -61t82 -23q42 0 89.5 11.5t76.5 28.5 q10 6 16 6q7 0 13 -6t6 -14v-99q0 -63 -43 -107t-104 -44q-25 0 -56 8t-31 26q0 8 5.5 14t12.5 6z" />
<glyph unicode="&#x1ac;" d="M113 522q-19 0 -37 -16t-19 -35q0 -24 16.5 -40t37.5 -16q8 0 14 -6t6 -15q0 -8 -6 -14t-14 -6q-38 0 -66 27.5t-28 68.5t30 67t66 26h415v-114q0 -27 -20 -27q-9 0 -15 7.5t-6 19.5v73h-166v-481h105q27 0 27 -20q0 -21 -27 -21h-251q-27 0 -27 21q0 20 27 20h105v481 h-167z" />
<glyph unicode="&#x1ad;" d="M364 566q-2 0 -22.5 5.5t-41.5 5.5q-51 0 -82.5 -32t-31.5 -83v-45h220q27 0 27 -20q0 -21 -27 -21h-220v-267q0 -38 30 -61t82 -23q42 0 89.5 11.5t76.5 28.5q10 6 16 6q7 0 13 -6t6 -14q0 -22 -67.5 -44.5t-131.5 -22.5q-71 0 -113 33.5t-42 89.5v269h-74q-28 0 -28 21 q0 20 28 20h74v45q0 65 43.5 110.5t107.5 45.5q25 0 56 -7.5t31 -24.5q0 -8 -5.5 -14t-13.5 -6z" />
<glyph unicode="&#x1ae;" d="M514 -165q0 -18 -31 -26t-56 -8q-61 0 -104 44t-43 107v570h-167v-73q0 -27 -21 -27q-20 0 -20 27v114h456v-114q0 -27 -20 -27q-9 0 -15 7.5t-6 19.5v73h-166v-564q0 -51 29.5 -83.5t75.5 -32.5q22 0 44 6.5t26 6.5q7 0 12.5 -6t5.5 -14z" />
<glyph unicode="&#x1af;" d="M499 522v-337q0 -85 -57.5 -143t-141.5 -58q-85 0 -142 57.5t-57 143.5v337h-34q-27 0 -27 21q0 20 27 20h149q27 0 27 -20q0 -21 -27 -21h-74v-337q0 -68 45.5 -114t112.5 -46q66 0 112 46.5t46 113.5v337h-74q-27 0 -27 21q0 20 27 20h149q19 0 37 16t19 35 q0 24 -16.5 40t-37.5 16q-8 0 -14 6t-6 15q0 8 6 14t14 6q38 0 66 -27.5t28 -68.5t-29.5 -67t-66.5 -26h-34z" />
<glyph unicode="&#x1b0;" d="M480 376v-335h34q27 0 27 -20q0 -21 -27 -21h-75v66q-84 -82 -182 -82q-60 0 -96.5 36t-36.5 95v261h-54q-27 0 -27 21q0 20 27 20h95v-302q0 -38 26.5 -64t64.5 -26q100 0 183 90v261h-74q-28 0 -28 21q0 20 28 20h115q18 0 35.5 16t18.5 35q0 24 -16.5 40t-37.5 16 q-8 0 -14 6t-6 15q0 8 6 14t14 6q38 0 66 -27.5t28 -68.5q0 -40 -29 -66t-65 -27z" />
<glyph unicode="&#x1b1;" d="M87 214q0 59 19 104.5t47 67.5t50.5 33t39.5 12v97h-125v-101q0 -27 -19 -27q-21 0 -21 27v144h207v-175q-77 -7 -118 -55t-41 -125t41.5 -125t90.5 -53h92q43 5 73.5 28t43 54.5t17.5 54.5t5 41q0 60 -32.5 110.5t-100.5 65.5l-28 4v175h212v-144q0 -11 -6 -19t-16 -8 q-19 0 -19 27v101h-129v-97q65 -14 112.5 -71t47.5 -139q0 -53 -15.5 -94.5t-37 -65t-48.5 -38.5t-46 -20t-33 -5h-90q-17 2 -35.5 8t-44.5 21.5t-45.5 37.5t-33.5 61t-14 88z" />
<glyph unicode="&#x1b2;" d="M300 29q23 0 43 4.5t41.5 16t34 35.5t12.5 59v419h94q28 0 28 -22q0 -12 -6 -15.5t-22 -3.5h-52v-378q0 -156 -171 -156q-85 0 -131.5 39t-46.5 119v376h-53q-28 0 -28 21q0 20 28 20h141q31 0 31 -20q0 -21 -29 -21h-49v-374q0 -58 38.5 -88.5t96.5 -30.5z" />
<glyph unicode="&#x1b3;" d="M151 522l152 -227l149 227h-40q-28 0 -28 21q0 20 28 20h110q27 0 27 -20q0 -21 -27 -21h-24l-176 -268v-213h105q27 0 27 -20q0 -21 -27 -21h-251q-27 0 -27 21q0 20 27 20h105v213l-179 268h-24q-19 0 -37 -16t-19 -35q0 -24 16.5 -40t37.5 -16q8 0 14 -6t6 -15 q0 -8 -6 -14t-14 -6q-38 0 -66 27.5t-28 68.5t30 67t66 26h111q27 0 27 -20q0 -21 -27 -21h-38z" />
<glyph unicode="&#x1b4;" d="M508 376l-256 -521h65q27 0 27 -20q0 -21 -27 -21h-233q-27 0 -27 21q0 20 27 20h127l71 145l-188 376h-16q-27 0 -27 21q0 20 27 20h115q27 0 27 -20q0 -21 -27 -21h-52l164 -331l161 331h-54q-27 0 -27 21q0 20 27 20h110q19 0 37 16t19 35q0 24 -16.5 40t-37.5 16 q-8 0 -14 6t-6 15q0 8 6 14t14 6q38 0 66 -27.5t28 -68.5t-29.5 -67t-66.5 -26h-14z" />
<glyph unicode="&#x1b5;" d="M310 281l-168 -236v-4h314v141q0 27 20 27q21 0 21 -27v-182h-394v59l158 222h-77q-27 0 -27 20t27 20h106l141 198v3h-269v-118q0 -28 -20 -28q-21 0 -21 28v159h349v-58l-131 -184h81q27 0 27 -20t-27 -20h-110z" />
<glyph unicode="&#x1b6;" d="M296 241l120 135h-251v-55q0 -27 -20 -27q-21 0 -21 27v96h350v-36l-125 -140h71q27 0 27 -20t-27 -20h-106l-143 -160h277v56q0 27 21 27q20 0 20 -27v-97h-374v36l146 165h-77q-27 0 -27 20t27 20h112z" />
<glyph unicode="&#x1b7;" d="M168 314q-10 0 -14.5 7t-4.5 13q0 8 7 15l180 173h-183v-55q0 -27 -20 -27q-21 0 -21 27v96h319q28 0 28 -20q0 -21 -28 -21h-38l-144 -139q29 12 73 12q77 0 127 -55t50 -139q0 -94 -57.5 -155t-146.5 -61q-39 0 -77.5 12t-64 28.5t-41.5 32.5t-16 24t6 14t14 6 q7 0 28 -19t60 -38t89 -19q73 0 119 49t46 128q0 67 -39.5 109t-102.5 42q-52 0 -98 -20t-50 -20z" />
<glyph unicode="&#x1b8;" d="M411 314q-8 0 -27 10t-51 20t-70 10q-63 0 -102.5 -42t-39.5 -109q0 -79 46 -128t119 -49q50 0 89 19t60 38t28 19q8 0 14 -6t6 -14t-16 -24t-41.5 -32.5t-64 -28.5t-77.5 -12q-89 0 -146.5 61t-57.5 155q0 84 50 139t127 55q44 0 73 -12l-144 139h-38q-28 0 -28 21 q0 20 28 20h319v-96q0 -27 -21 -27q-20 0 -20 27v55h-183l180 -173q7 -7 7 -15q0 -6 -4.5 -13t-14.5 -7z" />
<glyph unicode="&#x1b9;" d="M364 169q-13 0 -22 6.5t-15 14t-23 14t-44 6.5q-47 0 -79.5 -45t-32.5 -107q0 -69 37 -122.5t87 -53.5q36 0 66 18.5t49.5 37t30.5 18.5q6 0 12.5 -5.5t6.5 -14.5q0 -8 -7 -15q-24 -23 -40.5 -36t-50 -28t-67.5 -15q-74 0 -119 65.5t-45 150.5q0 77 41.5 134.5 t110.5 57.5h13l-134 126h-16q-28 0 -28 21q0 20 28 20h273q24 0 24 -21q0 -8 -6.5 -14t-17.5 -6h-200l180 -173q7 -7 7 -15q0 -19 -19 -19z" />
<glyph unicode="&#x1ba;" d="M436 -104q0 -41 -57 -68.5t-116 -27.5q-50 0 -84.5 6.5t-62.5 31.5t-28 68q1 60 48 87t114 27q23 0 43.5 4.5t42.5 16t35 36t13 59.5q0 45 -28 59.5t-84 14.5q-27 0 -44 -6.5t-23 -14t-15 -14t-22 -6.5q-19 0 -19 19q0 8 7 15l180 173h-200q-11 0 -17.5 6t-6.5 14 q0 21 24 21h273q28 0 28 -20q0 -21 -28 -21h-16l-134 -126q40 0 66.5 -4t51 -15t36 -34.5t11.5 -60.5q0 -25 -8 -50t-26 -50t-54 -40.5t-86 -15.5q-53 0 -87.5 -18t-34.5 -55q0 -15 4 -25t17 -20.5t43.5 -16t79.5 -5.5q45 0 83.5 22t41.5 39q2 15 19 15q20 0 20 -20z" />
<glyph unicode="&#x1bb;" d="M474 284q0 -4 -2 -8.5t-8.5 -9.5t-16.5 -5h-93q-157 -157 -231 -217v-3h314v36q0 27 21 27q20 0 20 -27v-77h-394v60l214 201h-87q-27 0 -27 20t27 20h128q58 57 76 85.5t18 60.5q0 52 -43 91t-100 39q-51 0 -92.5 -30t-53.5 -75q-6 -20 -21 -20q-7 0 -13 5.5t-6 12.5 q0 45 54.5 96.5t131.5 51.5q73 0 128.5 -52t55.5 -120q0 -36 -15.5 -65t-64.5 -80h53q27 0 27 -17z" />
<glyph unicode="&#x1bc;" d="M316 354q-39 0 -70 -10t-50 -20.5t-28 -10.5q-19 0 -19 22v187h-45q-11 0 -17.5 6t-6.5 14q0 21 24 21h327q28 0 28 -20q0 -21 -28 -21h-241v-157q73 30 132 30q77 0 127 -55t50 -139q0 -94 -57.5 -155t-146.5 -61q-39 0 -77.5 12t-64 28.5t-41.5 32.5t-16 24t6 14t14 6 q7 0 28 -19t60 -38t89 -19q73 0 119 49t46 128q0 67 -39.5 109t-102.5 42z" />
<glyph unicode="&#x1bd;" d="M136 201q-14 0 -14 25v150q-27 0 -27 21q0 20 28 20h273q24 0 24 -21q0 -8 -6.5 -14t-17.5 -6h-233v-121q30 13 67 13h16q80 0 126 -37t46 -105q0 -64 -40.5 -105t-111.5 -41q-62 0 -106.5 25t-44.5 49q0 9 7 15t14 6q6 0 15 -8.5t19.5 -19t35.5 -19t60 -8.5 q57 0 84.5 28.5t27.5 77.5q0 54 -30.5 78t-101.5 24q-32 0 -56 -7t-37 -13.5t-17 -6.5z" />
<glyph unicode="&#x1be;" d="M134 34v68q0 27 21 27q20 0 20 -27v-41q68 -34 129 -34q62 0 102 31.5t40 81.5q0 43 -38.5 77.5t-126.5 71.5v81h-105q-27 0 -27 20q0 21 27 21h105v111h-45q-27 0 -27 20q0 21 27 21h131q28 0 28 -21q0 -20 -28 -20h-45v-111h105q28 0 28 -21q0 -20 -28 -20h-105v-54 q94 -44 129.5 -82t35.5 -94q0 -69 -49 -111.5t-129 -42.5q-40 0 -71.5 8t-62.5 22.5t-41 17.5z" />
<glyph unicode="&#x1bf;" d="M144 -21l277 227q73 59 73 130q0 41 -24.5 54.5t-72.5 13.5q-36 0 -57.5 -2t-55.5 -13.5t-63 -34.5l-77 -60v-315zM144 -74v-71h98q27 0 27 -20q0 -21 -27 -21h-193q-27 0 -27 21q0 20 27 20h54v521h-54q-27 0 -27 21q0 20 27 20h95v-71l51 40q35 27 76 40.5t64 15.5 t60 2q139 0 139 -108q0 -92 -87 -162z" />
<glyph unicode="&#x1c0;" d="M320 577v-674q0 -27 -20 -27t-20 27v674q0 27 20 27t20 -27z" />
<glyph unicode="&#x1c1;" d="M384 577v-674q0 -27 -20 -27t-20 27v674q0 27 20 27t20 -27zM256 577v-674q0 -27 -20 -27t-20 27v674q0 27 20 27t20 -27z" />
<glyph unicode="&#x1c2;" d="M320 375h202q27 0 27 -20q0 -21 -27 -21h-202v-103h202q27 0 27 -20q0 -21 -27 -21h-202v-287q0 -27 -20 -27t-20 27v287h-202q-27 0 -27 21q0 20 27 20h202v103h-202q-27 0 -27 21q0 20 27 20h202v202q0 27 20 27t20 -27v-202z" />
<glyph unicode="&#x1c3;" d="M338 563l-18 -326q-2 -28 -21 -28q-18 0 -20 28l-18 326q0 2 -0.5 8t-0.5 8q0 17 11.5 28t28.5 11q16 0 27.5 -11t11.5 -28v-3t-0.5 -6t-0.5 -7zM293 85h13q23 0 38.5 -14.5t15.5 -35.5t-15.5 -35.5t-38.5 -14.5h-13q-22 0 -37.5 14.5t-15.5 35.5t15.5 35.5t37.5 14.5z " />
<glyph unicode="&#x1c4;" d="M447 602l-132 109q-13 9 -13 20q0 8 6 14t14 6q7 0 18 -8l107 -88l107 88q11 8 18 8q8 0 14 -6.5t6 -13.5q0 -10 -13 -21zM561 0h-234v59l187 460v3h-128v-118q0 -28 -20 -28q-21 0 -21 28v159h208v-58l-187 -460v-4h154v141q0 27 20 27q21 0 21 -27v-182zM68 41v481h-18 q-27 0 -27 21q0 20 27 20h92q166 0 166 -253v-56q0 -254 -166 -254h-92q-27 0 -27 21q0 20 27 20h18zM109 41h38q120 0 120 204v82q0 31 -1.5 49t-9 43.5t-22.5 48.5q-22 33 -38.5 43.5t-55.5 10.5h-31v-481z" />
<glyph unicode="&#x1c5;" d="M443 473l-132 109q-13 9 -13 20q0 8 6 14t14 6q7 0 18 -8l107 -88l107 88q11 8 18 8q8 0 14 -6t6 -14q0 -10 -13 -21zM554 417v-36l-175 -340h149v56q0 27 21 27q20 0 20 -27v-97h-246v36l173 340h-115v-55q0 -27 -20 -27q-21 0 -21 27v96h214zM68 41v481h-18 q-27 0 -27 21q0 20 27 20h92q166 0 166 -253v-56q0 -254 -166 -254h-92q-27 0 -27 21q0 20 27 20h18zM109 41h38q120 0 120 204v82q0 31 -1.5 49t-9 43.5t-22.5 48.5q-22 33 -38.5 43.5t-55.5 10.5h-31v-481z" />
<glyph unicode="&#x1c6;" d="M440 474l-132 109q-13 9 -13 20q0 8 6 14t14 6q7 0 18 -8l107 -88l107 88q11 8 18 8t13.5 -6.5t6.5 -13.5q0 -10 -13 -21zM124 25q89 0 89 181q0 81 -23.5 132.5t-65.5 51.5q-58 0 -58 -182q0 -77 16.5 -130t41.5 -53zM120 431q13 0 24 -2t19 -5t15.5 -8.5t11.5 -9 t8.5 -11t6 -10.5l5 -10t3.5 -8v196h-54q-27 0 -27 21q0 20 27 20h95v-563h56l170 335h-123v-55q0 -27 -20 -27q-21 0 -21 27v96h222v-36l-175 -340h149v56q0 27 21 27q20 0 20 -27v-97h-340v49q-10 -38 -28.5 -51.5t-63.5 -13.5q-47 0 -71.5 63t-24.5 161q0 223 95 223z" />
<glyph unicode="&#x1c7;" d="M113 522v-481h89v160q0 27 21 27q20 0 20 -27v-201h-211q-27 0 -27 21q0 20 27 20h40v481h-40q-27 0 -27 21q0 20 27 20h137q27 0 27 -20q0 -21 -27 -21h-56zM327 93q3 -5 10 -18.5t10 -17.5t9.5 -12.5t12 -11.5t14 -5.5t19.5 -2.5q20 0 34 8t21 18.5t11 32t4.5 37 t0.5 44.5v357h-95q-27 0 -27 21q0 20 27 20h186q27 0 27 -20q0 -21 -27 -21h-50v-357q0 -181 -115 -181q-13 0 -23.5 1t-19.5 6.5t-14.5 8t-14 13.5t-12 15.5t-14 21.5t-15.5 24v149q0 27 21 27q20 0 20 -27v-130z" />
<glyph unicode="&#x1c8;" d="M187 522v-481h173v160q0 27 21 27q20 0 20 -27v-201h-351q-27 0 -27 21q0 20 27 20h96v481h-96q-27 0 -27 21q0 20 27 20h233q27 0 27 -20q0 -21 -27 -21h-96zM535 376h-81q-27 0 -27 21q0 20 27 20h122v-445q0 -70 -43.5 -114t-111.5 -44h-129q-27 0 -27 21q0 20 27 20 h128q50 0 82.5 33t32.5 84v404zM583 624v-104h-59v104h59z" />
<glyph unicode="&#x1c9;" d="M435 376h-81q-27 0 -27 21q0 20 27 20h122v-445q0 -70 -43.5 -114t-111.5 -44h-129q-27 0 -27 21q0 20 27 20h128q50 0 82.5 33t32.5 84v404zM483 624v-104h-59v104h59zM258 604v-563h64q28 0 28 -20q0 -21 -28 -21h-171q-27 0 -27 21q0 20 27 20h66v522h-56 q-27 0 -27 21q0 20 27 20h97z" />
<glyph unicode="&#x1ca;" d="M533 519v-406q0 -83 -15.5 -107.5t-63.5 -24.5q-82 0 -82 90v149q0 27 21 27q20 0 20 -27v-130q0 -68 42 -68q20 0 28.5 18.5t8.5 72.5v406h-36q-27 0 -27 21q0 20 27 20h117q27 0 27 -20q0 -21 -27 -21h-40zM319 0h-50l-163 472v-431h43q27 0 27 -20q0 -21 -27 -21h-102 q-27 0 -27 21q0 20 27 20h18v481h-38q-27 0 -27 21q0 20 27 20h90l163 -472v431h-42q-28 0 -28 21q0 20 28 20h117q27 0 27 -20q0 -21 -27 -21h-34q0 -179 -0.5 -293t-0.5 -146t-0.5 -51t-0.5 -32z" />
<glyph unicode="&#x1cb;" d="M401 0h-52l-205 488v-447h75q27 0 27 -20q0 -21 -27 -21h-150q-27 0 -27 21q0 20 27 20h34v481h-54q-27 0 -27 21q0 20 27 20h106l205 -488v447h-74q-28 0 -28 21q0 20 28 20h149q27 0 27 -20q0 -21 -27 -21h-34v-522zM535 376h-81q-27 0 -27 21q0 20 27 20h122v-445 q0 -70 -43.5 -114t-111.5 -44h-129q-27 0 -27 21q0 20 27 20h128q50 0 82.5 33t32.5 84v404zM583 624v-104h-59v104h59z" />
<glyph unicode="&#x1cc;" d="M353 288q0 16 -8.5 37.5t-36.5 43t-70 21.5q-13 0 -26 -7t-18.5 -12.5t-18 -21t-13.5 -16.5q-2 -2 -9 -8.5t-26 -30.5v-253h45q27 0 27 -20q0 -21 -27 -21h-131q-28 0 -28 21q0 20 28 20h45v335h-34q-27 0 -27 21q0 20 27 20h75v-69q39 53 60 68t55 15h2q66 0 108 -39 t42 -97v-254h34q27 0 27 -20q0 -21 -27 -21h-109q-27 0 -27 21q0 20 27 20h34v247zM535 376h-81q-27 0 -27 21q0 20 27 20h122v-445q0 -70 -43.5 -114t-111.5 -44h-129q-27 0 -27 21q0 20 27 20h128q50 0 82.5 33t32.5 84v404zM583 624v-104h-59v104h59z" />
<glyph unicode="&#x1cd;" d="M300 603l-132 109q-13 9 -13 20q0 8 6 14t14 6q7 0 18 -8l107 -88l107 88q11 8 18 8t13.5 -6t6.5 -14q0 -10 -13 -21zM428 188h-266l-54 -147h79q27 0 27 -20q0 -21 -27 -21h-151q-27 0 -27 21q0 20 27 20h31l179 481h-120q-27 0 -27 21q0 20 27 20h204l197 -522h37 q27 0 27 -20q0 -21 -27 -21h-156q-27 0 -27 21q0 20 27 20h76zM413 229l-112 293h-15l-108 -293h235z" />
<glyph unicode="&#x1ce;" d="M306 457l-132 109q-13 9 -13 20q0 8 6 14t14 6q7 0 18 -8l107 -88l107 88q11 8 18 8t13.5 -6t6.5 -14q0 -10 -13 -21zM125 378q0 22 68 37.5t106 15.5q70 0 115.5 -35t45.5 -88v-267h54q27 0 27 -20q0 -21 -27 -21h-95v67q-89 -83 -191 -83q-70 0 -113 35.5t-43 92.5 q0 65 58.5 105.5t152.5 40.5q59 0 136 -21v71q0 37 -34 59.5t-89 22.5q-46 0 -95 -16t-57 -16t-13.5 6t-5.5 14zM419 112v90q-60 15 -128 15q-79 0 -128.5 -29.5t-49.5 -76.5q0 -39 31 -62.5t83 -23.5q53 0 97.5 20t94.5 67z" />
<glyph unicode="&#x1cf;" d="M300 603l-132 109q-13 9 -13 20q0 8 6 14t14 6q7 0 18 -8l107 -88l107 88q11 8 18 8t13.5 -6t6.5 -14q0 -10 -13 -21zM320 522v-481h139q28 0 28 -20q0 -21 -28 -21h-319q-27 0 -27 21q0 20 27 20h139v481h-139q-27 0 -27 21q0 20 27 20h319q28 0 28 -20q0 -21 -28 -21 h-139z" />
<glyph unicode="&#x1d0;" d="M299 471l-132 109q-13 9 -13 20q0 8 6 14t14 6q7 0 18 -8l107 -88l107 88q11 8 18 8q8 0 14 -6t6 -14q0 -10 -13 -21zM320 417v-376h160q28 0 28 -20q0 -21 -28 -21h-361q-27 0 -27 21q0 20 27 20h160v335h-118q-27 0 -27 21q0 20 27 20h159z" />
<glyph unicode="&#x1d1;" d="M300 603l-132 109q-13 9 -13 20q0 8 6 14t14 6q7 0 18 -8l107 -88l107 88q11 8 18 8t13.5 -6t6.5 -14q0 -10 -13 -21zM300 576q106 0 177.5 -86.5t71.5 -213.5q0 -121 -73 -206.5t-176 -85.5q-104 0 -176.5 86t-72.5 210t72.5 210t176.5 86zM300 535q-86 0 -147 -75 t-61 -180t61 -180t147 -75q85 0 146.5 74.5t61.5 177.5q0 108 -60.5 183t-147.5 75z" />
<glyph unicode="&#x1d2;" d="M300 457l-132 109q-13 9 -13 20q0 8 6 14t14 6q7 0 18 -8l107 -88l107 88q11 8 18 8t13.5 -6t6.5 -14q0 -10 -13 -21zM300 431q96 0 162 -65.5t66 -160.5q0 -92 -67 -156.5t-161 -64.5q-95 0 -161.5 65t-66.5 159q0 92 66.5 157.5t161.5 65.5zM300 390q-78 0 -132.5 -53 t-54.5 -129t54.5 -129.5t132.5 -53.5q77 0 132 53t55 127q0 79 -54 132t-133 53z" />
<glyph unicode="&#x1d3;" d="M300 603l-132 109q-13 9 -13 20q0 8 6 14t14 6q7 0 18 -8l107 -88l107 88q11 8 18 8t13.5 -6t6.5 -14q0 -10 -13 -21zM499 522v-337q0 -85 -57.5 -143t-141.5 -58q-85 0 -142 57.5t-57 143.5v337h-34q-27 0 -27 21q0 20 27 20h149q27 0 27 -20q0 -21 -27 -21h-74v-337 q0 -68 45.5 -114t112.5 -46q66 0 112 46.5t46 113.5v337h-74q-27 0 -27 21q0 20 27 20h149q27 0 27 -20q0 -21 -27 -21h-34z" />
<glyph unicode="&#x1d4;" d="M292 457l-132 109q-13 9 -13 20q0 8 6 14t14 6q7 0 18 -8l107 -88l107 88q11 8 18 8t13.5 -6t6.5 -14q0 -10 -13 -21zM439 0v66q-84 -82 -182 -82q-60 0 -96.5 36t-36.5 95v261h-54q-27 0 -27 21q0 20 27 20h95v-302q0 -38 26.5 -64t64.5 -26q100 0 183 90v261h-74 q-28 0 -28 21q0 20 28 20h115v-376h34q27 0 27 -20q0 -21 -27 -21h-75z" />
<glyph unicode="&#x1d5;" d="M418 760h-236q-27 0 -27 20t27 20h236q27 0 27 -20t-27 -20zM190 707q21 0 35.5 -15t14.5 -36q0 -20 -15 -34.5t-35 -14.5t-35 15t-15 35t15 35t35 15zM411 707q21 0 35.5 -15t14.5 -36q0 -20 -15 -34.5t-35 -14.5t-35 15t-15 35t15 35t35 15zM499 522v-337 q0 -85 -57.5 -143t-141.5 -58q-85 0 -142 57.5t-57 143.5v337h-34q-27 0 -27 21q0 20 27 20h149q27 0 27 -20q0 -21 -27 -21h-74v-337q0 -68 45.5 -114t112.5 -46q66 0 112 46.5t46 113.5v337h-74q-27 0 -27 21q0 20 27 20h149q27 0 27 -20q0 -21 -27 -21h-34z" />
<glyph unicode="&#x1d6;" d="M410 644h-236q-27 0 -27 20t27 20h236q27 0 27 -20t-27 -20zM182 591q21 0 35.5 -15t14.5 -36q0 -20 -15 -34.5t-35 -14.5t-35 15t-15 35t15 35t35 15zM403 591q21 0 35.5 -15t14.5 -36q0 -20 -15 -34.5t-35 -14.5t-35 15t-15 35t15 35t35 15zM439 0v66q-84 -82 -182 -82 q-60 0 -96.5 36t-36.5 95v261h-54q-27 0 -27 21q0 20 27 20h95v-302q0 -38 26.5 -64t64.5 -26q100 0 183 90v261h-74q-28 0 -28 21q0 20 28 20h115v-376h34q27 0 27 -20q0 -21 -27 -21h-75z" />
<glyph unicode="&#x1d7;" d="M499 470v-304q0 -76 -57.5 -128t-141.5 -52q-85 0 -142 52t-57 128v304h-34q-27 0 -27 19q0 18 27 18h149q27 0 27 -18q0 -19 -27 -19h-74v-304q0 -60 45.5 -102t112.5 -42q66 0 112 42t46 102v304h-74q-27 0 -27 19q0 18 27 18h149q27 0 27 -18q0 -19 -27 -19h-34z M190 643q21 0 35.5 -15t14.5 -36q0 -20 -15 -34.5t-35 -14.5t-35 15t-15 35t15 35t35 15zM411 643q21 0 35.5 -15t14.5 -36q0 -20 -15 -34.5t-35 -14.5t-35 15t-15 35t15 35t35 15zM422 754l-114 -100q-12 -9 -19 -9q-8 0 -14 6t-6 15q0 8 12 19l114 100q12 9 19 9 q8 0 14 -6t6 -15q0 -8 -12 -19z" />
<glyph unicode="&#x1d8;" d="M414 729l-114 -100q-12 -9 -19 -9q-8 0 -14 6t-6 15q0 8 12 19l114 100q12 9 19 9q8 0 14 -6t6 -15q0 -8 -12 -19zM182 591q21 0 35.5 -15t14.5 -36q0 -20 -15 -34.5t-35 -14.5t-35 15t-15 35t15 35t35 15zM403 591q21 0 35.5 -15t14.5 -36q0 -20 -15 -34.5t-35 -14.5 t-35 15t-15 35t15 35t35 15zM439 0v66q-84 -82 -182 -82q-60 0 -96.5 36t-36.5 95v261h-54q-27 0 -27 21q0 20 27 20h95v-302q0 -38 26.5 -64t64.5 -26q100 0 183 90v261h-74q-28 0 -28 21q0 20 28 20h115v-376h34q27 0 27 -20q0 -21 -27 -21h-75z" />
<glyph unicode="&#x1d9;" d="M499 470v-304q0 -76 -57.5 -128t-141.5 -52q-85 0 -142 52t-57 128v304h-34q-27 0 -27 19q0 18 27 18h149q27 0 27 -18q0 -19 -27 -19h-74v-304q0 -60 45.5 -102t112.5 -42q66 0 112 42t46 102v304h-74q-27 0 -27 19q0 18 27 18h149q27 0 27 -18q0 -19 -27 -19h-34z M190 639q21 0 35.5 -15t14.5 -36q0 -20 -15 -34.5t-35 -14.5t-35 15t-15 35t15 35t35 15zM411 639q21 0 35.5 -15t14.5 -36q0 -20 -15 -34.5t-35 -14.5t-35 15t-15 35t15 35t35 15zM300 645l-132 109q-13 9 -13 20q0 8 6 14t14 6q7 0 18 -8l107 -88l107 88q11 8 18 8 t13.5 -6t6.5 -14q0 -10 -13 -21z" />
<glyph unicode="&#x1da;" d="M292 593l-132 109q-13 9 -13 20q0 8 6 14t14 6q7 0 18 -8l107 -88l107 88q11 8 18 8t13.5 -6t6.5 -14q0 -10 -13 -21zM182 591q21 0 35.5 -15t14.5 -36q0 -20 -15 -34.5t-35 -14.5t-35 15t-15 35t15 35t35 15zM403 591q21 0 35.5 -15t14.5 -36q0 -20 -15 -34.5t-35 -14.5 t-35 15t-15 35t15 35t35 15zM439 0v66q-84 -82 -182 -82q-60 0 -96.5 36t-36.5 95v261h-54q-27 0 -27 21q0 20 27 20h95v-302q0 -38 26.5 -64t64.5 -26q100 0 183 90v261h-74q-28 0 -28 21q0 20 28 20h115v-376h34q27 0 27 -20q0 -21 -27 -21h-75z" />
<glyph unicode="&#x1db;" d="M214 788l114 -100l7 -8q5 -5 5 -11q0 -9 -6 -15t-15 -6q-7 0 -18 9l-114 100q-12 11 -12 20q0 8 6 14t14 6q7 0 19 -9zM499 470v-304q0 -76 -57.5 -128t-141.5 -52q-85 0 -142 52t-57 128v304h-34q-27 0 -27 19q0 18 27 18h149q27 0 27 -18q0 -19 -27 -19h-74v-304 q0 -60 45.5 -102t112.5 -42q66 0 112 42t46 102v304h-74q-27 0 -27 19q0 18 27 18h149q27 0 27 -18q0 -19 -27 -19h-34zM190 649q21 0 35.5 -15t14.5 -36q0 -20 -15 -34.5t-35 -14.5t-35 15t-15 35t15 35t35 15zM411 649q21 0 35.5 -15t14.5 -36q0 -20 -15 -34.5t-35 -14.5 t-35 15t-15 35t15 35t35 15z" />
<glyph unicode="&#x1dc;" d="M202 764l114 -100q12 -11 12 -19q0 -9 -6 -15t-15 -6q-7 0 -18 9l-114 100q-12 11 -12 20q0 8 6 14t14 6q7 0 19 -9zM182 591q21 0 35.5 -15t14.5 -36q0 -20 -15 -34.5t-35 -14.5t-35 15t-15 35t15 35t35 15zM403 591q21 0 35.5 -15t14.5 -36q0 -20 -15 -34.5t-35 -14.5 t-35 15t-15 35t15 35t35 15zM439 0v66q-84 -82 -182 -82q-60 0 -96.5 36t-36.5 95v261h-54q-27 0 -27 21q0 20 27 20h95v-302q0 -38 26.5 -64t64.5 -26q100 0 183 90v261h-74q-28 0 -28 21q0 20 28 20h115v-376h34q27 0 27 -20q0 -21 -27 -21h-75z" />
<glyph unicode="&#x1dd;" d="M63 216h416q-11 79 -66 126.5t-136 47.5q-47 0 -96 -15t-79 -39q-10 -7 -16 -7q-8 0 -13.5 6t-5.5 14q0 26 71.5 54t139.5 28q101 0 171.5 -68t70.5 -165q0 -91 -66 -152.5t-162 -61.5q-101 0 -165 63.5t-64 168.5zM479 175h-374q12 -68 63 -109t124 -41t123 40.5 t64 109.5z" />
<glyph unicode="&#x1de;" d="M393 760h-236q-27 0 -27 20t27 20h236q27 0 27 -20t-27 -20zM187 709q21 0 35.5 -15t14.5 -36q0 -20 -15 -34.5t-35 -14.5t-35 15t-15 35t15 35t35 15zM408 709q21 0 35.5 -15t14.5 -36q0 -20 -15 -34.5t-35 -14.5t-35 15t-15 35t15 35t35 15zM428 188h-266l-54 -147h79 q27 0 27 -20q0 -21 -27 -21h-151q-27 0 -27 21q0 20 27 20h31l179 481h-120q-27 0 -27 21q0 20 27 20h204l197 -522h37q27 0 27 -20q0 -21 -27 -21h-156q-27 0 -27 21q0 20 27 20h76zM413 229l-112 293h-15l-108 -293h235z" />
<glyph unicode="&#x1df;" d="M408 644h-236q-27 0 -27 20t27 20h236q27 0 27 -20t-27 -20zM178 591q21 0 35.5 -15t14.5 -36q0 -20 -15 -34.5t-35 -14.5t-35 15t-15 35t15 35t35 15zM399 591q21 0 35.5 -15t14.5 -36q0 -20 -15 -34.5t-35 -14.5t-35 15t-15 35t15 35t35 15zM125 378q0 22 68 37.5 t106 15.5q70 0 115.5 -35t45.5 -88v-267h54q27 0 27 -20q0 -21 -27 -21h-95v67q-89 -83 -191 -83q-70 0 -113 35.5t-43 92.5q0 65 58.5 105.5t152.5 40.5q59 0 136 -21v71q0 37 -34 59.5t-89 22.5q-46 0 -95 -16t-57 -16t-13.5 6t-5.5 14zM419 112v90q-60 15 -128 15 q-79 0 -128.5 -29.5t-49.5 -76.5q0 -39 31 -62.5t83 -23.5q53 0 97.5 20t94.5 67z" />
<glyph unicode="&#x1e0;" d="M418 760h-236q-27 0 -27 20t27 20h236q27 0 27 -20t-27 -20zM295 706q21 0 35.5 -15t14.5 -36q0 -20 -15 -34.5t-35 -14.5t-35 15t-15 35t15 35t35 15zM428 188h-266l-54 -147h79q27 0 27 -20q0 -21 -27 -21h-151q-27 0 -27 21q0 20 27 20h31l179 481h-120q-27 0 -27 21 q0 20 27 20h204l197 -522h37q27 0 27 -20q0 -21 -27 -21h-156q-27 0 -27 21q0 20 27 20h76zM413 229l-112 293h-15l-108 -293h235z" />
<glyph unicode="&#x1e1;" d="M424 647h-236q-27 0 -27 20t27 20h236q27 0 27 -20t-27 -20zM299 591q21 0 35.5 -15t14.5 -36q0 -20 -15 -34.5t-35 -14.5t-35 15t-15 35t15 35t35 15zM125 378q0 22 68 37.5t106 15.5q70 0 115.5 -35t45.5 -88v-267h54q27 0 27 -20q0 -21 -27 -21h-95v67 q-89 -83 -191 -83q-70 0 -113 35.5t-43 92.5q0 65 58.5 105.5t152.5 40.5q59 0 136 -21v71q0 37 -34 59.5t-89 22.5q-46 0 -95 -16t-57 -16t-13.5 6t-5.5 14zM419 112v90q-60 15 -128 15q-79 0 -128.5 -29.5t-49.5 -76.5q0 -39 31 -62.5t83 -23.5q53 0 97.5 20t94.5 67z" />
<glyph unicode="&#x1e2;" d="M458 623h-236q-27 0 -27 20t27 20h236q27 0 27 -20t-27 -20zM297 189h-141l-41 -148h26q27 0 27 -20q0 -21 -27 -21h-104q-27 0 -27 21q0 20 27 20h37l133 481h-63q-27 0 -27 21q0 20 27 20h426v-152q0 -27 -21 -27q-20 0 -20 27v111h-191v-208h78v28q0 27 20 27t20 -27 v-96q0 -27 -20 -27t-20 27v27h-78v-232h211v93q0 26 20 26q21 0 21 -26v-134h-345q-27 0 -27 21q0 20 27 20h52v148zM297 230v292h-50l-80 -292h130z" />
<glyph unicode="&#x1e3;" d="M413 482h-236q-27 0 -27 20t27 20h236q27 0 27 -20t-27 -20zM71 378q0 21 49 37t79 16q37 0 68 -23t45 -61q18 39 50 61.5t68 22.5q73 0 109 -62.5t38 -169.5h-258q5 -76 41 -125t86 -49q25 0 48 15.5t39.5 31t24.5 15.5t14 -6t6 -14q0 -17 -46.5 -50t-87.5 -33 q-74 0 -124 77v-34q0 -27 -20 -27t-20 27v25q-56 -68 -120 -68t-106 42t-42 106q0 54 53.5 89.5t129.5 35.5q41 0 85 -12v60q0 35 -25.5 60t-62.5 25q-36 0 -67 -16t-35 -16q-7 0 -13 6.5t-6 13.5zM280 110v93q-44 13 -79 13q-32 0 -69 -12t-54 -28q-21 -21 -21 -55 q0 -42 29.5 -69t75.5 -27q51 0 118 85zM535 240q-4 29 -8 48.5t-15 46t-32 41t-51 14.5q-89 0 -109 -150h215z" />
<glyph unicode="&#x1e4;" d="M315 535q-62 0 -107 -27t-65.5 -66t-29.5 -71t-9 -54v-73q0 -102 62 -160.5t170 -58.5q70 0 143 34v46h-139q-27 0 -27 21q0 20 27 20h139v63h-139q-27 0 -27 21q0 20 27 20h194q28 0 28 -20q0 -21 -28 -21h-14v-63h14q28 0 28 -20q0 -21 -28 -21h-14v-69 q-90 -52 -187 -52q-123 0 -196.5 71t-73.5 189v74q0 105 70.5 181.5t179.5 76.5q99 0 166 -54v14q0 27 21 27q20 0 20 -27v-91q0 -27 -20 -27q-19 0 -20 25q-3 38 -51 65t-114 27z" />
<glyph unicode="&#x1e5;" d="M272 390q-70 0 -119 -49t-49 -120t49 -120.5t119 -49.5t119 49t49 119q0 73 -48.5 122t-119.5 49zM469 -88q-16 -34 -54.5 -66t-98.5 -32h-114q-27 0 -27 21q0 20 27 20h116q68 0 103 57h-122q-27 0 -27 20t27 20h138q3 12 3 26v129q-66 -97 -171 -97q-85 0 -145.5 62 t-60.5 149t60.5 148.5t145.5 61.5q106 0 171 -97v83h95q27 0 27 -20q0 -21 -27 -21h-54v-404q0 -14 -1 -20h55q27 0 27 -20t-27 -20h-66z" />
<glyph unicode="&#x1e6;" d="M312 615l-132 109q-13 9 -13 20q0 8 6 14t14 6q7 0 18 -8l107 -88l107 88q11 8 18 8t13.5 -6t6.5 -14q0 -10 -13 -21zM315 535q-62 0 -107 -27t-65.5 -66t-29.5 -71t-9 -54v-73q0 -102 62 -160.5t170 -58.5q70 0 143 34v150h-139q-27 0 -27 21q0 20 27 20h194 q28 0 28 -20q0 -21 -28 -21h-14v-173q-90 -52 -187 -52q-123 0 -196.5 71t-73.5 189v74q0 105 70.5 181.5t179.5 76.5q99 0 166 -54v14q0 27 21 27q20 0 20 -27v-91q0 -27 -20 -27q-19 0 -20 25q-3 38 -51 65t-114 27z" />
<glyph unicode="&#x1e7;" d="M312 468l-132 109q-13 9 -13 20q0 8 6 14t14 6q7 0 18 -8l107 -88l107 88q11 8 18 8t13.5 -6.5t6.5 -13.5q0 -10 -13 -21zM440 334v83h95q27 0 27 -20q0 -21 -27 -21h-54v-404q0 -64 -48 -111t-117 -47h-114q-27 0 -27 21q0 20 27 20h116q51 0 86.5 36t35.5 87v129 q-66 -97 -171 -97q-85 0 -145.5 62t-60.5 149t60.5 148.5t145.5 61.5q106 0 171 -97zM272 390q-70 0 -119 -49t-49 -120t49 -120.5t119 -49.5t119 49t49 119q0 73 -48.5 122t-119.5 49z" />
<glyph unicode="&#x1e8;" d="M308 600l-132 109q-13 9 -13 20q0 8 6 14t14 6q7 0 18 -8l107 -88l107 88q11 8 18 8t13.5 -6.5t6.5 -13.5q0 -10 -13 -21zM165 221v-180h75q27 0 27 -20q0 -21 -27 -21h-170q-27 0 -27 21q0 20 27 20h54v481h-54q-27 0 -27 21q0 20 27 20h170q27 0 27 -20q0 -21 -27 -21 h-75v-249l280 249h-45q-28 0 -28 21q0 20 28 20h118q28 0 28 -20q0 -21 -28 -21h-16l-222 -198q73 -30 113 -84.5t96 -198.5h56q27 0 27 -20q0 -21 -27 -21h-87q-55 152 -98 211.5t-114 82.5z" />
<glyph unicode="&#x1e9;" d="M302 635l-132 109q-13 9 -13 20q0 8 6 14t14 6q7 0 18 -8l107 -88l107 88q11 8 18 8t13.5 -6t6.5 -14q0 -10 -13 -21zM185 180v-180h-95q-27 0 -27 21q0 20 27 20h54v522h-54q-27 0 -27 21q0 20 27 20h95v-375l173 147h-22q-27 0 -27 21q0 20 27 20h130q27 0 27 -20 q0 -21 -27 -21h-47l-157 -131l207 -204h45q27 0 27 -20q0 -21 -27 -21h-131q-27 0 -27 21q0 20 27 20h28l-180 178z" />
<glyph unicode="&#x1ea;" d="M320 -139q22 0 38 9.5t19 9.5q5 0 9.5 -4.5t4.5 -10.5q0 -13 -24.5 -24.5t-52.5 -11.5q-36 0 -56 16t-20 45q0 58 77 94h47l-27 -15q-58 -33 -58 -74q0 -34 43 -34zM300 576q106 0 177.5 -86.5t71.5 -213.5q0 -121 -73 -206.5t-176 -85.5q-104 0 -176.5 86t-72.5 210 t72.5 210t176.5 86zM300 535q-86 0 -147 -75t-61 -180t61 -180t147 -75q85 0 146.5 74.5t61.5 177.5q0 108 -60.5 183t-147.5 75z" />
<glyph unicode="&#x1eb;" d="M320 -139q22 0 38 9.5t19 9.5q5 0 9.5 -4.5t4.5 -10.5q0 -13 -24.5 -24.5t-52.5 -11.5q-36 0 -56 16t-20 45q0 58 77 94h47l-27 -15q-58 -33 -58 -74q0 -34 43 -34zM300 431q96 0 162 -65.5t66 -160.5q0 -92 -67 -156.5t-161 -64.5q-95 0 -161.5 65t-66.5 159 q0 92 66.5 157.5t161.5 65.5zM300 390q-78 0 -132.5 -53t-54.5 -129t54.5 -129.5t132.5 -53.5q77 0 132 53t55 127q0 79 -54 132t-133 53z" />
<glyph unicode="&#x1ec;" d="M418 623h-236q-27 0 -27 20t27 20h236q27 0 27 -20t-27 -20zM320 -139q22 0 38 9.5t19 9.5q5 0 9.5 -4.5t4.5 -10.5q0 -13 -24.5 -24.5t-52.5 -11.5q-36 0 -56 16t-20 45q0 58 77 94h47l-27 -15q-58 -33 -58 -74q0 -34 43 -34zM300 576q106 0 177.5 -86.5t71.5 -213.5 q0 -121 -73 -206.5t-176 -85.5q-104 0 -176.5 86t-72.5 210t72.5 210t176.5 86zM300 535q-86 0 -147 -75t-61 -180t61 -180t147 -75q85 0 146.5 74.5t61.5 177.5q0 108 -60.5 183t-147.5 75z" />
<glyph unicode="&#x1ed;" d="M418 481h-236q-27 0 -27 20t27 20h236q27 0 27 -20t-27 -20zM320 -139q22 0 38 9.5t19 9.5q5 0 9.5 -4.5t4.5 -10.5q0 -13 -24.5 -24.5t-52.5 -11.5q-36 0 -56 16t-20 45q0 58 77 94h47l-27 -15q-58 -33 -58 -74q0 -34 43 -34zM300 431q96 0 162 -65.5t66 -160.5 q0 -92 -67 -156.5t-161 -64.5q-95 0 -161.5 65t-66.5 159q0 92 66.5 157.5t161.5 65.5zM300 390q-78 0 -132.5 -53t-54.5 -129t54.5 -129.5t132.5 -53.5q77 0 132 53t55 127q0 79 -54 132t-133 53z" />
<glyph unicode="&#x1ee;" d="M268 616l-132 109q-13 9 -13 20q0 8 6 14t14 6q7 0 18 -8l107 -88l107 88q11 8 18 8t13.5 -6.5t6.5 -13.5q0 -10 -13 -21zM168 314q-10 0 -14.5 7t-4.5 13q0 8 7 15l180 173h-183v-55q0 -27 -20 -27q-21 0 -21 27v96h319q28 0 28 -20q0 -21 -28 -21h-38l-144 -139 q29 12 73 12q77 0 127 -55t50 -139q0 -94 -57.5 -155t-146.5 -61q-39 0 -77.5 12t-64 28.5t-41.5 32.5t-16 24t6 14t14 6q7 0 28 -19t60 -38t89 -19q73 0 119 49t46 128q0 67 -39.5 109t-102.5 42q-52 0 -98 -20t-50 -20z" />
<glyph unicode="&#x1ef;" d="M272 471l-132 109q-13 9 -13 20q0 8 6 14t14 6q7 0 18 -8l107 -88l107 88q11 8 18 8t13.5 -6t6.5 -14q0 -10 -13 -21zM168 169q-19 0 -19 19q0 8 7 15l180 173h-200q-11 0 -17.5 6t-6.5 14q0 21 24 21h273q28 0 28 -20q0 -21 -28 -21h-16l-134 -126h13q69 0 110.5 -57.5 t41.5 -134.5q0 -85 -45 -150.5t-119 -65.5q-34 0 -67.5 15t-50 28t-40.5 36q-7 7 -7 15q0 9 6.5 14.5t12.5 5.5q11 0 30.5 -18.5t49.5 -37t66 -18.5q50 0 87 53.5t37 122.5q0 62 -32.5 107t-79.5 45q-27 0 -44 -6.5t-23 -14t-15 -14t-22 -6.5z" />
<glyph unicode="&#x1f0;" d="M417 376h-241q-27 0 -27 21q0 20 27 20h282v-445q0 -70 -43.5 -114t-111.5 -44h-129q-27 0 -27 21q0 20 27 20h128q50 0 82.5 33t32.5 84v404zM384 457l-132 109q-12 8 -12 20q0 8 5.5 14t14.5 6q5 0 18 -8l106 -88l108 88q10 8 18 8t14 -6t6 -14q0 -10 -14 -21z" />
<glyph unicode="&#x1f1;" d="M561 0h-234v59l187 460v3h-128v-118q0 -28 -20 -28q-21 0 -21 28v159h208v-58l-187 -460v-4h154v141q0 27 20 27q21 0 21 -27v-182zM68 41v481h-18q-27 0 -27 21q0 20 27 20h92q166 0 166 -253v-56q0 -254 -166 -254h-92q-27 0 -27 21q0 20 27 20h18zM109 41h38 q120 0 120 204v82q0 31 -1.5 49t-9 43.5t-22.5 48.5q-22 33 -38.5 43.5t-55.5 10.5h-31v-481z" />
<glyph unicode="&#x1f2;" d="M554 417v-36l-175 -340h149v56q0 27 21 27q20 0 20 -27v-97h-246v36l173 340h-115v-55q0 -27 -20 -27q-21 0 -21 27v96h214zM68 41v481h-18q-27 0 -27 21q0 20 27 20h92q166 0 166 -253v-56q0 -254 -166 -254h-92q-27 0 -27 21q0 20 27 20h18zM109 41h38q120 0 120 204 v82q0 31 -1.5 49t-9 43.5t-22.5 48.5q-22 33 -38.5 43.5t-55.5 10.5h-31v-481z" />
<glyph unicode="&#x1f3;" d="M124 25q89 0 89 181q0 81 -23.5 132.5t-65.5 51.5q-58 0 -58 -182q0 -77 16.5 -130t41.5 -53zM120 431q13 0 24 -2t19 -5t15.5 -8.5t11.5 -9t8.5 -11t6 -10.5l5 -10t3.5 -8v196h-54q-27 0 -27 21q0 20 27 20h95v-563h56l170 335h-123v-55q0 -27 -20 -27q-21 0 -21 27v96 h222v-36l-175 -340h149v56q0 27 21 27q20 0 20 -27v-97h-340v49q-10 -38 -28.5 -51.5t-63.5 -13.5q-47 0 -71.5 63t-24.5 161q0 223 95 223z" />
<glyph unicode="&#x1f4;" d="M383 712l-114 -100q-12 -9 -19 -9q-8 0 -14 6t-6 15q0 8 12 19l114 100q12 9 19 9q8 0 14 -6t6 -15q0 -8 -12 -19zM315 535q-62 0 -107 -27t-65.5 -66t-29.5 -71t-9 -54v-73q0 -102 62 -160.5t170 -58.5q70 0 143 34v150h-139q-27 0 -27 21q0 20 27 20h194q28 0 28 -20 q0 -21 -28 -21h-14v-173q-90 -52 -187 -52q-123 0 -196.5 71t-73.5 189v74q0 105 70.5 181.5t179.5 76.5q99 0 166 -54v14q0 27 21 27q20 0 20 -27v-91q0 -27 -20 -27q-19 0 -20 25q-3 38 -51 65t-114 27z" />
<glyph unicode="&#x1f5;" d="M383 566l-114 -100q-12 -9 -19 -9q-8 0 -14 6t-6 15q0 8 12 19l114 100q12 9 19 9q8 0 14 -6t6 -15q0 -8 -12 -19zM440 334v83h95q27 0 27 -20q0 -21 -27 -21h-54v-404q0 -64 -48 -111t-117 -47h-114q-27 0 -27 21q0 20 27 20h116q51 0 86.5 36t35.5 87v129 q-66 -97 -171 -97q-85 0 -145.5 62t-60.5 149t60.5 148.5t145.5 61.5q106 0 171 -97zM272 390q-70 0 -119 -49t-49 -120t49 -120.5t119 -49.5t119 49t49 119q0 73 -48.5 122t-119.5 49z" />
<glyph unicode="&#x1f6;" d="M580 116q-1 -56 -36.5 -94t-94.5 -38q-63 0 -110 57q-8 11 -13 29.5t-6 31.5v13v159h-190v-231h54q27 0 27 -20q0 -21 -27 -21h-140q-28 0 -28 21q0 20 28 20h45v481h-25q-27 0 -27 21q0 20 27 20h104q27 0 27 -20q0 -21 -27 -21h-38v-209h190v209h-38q-27 0 -27 21 q0 20 27 20h104q27 0 27 -20q0 -21 -27 -21h-25v-409q0 -38 26.5 -64t64.5 -26q45 0 65.5 30t20.5 63v258h-74q-28 0 -28 21q0 20 28 20h115z" />
<glyph unicode="&#x1f7;" d="M144 477l62 44q73 51 186 51q66 0 106 -27.5t40 -82.5q0 -85 -77 -162l-317 -311v-134h98q27 0 27 -20q0 -21 -27 -21h-193q-27 0 -27 21q0 20 27 20h54v667h-54q-27 0 -27 21q0 20 27 20h95v-86zM144 426v-380l287 282q67 67 67 134q0 38 -24.5 54t-81.5 16 q-98 0 -162 -45z" />
<glyph unicode="&#x1f8;" d="M248 743l114 -100q12 -11 12 -19q0 -9 -6 -15t-15 -6q-7 0 -18 9l-114 100q-12 11 -12 20q0 8 6 14t14 6q7 0 19 -9zM501 0h-52l-305 504v-463h75q27 0 27 -20q0 -21 -27 -21h-150q-27 0 -27 21q0 20 27 20h34v481h-54q-27 0 -27 21q0 20 27 20h106l305 -504v463h-74 q-28 0 -28 21q0 20 28 20h149q27 0 27 -20q0 -21 -27 -21h-34v-522z" />
<glyph unicode="&#x1f9;" d="M254 640l114 -100q12 -11 12 -19q0 -9 -6 -15t-15 -6q-7 0 -18 9l-114 100q-12 11 -12 20q0 8 6 14t14 6q7 0 19 -9zM319 390q-18 0 -34.5 -3.5t-31 -11t-24.5 -14t-21.5 -18.5t-16 -17.5t-14 -18t-10.5 -13.5v-253h45q27 0 27 -20q0 -21 -27 -21h-131q-28 0 -28 21 q0 20 28 20h45v335h-34q-27 0 -27 21q0 20 27 20h75v-69q43 48 76 65.5t80 17.5q67 0 112 -39t45 -97v-254h34q27 0 27 -20q0 -21 -27 -21h-109q-27 0 -27 21q0 20 27 20h34v247q0 43 -32.5 72.5t-87.5 29.5z" />
<glyph unicode="&#x1fa;" d="M314 760l-114 -100q-12 -9 -19 -9q-8 0 -14 6t-6 15q0 8 12 19l114 100q12 9 19 9q8 0 14 -6t6 -15q0 -8 -12 -19zM428 149h-266l-54 -118h79q27 0 27 -16q0 -17 -27 -17h-151q-27 0 -27 17q0 16 27 16h31l179 385h-120q-27 0 -27 17q0 16 27 16h204l197 -418h37 q27 0 27 -16q0 -17 -27 -17h-156q-27 0 -27 17q0 16 27 16h76zM413 182l-112 234h-15l-108 -234h235zM277 659q39 0 66 -26.5t27 -65.5q0 -36 -27.5 -62.5t-65.5 -26.5t-65.5 27t-27.5 64t27.5 63.5t65.5 26.5zM277 626q-25 0 -42.5 -17t-17.5 -40q0 -24 17.5 -41t42.5 -17 t42.5 17t17.5 40q0 24 -17.5 41t-42.5 17z" />
<glyph unicode="&#x1fb;" d="M300 647q39 0 66 -26.5t27 -65.5q0 -36 -27.5 -62.5t-65.5 -26.5t-65.5 27t-27.5 64t27.5 63.5t65.5 26.5zM300 614q-25 0 -42.5 -17t-17.5 -40q0 -24 17.5 -41t42.5 -17t42.5 17t17.5 40q0 24 -17.5 41t-42.5 17zM125 378q0 22 68 37.5t106 15.5q70 0 115.5 -35 t45.5 -88v-267h54q27 0 27 -20q0 -21 -27 -21h-95v67q-89 -83 -191 -83q-70 0 -113 35.5t-43 92.5q0 65 58.5 105.5t152.5 40.5q59 0 136 -21v71q0 37 -34 59.5t-89 22.5q-46 0 -95 -16t-57 -16t-13.5 6t-5.5 14zM419 112v90q-60 15 -128 15q-79 0 -128.5 -29.5t-49.5 -76.5 q0 -39 31 -62.5t83 -23.5q53 0 97.5 20t94.5 67zM359 760l-114 -100q-12 -9 -19 -9q-8 0 -14 6t-6 15q0 8 12 19l114 100q12 9 19 9q8 0 14 -6t6 -15q0 -8 -12 -19z" />
<glyph unicode="&#x1fc;" d="M371 712l-114 -100q-12 -9 -19 -9q-8 0 -14 6t-6 15q0 8 12 19l114 100q12 9 19 9q8 0 14 -6t6 -15q0 -8 -12 -19zM297 189h-141l-41 -148h26q27 0 27 -20q0 -21 -27 -21h-104q-27 0 -27 21q0 20 27 20h37l133 481h-63q-27 0 -27 21q0 20 27 20h426v-152q0 -27 -21 -27 q-20 0 -20 27v111h-191v-208h78v28q0 27 20 27t20 -27v-96q0 -27 -20 -27t-20 27v27h-78v-232h211v93q0 26 20 26q21 0 21 -26v-134h-345q-27 0 -27 21q0 20 27 20h52v148zM297 230v292h-50l-80 -292h130z" />
<glyph unicode="&#x1fd;" d="M365 566l-114 -100q-12 -9 -19 -9q-8 0 -14 6t-6 15q0 8 12 19l114 100q12 9 19 9q8 0 14 -6t6 -15q0 -8 -12 -19zM71 378q0 21 49 37t79 16q37 0 68 -23t45 -61q18 39 50 61.5t68 22.5q73 0 109 -62.5t38 -169.5h-258q5 -76 41 -125t86 -49q25 0 48 15.5t39.5 31 t24.5 15.5t14 -6t6 -14q0 -17 -46.5 -50t-87.5 -33q-74 0 -124 77v-34q0 -27 -20 -27t-20 27v25q-56 -68 -120 -68t-106 42t-42 106q0 54 53.5 89.5t129.5 35.5q41 0 85 -12v60q0 35 -25.5 60t-62.5 25q-36 0 -67 -16t-35 -16q-7 0 -13 6.5t-6 13.5zM280 110v93 q-44 13 -79 13q-32 0 -69 -12t-54 -28q-21 -21 -21 -55q0 -42 29.5 -69t75.5 -27q51 0 118 85zM535 240q-4 29 -8 48.5t-15 46t-32 41t-51 14.5q-89 0 -109 -150h215z" />
<glyph unicode="&#x1fe;" d="M371 753l-114 -100q-12 -9 -19 -9q-8 0 -14 6t-6 15q0 8 12 19l114 100q12 9 19 9q8 0 14 -6t6 -15q0 -8 -12 -19zM141 51l-65 -82q-9 -12 -18 -12q-8 0 -13 5.5t-5 12.5q0 6 8 16l69 87q-66 88 -66 202q0 124 72.5 210t176.5 86q86 0 158 -66l66 83q9 12 18 12 q8 0 13 -5.5t5 -12.5q0 -5 -8 -16l-70 -88q67 -83 67 -203q0 -124 -72.5 -210t-176.5 -86q-90 0 -159 67zM144 112l288 364q-59 59 -132 59q-86 0 -147 -75t-61 -180q0 -91 52 -168zM456 449l-289 -365q59 -59 133 -59q86 0 147 75t61 180q0 94 -52 169z" />
<glyph unicode="&#x1ff;" d="M369 607l-114 -100q-12 -9 -19 -9q-8 0 -14 6t-6 15q0 8 12 19l114 100q12 9 19 9q8 0 14 -6t6 -15q0 -8 -12 -19zM154 35l-66 -68q-10 -10 -17 -10t-12.5 5.5t-5.5 12.5t10 17l66 67q-57 66 -57 149q0 93 66.5 158t161.5 65q82 0 144 -49l64 66q11 10 18 10t12 -5.5 t5 -12.5t-10 -17l-64 -65q59 -65 59 -151q0 -93 -66.5 -158t-161.5 -65q-80 0 -146 51zM441 329l-258 -264q51 -40 117 -40q78 0 132.5 53t54.5 129q0 68 -46 122zM158 89l257 263q-50 38 -115 38q-78 0 -132.5 -53t-54.5 -129q0 -68 45 -119z" />
<glyph unicode="&#x200;" d="M269 731q-12 12 -12 19q0 9 6 15t14 6q9 0 18 -9l98 -94q12 -11 12 -19q0 -9 -6 -15t-14 -6t-19 9zM127 731q-12 11 -12 19q0 9 6 15t14 6q9 0 19 -9l98 -94q12 -12 12 -19q0 -9 -6 -15t-14 -6q-9 0 -19 9zM428 188h-266l-54 -147h79q27 0 27 -20q0 -21 -27 -21h-151 q-27 0 -27 21q0 20 27 20h31l179 481h-120q-27 0 -27 21q0 20 27 20h204l197 -522h37q27 0 27 -20q0 -21 -27 -21h-156q-27 0 -27 21q0 20 27 20h76zM413 229l-112 293h-15l-108 -293h235z" />
<glyph unicode="&#x201;" d="M304 607q-12 12 -12 19q0 9 6 15t14 6q9 0 18 -9l98 -94q12 -11 12 -19q0 -9 -6 -15t-14 -6t-19 9zM162 607q-12 11 -12 19q0 9 6 15t14 6t19 -9l98 -94q12 -12 12 -19q0 -9 -6 -15t-14 -6q-9 0 -19 9zM125 378q0 22 68 37.5t106 15.5q70 0 115.5 -35t45.5 -88v-267h54 q27 0 27 -20q0 -21 -27 -21h-95v67q-89 -83 -191 -83q-70 0 -113 35.5t-43 92.5q0 65 58.5 105.5t152.5 40.5q59 0 136 -21v71q0 37 -34 59.5t-89 22.5q-46 0 -95 -16t-57 -16t-13.5 6t-5.5 14zM419 112v90q-60 15 -128 15q-79 0 -128.5 -29.5t-49.5 -76.5q0 -39 31 -62.5 t83 -23.5q53 0 97.5 20t94.5 67z" />
<glyph unicode="&#x202;" d="M389 571q-17 0 -20 22q-2 29 -32 48t-72 19t-71.5 -19t-32.5 -48q-3 -22 -21 -22q-8 0 -14 6.5t-6 16.5q0 45 42 76t103 31t103 -31t42 -76q0 -23 -21 -23zM428 188h-266l-54 -147h79q27 0 27 -20q0 -21 -27 -21h-151q-27 0 -27 21q0 20 27 20h31l179 481h-120 q-27 0 -27 21q0 20 27 20h204l197 -522h37q27 0 27 -20q0 -21 -27 -21h-156q-27 0 -27 21q0 20 27 20h76zM413 229l-112 293h-15l-108 -293h235z" />
<glyph unicode="&#x203;" d="M423 468q-17 0 -20 22q-2 29 -32 48t-72 19t-71.5 -19t-32.5 -48q-3 -22 -21 -22q-8 0 -14 6.5t-6 16.5q0 45 42 76t103 31t103 -31t42 -76q0 -23 -21 -23zM125 378q0 22 68 37.5t106 15.5q70 0 115.5 -35t45.5 -88v-267h54q27 0 27 -20q0 -21 -27 -21h-95v67 q-89 -83 -191 -83q-70 0 -113 35.5t-43 92.5q0 65 58.5 105.5t152.5 40.5q59 0 136 -21v71q0 37 -34 59.5t-89 22.5q-46 0 -95 -16t-57 -16t-13.5 6t-5.5 14zM419 112v90q-60 15 -128 15q-79 0 -128.5 -29.5t-49.5 -76.5q0 -39 31 -62.5t83 -23.5q53 0 97.5 20t94.5 67z" />
<glyph unicode="&#x204;" d="M239 729q-12 12 -12 19q0 9 6 15t14 6q9 0 18 -9l98 -94q12 -11 12 -19q0 -9 -6 -15t-14 -6q-9 0 -19 9zM97 729q-12 11 -12 19q0 9 6 15t14 6q9 0 19 -9l98 -94q12 -12 12 -19q0 -9 -6 -15t-14 -6t-19 9zM165 272v-231h314v119q0 27 21 27q20 0 20 -27v-160h-450 q-27 0 -27 21q0 20 27 20h54v481h-54q-27 0 -27 21q0 20 27 20h429v-139q0 -27 -21 -27q-20 0 -20 27v98h-293v-209h145v45q0 27 21 27q20 0 20 -27v-131q0 -27 -20 -27q-21 0 -21 27v45h-145z" />
<glyph unicode="&#x205;" d="M245 594q-12 12 -12 19q0 9 6 15t14 6q9 0 18 -9l98 -94q12 -11 12 -19q0 -9 -6 -15t-14 -6q-9 0 -19 9zM103 594q-12 11 -12 19q0 9 6 15t14 6t19 -9l98 -94q12 -12 12 -19q0 -9 -6 -15t-14 -6t-19 9zM520 199h-416q11 -79 66 -126.5t136 -47.5q47 0 96 15t79 39 q10 7 16 7q8 0 13.5 -6t5.5 -14q0 -26 -71.5 -54t-139.5 -28q-101 0 -171.5 68t-70.5 165q0 91 66 152.5t162 61.5q101 0 165 -63.5t64 -168.5zM104 240h374q-12 68 -63 109t-124 41t-123 -40.5t-64 -109.5z" />
<glyph unicode="&#x206;" d="M412 571q-17 0 -20 22q-2 29 -32 48t-72 19t-71.5 -19t-32.5 -48q-3 -22 -21 -22q-8 0 -14 6.5t-6 16.5q0 45 42 76t103 31t103 -31t42 -76q0 -23 -21 -23zM165 272v-231h314v119q0 27 21 27q20 0 20 -27v-160h-450q-27 0 -27 21q0 20 27 20h54v481h-54q-27 0 -27 21 q0 20 27 20h429v-139q0 -27 -21 -27q-20 0 -20 27v98h-293v-209h145v45q0 27 21 27q20 0 20 -27v-131q0 -27 -20 -27q-21 0 -21 27v45h-145z" />
<glyph unicode="&#x207;" d="M419 455q-17 0 -20 22q-2 29 -32 48t-72 19t-71.5 -19t-32.5 -48q-3 -22 -21 -22q-8 0 -14 6.5t-6 16.5q0 45 42 76t103 31t103 -31t42 -76q0 -23 -21 -23zM520 199h-416q11 -79 66 -126.5t136 -47.5q47 0 96 15t79 39q10 7 16 7q8 0 13.5 -6t5.5 -14q0 -26 -71.5 -54 t-139.5 -28q-101 0 -171.5 68t-70.5 165q0 91 66 152.5t162 61.5q101 0 165 -63.5t64 -168.5zM104 240h374q-12 68 -63 109t-124 41t-123 -40.5t-64 -109.5z" />
<glyph unicode="&#x208;" d="M254 729q-12 12 -12 19q0 9 6 15t14 6q9 0 18 -9l98 -94q12 -11 12 -19q0 -9 -6 -15t-14 -6t-19 9zM112 729q-12 11 -12 19q0 9 6 15t14 6t19 -9l98 -94q12 -12 12 -19q0 -9 -6 -15t-14 -6q-9 0 -19 9zM320 522v-481h139q28 0 28 -20q0 -21 -28 -21h-319q-27 0 -27 21 q0 20 27 20h139v481h-139q-27 0 -27 21q0 20 27 20h319q28 0 28 -20q0 -21 -28 -21h-139z" />
<glyph unicode="&#x209;" d="M253 594q-12 12 -12 19q0 9 6 15t14 6q9 0 18 -9l98 -94q12 -11 12 -19q0 -9 -6 -15t-14 -6q-9 0 -19 9zM111 594q-12 11 -12 19q0 9 6 15t14 6q9 0 19 -9l98 -94q12 -12 12 -19q0 -9 -6 -15t-14 -6t-19 9zM320 417v-376h160q28 0 28 -20q0 -21 -28 -21h-361 q-27 0 -27 21q0 20 27 20h160v335h-118q-27 0 -27 21q0 20 27 20h159z" />
<glyph unicode="&#x20a;" d="M428 571q-17 0 -20 22q-2 29 -32 48t-72 19t-71.5 -19t-32.5 -48q-3 -22 -21 -22q-8 0 -14 6.5t-6 16.5q0 45 42 76t103 31t103 -31t42 -76q0 -23 -21 -23zM320 522v-481h139q28 0 28 -20q0 -21 -28 -21h-319q-27 0 -27 21q0 20 27 20h139v481h-139q-27 0 -27 21 q0 20 27 20h319q28 0 28 -20q0 -21 -28 -21h-139z" />
<glyph unicode="&#x20b;" d="M427 455q-17 0 -20 22q-2 29 -32 48t-72 19t-71.5 -19t-32.5 -48q-3 -22 -21 -22q-8 0 -14 6.5t-6 16.5q0 45 42 76t103 31t103 -31t42 -76q0 -23 -21 -23zM320 417v-376h160q28 0 28 -20q0 -21 -28 -21h-361q-27 0 -27 21q0 20 27 20h160v335h-118q-27 0 -27 21 q0 20 27 20h159z" />
<glyph unicode="&#x20c;" d="M255 731q-12 12 -12 19q0 9 6 15t14 6q9 0 18 -9l98 -94q12 -11 12 -19q0 -9 -6 -15t-14 -6t-19 9zM113 731q-12 11 -12 19q0 9 6 15t14 6q9 0 19 -9l98 -94q12 -12 12 -19q0 -9 -6 -15t-14 -6t-19 9zM300 576q106 0 177.5 -86.5t71.5 -213.5q0 -121 -73 -206.5 t-176 -85.5q-104 0 -176.5 86t-72.5 210t72.5 210t176.5 86zM300 535q-86 0 -147 -75t-61 -180t61 -180t147 -75q85 0 146.5 74.5t61.5 177.5q0 108 -60.5 183t-147.5 75z" />
<glyph unicode="&#x20d;" d="M255 594q-12 12 -12 19q0 9 6 15t14 6q9 0 18 -9l98 -94q12 -11 12 -19q0 -9 -6 -15t-14 -6t-19 9zM113 594q-12 11 -12 19q0 9 6 15t14 6q9 0 19 -9l98 -94q12 -12 12 -19q0 -9 -6 -15t-14 -6t-19 9zM300 431q96 0 162 -65.5t66 -160.5q0 -92 -67 -156.5t-161 -64.5 q-95 0 -161.5 65t-66.5 159q0 92 66.5 157.5t161.5 65.5zM300 390q-78 0 -132.5 -53t-54.5 -129t54.5 -129.5t132.5 -53.5q77 0 132 53t55 127q0 79 -54 132t-133 53z" />
<glyph unicode="&#x20e;" d="M428 573q-17 0 -20 22q-2 29 -32 48t-72 19t-71.5 -19t-32.5 -48q-3 -22 -21 -22q-8 0 -14 6.5t-6 16.5q0 45 42 76t103 31t103 -31t42 -76q0 -23 -21 -23zM300 576q106 0 177.5 -86.5t71.5 -213.5q0 -121 -73 -206.5t-176 -85.5q-104 0 -176.5 86t-72.5 210t72.5 210 t176.5 86zM300 535q-86 0 -147 -75t-61 -180t61 -180t147 -75q85 0 146.5 74.5t61.5 177.5q0 108 -60.5 183t-147.5 75z" />
<glyph unicode="&#x20f;" d="M428 455q-17 0 -20 22q-2 29 -32 48t-72 19t-71.5 -19t-32.5 -48q-3 -22 -21 -22q-8 0 -14 6.5t-6 16.5q0 45 42 76t103 31t103 -31t42 -76q0 -23 -21 -23zM300 431q96 0 162 -65.5t66 -160.5q0 -92 -67 -156.5t-161 -64.5q-95 0 -161.5 65t-66.5 159q0 92 66.5 157.5 t161.5 65.5zM300 390q-78 0 -132.5 -53t-54.5 -129t54.5 -129.5t132.5 -53.5q77 0 132 53t55 127q0 79 -54 132t-133 53z" />
<glyph unicode="&#x210;" d="M190 729q-12 12 -12 19q0 9 6 15t14 6q9 0 18 -9l98 -94q12 -11 12 -19q0 -9 -6 -15t-14 -6t-19 9zM48 729q-12 11 -12 19q0 9 6 15t14 6t19 -9l98 -94q12 -12 12 -19q0 -9 -6 -15t-14 -6q-9 0 -19 9zM165 251v-210h75q27 0 27 -20q0 -21 -27 -21h-170q-27 0 -27 21 q0 20 27 20h54v481h-54q-27 0 -27 21q0 20 27 20h248q73 0 126.5 -46.5t53.5 -109.5q0 -97 -139 -145q47 -32 79 -73t93 -148h31q27 0 27 -20q0 -21 -27 -21h-57q-66 122 -108.5 173.5t-99.5 77.5h-132zM165 292h114q74 0 126 34t52 82q0 45 -42.5 79.5t-96.5 34.5h-153 v-230z" />
<glyph unicode="&#x211;" d="M267 594q-12 12 -12 19q0 9 6 15t14 6q9 0 18 -9l98 -94q12 -11 12 -19q0 -9 -6 -15t-14 -6q-9 0 -19 9zM125 594q-12 11 -12 19q0 9 6 15t14 6q9 0 19 -9l98 -94q12 -12 12 -19q0 -9 -6 -15t-14 -6t-19 9zM520 344q-5 0 -31 21t-51 21q-34 0 -70.5 -24t-119.5 -100v-221 h179q27 0 27 -21q0 -20 -27 -20h-316q-27 0 -27 21q0 20 27 20h96v335h-75q-27 0 -27 21q0 20 27 20h116v-102q69 63 112 87.5t81 24.5q40 0 70 -24t30 -38q0 -9 -6 -15t-15 -6z" />
<glyph unicode="&#x212;" d="M399 570q-17 0 -20 22q-2 29 -32 48t-72 19t-71.5 -19t-32.5 -48q-3 -22 -21 -22q-8 0 -14 6.5t-6 16.5q0 45 42 76t103 31t103 -31t42 -76q0 -23 -21 -23zM165 251v-210h75q27 0 27 -20q0 -21 -27 -21h-170q-27 0 -27 21q0 20 27 20h54v481h-54q-27 0 -27 21q0 20 27 20 h248q73 0 126.5 -46.5t53.5 -109.5q0 -97 -139 -145q47 -32 79 -73t93 -148h31q27 0 27 -20q0 -21 -27 -21h-57q-66 122 -108.5 173.5t-99.5 77.5h-132zM165 292h114q74 0 126 34t52 82q0 45 -42.5 79.5t-96.5 34.5h-153v-230z" />
<glyph unicode="&#x213;" d="M440 455q-17 0 -20 22q-2 29 -32 48t-72 19t-71.5 -19t-32.5 -48q-3 -22 -21 -22q-8 0 -14 6.5t-6 16.5q0 45 42 76t103 31t103 -31t42 -76q0 -23 -21 -23zM520 344q-5 0 -31 21t-51 21q-34 0 -70.5 -24t-119.5 -100v-221h179q27 0 27 -21q0 -20 -27 -20h-316 q-27 0 -27 21q0 20 27 20h96v335h-75q-27 0 -27 21q0 20 27 20h116v-102q69 63 112 87.5t81 24.5q40 0 70 -24t30 -38q0 -9 -6 -15t-15 -6z" />
<glyph unicode="&#x214;" d="M255 732q-12 12 -12 19q0 9 6 15t14 6q9 0 18 -9l98 -94q12 -11 12 -19q0 -9 -6 -15t-14 -6t-19 9zM113 732q-12 11 -12 19q0 9 6 15t14 6q9 0 19 -9l98 -94q12 -12 12 -19q0 -9 -6 -15t-14 -6t-19 9zM499 522v-337q0 -85 -57.5 -143t-141.5 -58q-85 0 -142 57.5 t-57 143.5v337h-34q-27 0 -27 21q0 20 27 20h149q27 0 27 -20q0 -21 -27 -21h-74v-337q0 -68 45.5 -114t112.5 -46q66 0 112 46.5t46 113.5v337h-74q-27 0 -27 21q0 20 27 20h149q27 0 27 -20q0 -21 -27 -21h-34z" />
<glyph unicode="&#x215;" d="M229 594q-12 12 -12 19q0 9 6 15t14 6q9 0 18 -9l98 -94q12 -11 12 -19q0 -9 -6 -15t-14 -6q-9 0 -19 9zM87 594q-12 11 -12 19q0 9 6 15t14 6q9 0 19 -9l98 -94q12 -12 12 -19q0 -9 -6 -15t-14 -6t-19 9zM439 0v66q-84 -82 -182 -82q-60 0 -96.5 36t-36.5 95v261h-54 q-27 0 -27 21q0 20 27 20h95v-302q0 -38 26.5 -64t64.5 -26q100 0 183 90v261h-74q-28 0 -28 21q0 20 28 20h115v-376h34q27 0 27 -20q0 -21 -27 -21h-75z" />
<glyph unicode="&#x216;" d="M430 573q-17 0 -20 22q-2 29 -32 48t-72 19t-71.5 -19t-32.5 -48q-3 -22 -21 -22q-8 0 -14 6.5t-6 16.5q0 45 42 76t103 31t103 -31t42 -76q0 -23 -21 -23zM499 522v-337q0 -85 -57.5 -143t-141.5 -58q-85 0 -142 57.5t-57 143.5v337h-34q-27 0 -27 21q0 20 27 20h149 q27 0 27 -20q0 -21 -27 -21h-74v-337q0 -68 45.5 -114t112.5 -46q66 0 112 46.5t46 113.5v337h-74q-27 0 -27 21q0 20 27 20h149q27 0 27 -20q0 -21 -27 -21h-34z" />
<glyph unicode="&#x217;" d="M403 455q-17 0 -20 22q-2 29 -32 48t-72 19t-71.5 -19t-32.5 -48q-3 -22 -21 -22q-8 0 -14 6.5t-6 16.5q0 45 42 76t103 31t103 -31t42 -76q0 -23 -21 -23zM439 0v66q-84 -82 -182 -82q-60 0 -96.5 36t-36.5 95v261h-54q-27 0 -27 21q0 20 27 20h95v-302q0 -38 26.5 -64 t64.5 -26q100 0 183 90v261h-74q-28 0 -28 21q0 20 28 20h115v-376h34q27 0 27 -20q0 -21 -27 -21h-75z" />
<glyph unicode="&#x218;" d="M464 153q0 42 -26 68t-64.5 34.5t-84 19t-84 22t-64.5 43t-26 81.5q0 66 52.5 110.5t131.5 44.5q86 0 146 -59v19q0 27 21 27q20 0 20 -27v-103q0 -27 -20 -27t-21 24q-3 45 -44 75t-99 30q-62 0 -102.5 -33t-40.5 -82q0 -39 26 -63t64.5 -32.5t84 -20t84 -23.5 t64.5 -45.5t26 -84.5q0 -73 -58 -120t-148 -47q-106 0 -169 72v-29q0 -27 -21 -27q-20 0 -20 27v112q0 27 21 27q19 0 20 -24q2 -49 51 -83t117 -34q70 0 116.5 36.5t46.5 91.5zM263 -52h68l-74 -135q-7 -13 -16 -13q-6 0 -10.5 4.5t-4.5 10.5q0 1 1 5z" />
<glyph unicode="&#x219;" d="M263 -52h68l-74 -135q-7 -13 -16 -13q-6 0 -10.5 4.5t-4.5 10.5q0 1 1 5zM452 117q0 37 -34 57t-82 27t-96 15t-82 33t-34 69q0 49 48.5 81t122.5 32q85 0 137 -46v4q0 28 21 28q20 0 20 -28v-69q0 -27 -20 -27q-18 0 -21 23q-4 34 -40 54t-93 20q-56 0 -93 -21.5 t-37 -53.5q0 -30 34 -46t82 -22.5t96 -16t82 -38t34 -76.5q0 -57 -55.5 -94.5t-140.5 -37.5q-96 0 -157 54v-11q0 -27 -20 -27q-21 0 -21 27v83q0 27 21 27q20 0 20 -22v-7q0 -34 45 -58.5t109 -24.5q66 0 110 26t44 66z" />
<glyph unicode="&#x21a;" d="M321 41h105q27 0 27 -20q0 -21 -27 -21h-251q-27 0 -27 21q0 20 27 20h105v481h-167v-73q0 -27 -21 -27q-20 0 -20 27v114h456v-114q0 -27 -20 -27q-9 0 -15 7.5t-6 19.5v73h-166v-481zM263 -52h68l-74 -135q-7 -13 -16 -13q-6 0 -10.5 4.5t-4.5 10.5q0 1 1 5z" />
<glyph unicode="&#x21b;" d="M186 417h220q27 0 27 -20q0 -21 -27 -21h-220v-267q0 -38 30 -61t82 -23q42 0 89.5 11.5t76.5 28.5q10 6 16 6q7 0 13 -6t6 -14q0 -22 -67.5 -44.5t-131.5 -22.5q-71 0 -113 33.5t-42 89.5v269h-74q-28 0 -28 21q0 20 28 20h74v119q0 27 21 27q20 0 20 -27v-119zM263 -52 h68l-74 -135q-7 -13 -16 -13q-6 0 -10.5 4.5t-4.5 10.5q0 1 1 5z" />
<glyph unicode="&#x21c;" d="M272 215q-3 0 -7 1.5t-8 6t-4 12.5q0 12 9 17l141 92q39 25 39 76q0 49 -40.5 82t-102.5 33q-58 0 -99 -30t-44 -75q-2 -24 -21 -24q-20 0 -20 27v103q0 27 20 27q21 0 21 -27v-19q60 59 146 59q79 0 131.5 -44.5t52.5 -110.5q0 -70 -52 -104l-27 -18q44 -12 73.5 -41 t29.5 -76q0 -80 -57 -125t-154 -57l-165 -20h-2q-20 0 -20 21q0 17 18 19l163 20q91 11 134 45t43 97q0 37 -35 60t-79 23l-70 -45q-8 -5 -14 -5z" />
<glyph unicode="&#x21d;" d="M216 129q-10 0 -14.5 7t-4.5 13q0 12 13 19l186 102q32 18 32 45q0 32 -37 53.5t-93 21.5q-57 0 -93 -20t-40 -54q-3 -23 -21 -23q-20 0 -20 27v69q0 28 20 28q21 0 21 -28v-4q52 46 137 46q74 0 122.5 -32t48.5 -81q0 -23 -13 -45.5t-33 -33.5l-10 -6q77 -33 77 -107 q0 -28 -8.5 -49.5t-28.5 -40t-35.5 -28.5t-47.5 -29q-8 -5 -12 -7l-148 -86q-3 -2 -9 -2q-21 0 -21 19q0 13 10 19l148 86q37 22 50 30t32 23.5t24.5 30t5.5 34.5q0 35 -16 48.5t-69 32.5l-135 -73q-8 -5 -18 -5z" />
<glyph unicode="&#x21e;" d="M302 603l-132 109q-13 9 -13 20q0 8 6 14t14 6q7 0 18 -8l107 -88l107 88q11 8 18 8t13.5 -6t6.5 -14q0 -10 -13 -21zM437 272h-270v-231h54q27 0 27 -20q0 -21 -27 -21h-140q-28 0 -28 21q0 20 28 20h45v481h-25q-27 0 -27 21q0 20 27 20h120q27 0 27 -20q0 -21 -27 -21 h-54v-209h270v209h-54q-27 0 -27 21q0 20 27 20h120q27 0 27 -20q0 -21 -27 -21h-25v-481h46q27 0 27 -20q0 -21 -27 -21h-141q-27 0 -27 21q0 20 27 20h54v231z" />
<glyph unicode="&#x21f;" d="M297 628l-132 109q-13 9 -13 20q0 8 6 14t14 6q7 0 18 -8l107 -88l107 88q11 8 18 8q8 0 14 -6.5t6 -13.5q0 -10 -13 -21zM437 288q0 45 -34 73.5t-89 28.5q-42 0 -69.5 -16.5t-68.5 -64.5l-11 -13v-255h45q28 0 28 -20q0 -21 -28 -21h-132q-27 0 -27 21q0 20 27 20h46 v522h-54q-27 0 -27 21q0 20 27 20h95v-257q38 46 73 65t81 19q70 0 114.5 -39.5t44.5 -100.5v-250h45q28 0 28 -20q0 -21 -28 -21h-131q-27 0 -27 21q0 20 27 20h45v247z" />
<glyph unicode="&#x220;" d="M498 -145h45q27 0 27 -20q0 -21 -27 -21h-131q-28 0 -28 21q0 20 28 20h45v444q0 113 -40 175t-101 62q-97 0 -172 -96v-399h45q27 0 27 -20q0 -21 -27 -21h-131q-28 0 -28 21q0 20 28 20h45v481h-34q-27 0 -27 21q0 20 27 20h75v-69q75 83 176 83q73 0 125.5 -69.5 t52.5 -201.5v-451z" />
<glyph unicode="&#x224;" d="M281 -145q3 0 26 -6.5t44 -6.5q46 0 75.5 32.5t29.5 83.5v42h-353v59l328 460v3h-269v-118q0 -28 -20 -28q-21 0 -21 28v159h349v-58l-328 -460v-4h314v141q0 27 20 27q21 0 21 -27v-230q0 -63 -43 -107t-104 -44q-25 0 -56 8t-31 26q0 8 5.5 14t12.5 6z" />
<glyph unicode="&#x225;" d="M273 -145q3 0 26 -6.5t44 -6.5q46 0 75.5 32.5t29.5 83.5v42h-333v36l301 340h-251v-55q0 -27 -20 -27q-21 0 -21 27v96h350v-36l-303 -340h277v56q0 27 21 27q20 0 20 -27v-145q0 -63 -43 -107t-104 -44q-25 0 -56 8t-31 26q0 8 5.5 14t12.5 6z" />
<glyph unicode="&#x226;" d="M295 706q21 0 35.5 -15t14.5 -36q0 -20 -15 -34.5t-35 -14.5t-35 15t-15 35t15 35t35 15zM428 188h-266l-54 -147h79q27 0 27 -20q0 -21 -27 -21h-151q-27 0 -27 21q0 20 27 20h31l179 481h-120q-27 0 -27 21q0 20 27 20h204l197 -522h37q27 0 27 -20q0 -21 -27 -21h-156 q-27 0 -27 21q0 20 27 20h76zM413 229l-112 293h-15l-108 -293h235z" />
<glyph unicode="&#x227;" d="M299 591q21 0 35.5 -15t14.5 -36q0 -20 -15 -34.5t-35 -14.5t-35 15t-15 35t15 35t35 15zM125 378q0 22 68 37.5t106 15.5q70 0 115.5 -35t45.5 -88v-267h54q27 0 27 -20q0 -21 -27 -21h-95v67q-89 -83 -191 -83q-70 0 -113 35.5t-43 92.5q0 65 58.5 105.5t152.5 40.5 q59 0 136 -21v71q0 37 -34 59.5t-89 22.5q-46 0 -95 -16t-57 -16t-13.5 6t-5.5 14zM419 112v90q-60 15 -128 15q-79 0 -128.5 -29.5t-49.5 -76.5q0 -39 31 -62.5t83 -23.5q53 0 97.5 20t94.5 67z" />
<glyph unicode="&#x228;" d="M218 -114q4 0 26 -10.5t40 -10.5q19 0 31.5 8t12.5 21q0 25 -46 25h-20v81h-192q-27 0 -27 21q0 20 27 20h54v481h-54q-27 0 -27 21q0 20 27 20h429v-139q0 -27 -21 -27q-20 0 -20 27v98h-293v-209h145v45q0 27 21 27q20 0 20 -27v-131q0 -27 -20 -27q-21 0 -21 27v45 h-145v-231h314v119q0 27 21 27q20 0 20 -27v-160h-220v-47q65 -2 65 -61q0 -29 -22 -47t-57 -18q-26 0 -57 11.5t-31 28.5q0 8 6 13.5t14 5.5z" />
<glyph unicode="&#x229;" d="M104 240h374q-12 68 -63 109t-124 41t-123 -40.5t-64 -109.5zM272 -15q-90 10 -149.5 75.5t-59.5 156.5t66 152.5t162 61.5q101 0 165 -63.5t64 -168.5h-416q11 -79 66 -126.5t136 -47.5q47 0 96 15t79 39q10 7 16 7q8 0 13.5 -6t5.5 -14q0 -26 -69 -53t-137 -28v-47 q65 -2 65 -61q0 -29 -22 -47t-57 -18q-26 0 -57 11.5t-31 28.5q0 8 6 13.5t14 5.5q4 0 26 -10.5t40 -10.5q19 0 31.5 8t12.5 21q0 25 -46 25h-20v81z" />
<glyph unicode="&#x22a;" d="M418 760h-236q-27 0 -27 20t27 20h236q27 0 27 -20t-27 -20zM190 707q21 0 35.5 -15t14.5 -36q0 -20 -15 -34.5t-35 -14.5t-35 15t-15 35t15 35t35 15zM411 707q21 0 35.5 -15t14.5 -36q0 -20 -15 -34.5t-35 -14.5t-35 15t-15 35t15 35t35 15zM300 576q106 0 177.5 -86.5 t71.5 -213.5q0 -121 -73 -206.5t-176 -85.5q-104 0 -176.5 86t-72.5 210t72.5 210t176.5 86zM300 535q-86 0 -147 -75t-61 -180t61 -180t147 -75q85 0 146.5 74.5t61.5 177.5q0 108 -60.5 183t-147.5 75z" />
<glyph unicode="&#x22b;" d="M418 644h-236q-27 0 -27 20t27 20h236q27 0 27 -20t-27 -20zM190 591q21 0 35.5 -15t14.5 -36q0 -20 -15 -34.5t-35 -14.5t-35 15t-15 35t15 35t35 15zM411 591q21 0 35.5 -15t14.5 -36q0 -20 -15 -34.5t-35 -14.5t-35 15t-15 35t15 35t35 15zM300 431q96 0 162 -65.5 t66 -160.5q0 -92 -67 -156.5t-161 -64.5q-95 0 -161.5 65t-66.5 159q0 92 66.5 157.5t161.5 65.5zM300 390q-78 0 -132.5 -53t-54.5 -129t54.5 -129.5t132.5 -53.5q77 0 132 53t55 127q0 79 -54 132t-133 53z" />
<glyph unicode="&#x22c;" d="M418 760h-236q-27 0 -27 20t27 20h236q27 0 27 -20t-27 -20zM362 655q18 0 42 23t31 23q8 0 14 -6t6 -14q0 -15 -31.5 -41t-59.5 -26q-26 0 -69 24t-55 24q-25 0 -44 -22.5t-31 -22.5q-8 0 -14 5.5t-6 13.5q0 18 32.5 42.5t61.5 24.5q23 0 66.5 -24t56.5 -24zM300 576 q106 0 177.5 -86.5t71.5 -213.5q0 -121 -73 -206.5t-176 -85.5q-104 0 -176.5 86t-72.5 210t72.5 210t176.5 86zM300 535q-86 0 -147 -75t-61 -180t61 -180t147 -75q85 0 146.5 74.5t61.5 177.5q0 108 -60.5 183t-147.5 75z" />
<glyph unicode="&#x22d;" d="M418 644h-236q-27 0 -27 20t27 20h236q27 0 27 -20t-27 -20zM362 532q18 0 42 23t31 23q8 0 14 -6t6 -14q0 -15 -31.5 -41t-59.5 -26q-26 0 -69 24t-55 24q-25 0 -44 -22.5t-31 -22.5q-8 0 -14 5.5t-6 13.5q0 18 32.5 42.5t61.5 24.5q23 0 66.5 -24t56.5 -24zM300 431 q96 0 162 -65.5t66 -160.5q0 -92 -67 -156.5t-161 -64.5q-95 0 -161.5 65t-66.5 159q0 92 66.5 157.5t161.5 65.5zM300 390q-78 0 -132.5 -53t-54.5 -129t54.5 -129.5t132.5 -53.5q77 0 132 53t55 127q0 79 -54 132t-133 53z" />
<glyph unicode="&#x22e;" d="M300 712q21 0 35.5 -15t14.5 -36q0 -20 -15 -34.5t-35 -14.5t-35 15t-15 35t15 35t35 15zM300 576q106 0 177.5 -86.5t71.5 -213.5q0 -121 -73 -206.5t-176 -85.5q-104 0 -176.5 86t-72.5 210t72.5 210t176.5 86zM300 535q-86 0 -147 -75t-61 -180t61 -180t147 -75 q85 0 146.5 74.5t61.5 177.5q0 108 -60.5 183t-147.5 75z" />
<glyph unicode="&#x22f;" d="M300 589q21 0 35.5 -15t14.5 -36q0 -20 -15 -34.5t-35 -14.5t-35 15t-15 35t15 35t35 15zM300 431q96 0 162 -65.5t66 -160.5q0 -92 -67 -156.5t-161 -64.5q-95 0 -161.5 65t-66.5 159q0 92 66.5 157.5t161.5 65.5zM300 390q-78 0 -132.5 -53t-54.5 -129t54.5 -129.5 t132.5 -53.5q77 0 132 53t55 127q0 79 -54 132t-133 53z" />
<glyph unicode="&#x230;" d="M418 760h-236q-27 0 -27 20t27 20h236q27 0 27 -20t-27 -20zM300 712q21 0 35.5 -15t14.5 -36q0 -20 -15 -34.5t-35 -14.5t-35 15t-15 35t15 35t35 15zM300 576q106 0 177.5 -86.5t71.5 -213.5q0 -121 -73 -206.5t-176 -85.5q-104 0 -176.5 86t-72.5 210t72.5 210 t176.5 86zM300 535q-86 0 -147 -75t-61 -180t61 -180t147 -75q85 0 146.5 74.5t61.5 177.5q0 108 -60.5 183t-147.5 75z" />
<glyph unicode="&#x231;" d="M418 653h-236q-27 0 -27 20t27 20h236q27 0 27 -20t-27 -20zM300 589q21 0 35.5 -15t14.5 -36q0 -20 -15 -34.5t-35 -14.5t-35 15t-15 35t15 35t35 15zM300 431q96 0 162 -65.5t66 -160.5q0 -92 -67 -156.5t-161 -64.5q-95 0 -161.5 65t-66.5 159q0 92 66.5 157.5 t161.5 65.5zM300 390q-78 0 -132.5 -53t-54.5 -129t54.5 -129.5t132.5 -53.5q77 0 132 53t55 127q0 79 -54 132t-133 53z" />
<glyph unicode="&#x232;" d="M418 624h-236q-27 0 -27 20t27 20h236q27 0 27 -20t-27 -20zM322 254v-213h105q27 0 27 -20q0 -21 -27 -21h-251q-27 0 -27 21q0 20 27 20h105v213l-179 268h-24q-27 0 -27 21q0 20 27 20h111q27 0 27 -20q0 -21 -27 -21h-38l152 -227l149 227h-40q-28 0 -28 21 q0 20 28 20h110q27 0 27 -20q0 -21 -27 -21h-24z" />
<glyph unicode="&#x233;" d="M418 481h-236q-27 0 -27 20t27 20h236q27 0 27 -20t-27 -20zM282 0l-188 376h-16q-27 0 -27 21q0 20 27 20h115q27 0 27 -20q0 -21 -27 -21h-52l164 -331l161 331h-54q-27 0 -27 21q0 20 27 20h110q27 0 27 -20q0 -21 -27 -21h-14l-256 -521h65q27 0 27 -20 q0 -21 -27 -21h-233q-27 0 -27 21q0 20 27 20h127z" />
<glyph unicode="&#x237;" d="M417 376h-241q-27 0 -27 21q0 20 27 20h282v-445q0 -70 -43.5 -114t-111.5 -44h-129q-27 0 -27 21q0 20 27 20h128q50 0 82.5 33t32.5 84v404z" />
<glyph unicode="&#x250;" d="M488 39q0 -22 -68 -37.5t-106 -15.5q-70 0 -115.5 35t-45.5 88v267h-54q-27 0 -27 20q0 21 27 21h95v-67q89 83 191 83q70 0 113 -35.5t43 -92.5q0 -65 -58.5 -105.5t-152.5 -40.5q-59 0 -136 21v-71q0 -37 34 -59.5t89 -22.5q46 0 95 16t57 16t13.5 -6t5.5 -14zM194 305 v-90q60 -15 128 -15q79 0 128.5 29.5t49.5 76.5q0 39 -31 62.5t-83 23.5q-53 0 -97.5 -20t-94.5 -67z" />
<glyph unicode="&#x251;" d="M282 390q-74 0 -126 -53t-52 -129q0 -77 52 -130t127 -53q74 0 126 53t52 128q0 78 -51.5 131t-127.5 53zM461 385q0 27 20 27q21 0 21 -27v-344h54q27 0 27 -20q0 -21 -27 -21h-95v89q-71 -105 -182 -105q-89 0 -152.5 66t-63.5 158t63.5 157.5t152.5 65.5 q110 0 182 -104v58z" />
<glyph unicode="&#x252;" d="M332 27q74 0 126 53t52 129q0 77 -52 130t-127 53q-74 0 -126 -53t-52 -128q0 -78 51.5 -131t127.5 -53zM153 32q0 -27 -20 -27q-21 0 -21 27v344h-54q-27 0 -27 20q0 21 27 21h95v-89q71 105 182 105q89 0 152.5 -66t63.5 -158t-63.5 -157.5t-152.5 -65.5 q-110 0 -182 104v-58z" />
<glyph unicode="&#x253;" d="M144 208q0 -76 52 -129.5t126 -53.5q73 0 125.5 53t52.5 127q0 78 -51.5 131.5t-126.5 53.5q-74 0 -126 -53t-52 -129zM322 566q-2 0 -22.5 5.5t-41.5 5.5q-51 0 -82.5 -32t-31.5 -83v-134q73 103 180 103q91 0 154 -64t63 -157q0 -94 -63.5 -160t-153.5 -66 q-110 0 -180 104v-88h-95q-27 0 -27 21q0 20 27 20h54v421q0 65 43.5 110.5t107.5 45.5q25 0 56 -7.5t31 -24.5q0 -8 -5.5 -14t-13.5 -6z" />
<glyph unicode="&#x254;" d="M103 107q9 0 24 -13t32.5 -28t57 -28t91.5 -13q82 0 134 50.5t52 129.5q0 82 -51.5 133.5t-134.5 51.5q-63 0 -109.5 -27.5t-49.5 -67.5q-3 -24 -21 -24q-20 0 -20 27v91q0 28 20 28q21 0 21 -28v-13q63 55 156 55q100 0 165 -64t65 -163q0 -96 -63.5 -158t-161.5 -62 q-40 0 -77.5 9t-63.5 22t-46 27.5t-29.5 26.5t-9.5 19q0 8 6 13.5t13 5.5z" />
<glyph unicode="&#x255;" d="M328 -16q-69 0 -119.5 21t-76 56t-37 70t-11.5 73q0 99 65 163t165 64q93 0 156 -55v13q0 28 21 28q20 0 20 -28v-91q0 -27 -20 -27q-18 0 -21 24q-3 40 -49.5 67.5t-109.5 27.5q-83 0 -134.5 -51.5t-51.5 -133.5q0 -32 9.5 -61t31 -57t63 -45t99.5 -17v68 q0 51 27.5 82.5t75.5 31.5q50 0 78.5 -28.5t28.5 -74.5q0 -103 -169 -118v-98q0 -8 -6 -14t-15 -6q-8 0 -14 6t-6 14v96zM369 28q128 14 128 76t-66 62q-62 0 -62 -73v-65z" />
<glyph unicode="&#x256;" d="M282 390q-74 0 -126 -53t-52 -129q0 -77 52 -130t127 -53q74 0 126 53t52 128q0 78 -51.5 131t-127.5 53zM695 -165q0 -18 -31 -26t-56 -8q-61 0 -104 44t-43 107v137q-71 -105 -182 -105q-89 0 -152.5 66t-63.5 158t63.5 157.5t152.5 65.5q110 0 182 -104v236h-54 q-27 0 -27 21q0 20 27 20h95v-646q0 -51 29.5 -83.5t75.5 -32.5q21 0 44 6.5t26 6.5q7 0 12.5 -6t5.5 -14z" />
<glyph unicode="&#x257;" d="M461 206q0 78 -51.5 131t-127.5 53q-74 0 -126 -53t-52 -129q0 -77 52 -130t127 -53q74 0 126 53t52 128zM680 566q-2 0 -22.5 5.5t-41.5 5.5q-51 0 -82.5 -32t-31.5 -83v-421h54q27 0 27 -20q0 -21 -27 -21h-95v89q-71 -105 -182 -105q-89 0 -152.5 66t-63.5 158 t63.5 157.5t152.5 65.5q110 0 182 -104v135q0 65 43.5 110.5t107.5 45.5q25 0 56 -7.5t31 -24.5q0 -8 -5.5 -14t-13.5 -6z" />
<glyph unicode="&#x258;" d="M86 86q5 0 27 -15t65 -30.5t99 -15.5q81 0 136 47.5t66 126.5h-416q0 104 64.5 168t164.5 64q96 0 162 -61.5t66 -152.5q0 -97 -70.5 -165t-171.5 -68q-68 0 -139.5 28t-71.5 54q0 8 5.5 14t13.5 6zM479 240q-14 69 -64 109.5t-123 40.5t-124 -41t-63 -109h374z" />
<glyph unicode="&#x259;" d="M63 216h416q-11 79 -66 126.5t-136 47.5q-47 0 -96 -15t-79 -39q-10 -7 -16 -7q-8 0 -13.5 6t-5.5 14q0 26 71.5 54t139.5 28q101 0 171.5 -68t70.5 -165q0 -91 -66 -152.5t-162 -61.5q-101 0 -165 63.5t-64 168.5zM479 175h-374q12 -68 63 -109t124 -41t123 40.5 t64 109.5z" />
<glyph unicode="&#x25a;" d="M693 244q0 -13 -21 -23t-41 -10q-26 0 -49 13.5t-35 34.5l-23 41l-22 -12q18 -44 18 -90q0 -91 -66 -152.5t-162 -61.5q-72 0 -128.5 36t-83.5 98l366 188q-57 84 -169 84q-47 0 -96 -15t-79 -39q-10 -7 -16 -7q-8 0 -13.5 6t-5.5 14q0 26 71.5 54t139.5 28 q64 0 117.5 -28.5t86.5 -78.5l58 30l43 -74q15 -26 44 -26q9 0 25.5 3t22.5 3q18 0 18 -16zM465 270l-329 -170q54 -75 156 -75q82 0 134 50.5t52 123.5q0 36 -13 71z" />
<glyph unicode="&#x25b;" d="M148 117q0 -40 44 -66t110 -26q64 0 109 24.5t45 58.5v7q0 22 20 22q21 0 21 -27v-83q0 -27 -21 -27q-20 0 -20 27v11q-61 -54 -157 -54q-85 0 -140.5 37.5t-55.5 94.5q0 24 9.5 44t25 33t27 19.5t23.5 11.5v6l-15 9q-46 30 -46 79t48.5 81t122.5 32q85 0 137 -46v4 q0 28 21 28q20 0 20 -28v-69q0 -27 -20 -27q-18 0 -21 23q-4 34 -40 54t-93 20q-56 0 -93 -21.5t-37 -53.5q0 -27 34 -47.5t114 -20.5h48q27 0 27 -20q0 -21 -27 -21h-68q-45 0 -77.5 -11t-47.5 -27t-21 -29t-6 -22z" />
<glyph unicode="&#x25c;" d="M452 117q0 9 -6 22t-21 29t-47.5 27t-77.5 11h-68q-27 0 -27 21q0 20 27 20h48q80 0 114 20.5t34 47.5q0 32 -37 53.5t-93 21.5q-57 0 -93 -20t-40 -54q-3 -23 -21 -23q-20 0 -20 27v69q0 28 20 28q21 0 21 -28v-4q52 46 137 46q74 0 122.5 -32t48.5 -81t-46 -79l-15 -9 v-6q12 -5 23.5 -11.5t27 -19.5t25 -33t9.5 -44q0 -57 -55.5 -94.5t-140.5 -37.5q-96 0 -157 54v-11q0 -27 -20 -27q-21 0 -21 27v83q0 27 21 27q20 0 20 -22v-7q0 -34 45 -58.5t109 -24.5q66 0 110 26t44 66z" />
<glyph unicode="&#x25d;" d="M451 375l58 30l43 -74q15 -26 44 -26q9 0 25.5 3t22.5 3q18 0 18 -16q0 -13 -21 -23t-41 -10q-26 0 -49 13.5t-35 34.5l-23 41l-22 -12q0 -4 1 -11t1 -10q0 -51 -61 -88v-6q12 -5 23.5 -11.5t27 -19.5t25 -33t9.5 -44q0 -57 -55.5 -94.5t-140.5 -37.5q-96 0 -157 54v-11 q0 -27 -20 -27q-21 0 -21 27v83q0 27 21 27q20 0 20 -22v-7q0 -34 45 -58.5t109 -24.5q66 0 110 26t44 66q0 9 -6 22t-21 29t-47.5 27t-77.5 11h-68q-27 0 -27 21q0 20 27 20h48q80 0 114 20.5t34 47.5q0 32 -37 53.5t-93 21.5q-57 0 -93 -20t-40 -54q-3 -23 -21 -23 q-20 0 -20 27v69q0 28 20 28q21 0 21 -28v-4q52 46 137 46q47 0 87 -15.5t62 -40.5z" />
<glyph unicode="&#x25e;" d="M76 232q0 79 69 153q21 22 66 34t91 12q74 0 122.5 -32t48.5 -81q0 -51 -61 -88v-6q12 -5 23.5 -11.5t27 -19.5t25 -33t9.5 -44q0 -57 -55.5 -94.5t-140.5 -37.5q-21 0 -39.5 1.5t-32.5 4t-27 7t-22 8t-18.5 10t-14 10t-11.5 11t-9 10t-7 10t-6 8.5q-14 19 -26 64 t-12 104zM147 316q-21 -28 -21 -92q0 -79 22 -116q44 -83 150 -83q66 0 110 26t44 66q0 9 -6 22t-21 29t-47.5 27t-77.5 11h-68q-27 0 -27 21q0 20 27 20h48q80 0 114 20.5t34 47.5q0 32 -37 53.5t-93 21.5q-96 0 -151 -74z" />
<glyph unicode="&#x25f;" d="M417 41v335h-241q-27 0 -27 21q0 20 27 20h282v-376h59q27 0 27 -20q0 -21 -27 -21h-59v-28q0 -70 -43.5 -114t-111.5 -44h-129q-27 0 -27 21q0 20 27 20h128q50 0 82.5 33t32.5 84v28h-133q-27 0 -27 21q0 20 27 20h133z" />
<glyph unicode="&#x260;" d="M440 219q0 73 -48.5 122t-119.5 49q-70 0 -119 -49t-49 -120t49 -120.5t119 -49.5t119 49t49 119zM659 566q-2 0 -22.5 5.5t-41.5 5.5q-51 0 -82.5 -32t-31.5 -83v-490q0 -58 -43 -104q-51 -54 -122 -54h-114q-27 0 -27 21q0 20 27 20h116q51 0 86.5 36t35.5 87v129 q-66 -97 -171 -97q-85 0 -145.5 62t-60.5 149t60.5 148.5t145.5 61.5q106 0 171 -97v128q0 65 43.5 110.5t107.5 45.5q25 0 56 -7.5t31 -24.5q0 -8 -5.5 -14t-13.5 -6z" />
<glyph unicode="&#x261;" d="M272 390q-70 0 -119 -49t-49 -120t49 -120.5t119 -49.5t119 49t49 119q0 73 -48.5 122t-119.5 49zM440 334v83q0 27 20 27q21 0 21 -27v-445q0 -58 -43 -104q-51 -54 -122 -54h-114q-27 0 -27 21q0 20 27 20h116q51 0 86.5 36t35.5 87v129q-66 -97 -171 -97 q-85 0 -145.5 62t-60.5 149t60.5 148.5t145.5 61.5q106 0 171 -97z" />
<glyph unicode="&#x262;" d="M299 386q-83 0 -132 -43.5t-49 -108.5v-54q0 -74 51.5 -113t147.5 -39q59 0 121 24v92h-117q-11 0 -17.5 6.5t-6.5 14.5q0 20 24 20h170q25 0 25 -20q0 -8 -6.5 -14.5t-18.5 -6.5h-12v-118q-79 -38 -164 -38q-109 0 -173.5 52t-64.5 140v55q0 78 62 134.5t158 56.5 q84 0 143 -40v10q0 20 20 20q21 0 21 -20v-67q0 -20 -21 -20h-3.5h-3.5q-11 0 -12 11q-3 28 -43.5 47t-98.5 19z" />
<glyph unicode="&#x263;" d="M299 37h3l162 339h-50q-27 0 -27 21q0 20 27 20h111q27 0 27 -20q0 -21 -27 -21h-15l-187 -389q37 -74 37 -125v-4q0 -21 -15 -39.5t-43 -18.5h-2q-28 0 -44 18.5t-16 40.5v3q0 50 37 126l-182 388h-16q-27 0 -27 21q0 20 27 20h111q27 0 27 -20q0 -21 -27 -21h-49z M300 -60q-20 -45 -20 -78q4 -21 22 -22q14 0 18 22q0 33 -20 78z" />
<glyph unicode="&#x264;" d="M510 401q4 15 20 15q20 0 20 -27v-83q0 -27 -20 -27q-21 0 -21 27v26q-4 28 -16.5 36t-42.5 8q-69 0 -122 -47q72 -90 72 -229q0 -47 -26.5 -83.5t-73.5 -36.5t-73.5 36t-26.5 84q0 139 72 229q-52 47 -122 47q-28 0 -41.5 -8.5t-17.5 -32.5v-29q0 -27 -20 -27 q-21 0 -21 27v83q0 27 21 27q15 0 19 -15q27 15 60 15q86 0 150 -57q64 57 150 57q34 0 60 -15zM300 299q-60 -80 -60 -199q0 -34 17 -57t43 -23q27 0 43.5 23t16.5 57q0 119 -60 199z" />
<glyph unicode="&#x265;" d="M157 129q0 -45 34 -73.5t89 -28.5q42 0 69.5 16.5t68.5 64.5l11 13v255h-45q-28 0 -28 20q0 21 28 21h132q27 0 27 -21q0 -20 -27 -20h-46v-522h54q27 0 27 -21q0 -20 -27 -20h-95v257q-38 -46 -73 -65t-81 -19q-70 0 -114.5 39.5t-44.5 100.5v250h-45q-28 0 -28 20 q0 21 28 21h131q27 0 27 -21q0 -20 -27 -20h-45v-247z" />
<glyph unicode="&#x266;" d="M437 288q0 45 -34 73.5t-89 28.5q-42 0 -69.5 -16.5t-68.5 -64.5l-11 -13v-255h45q28 0 28 -20q0 -21 -28 -21h-132q-27 0 -27 21q0 20 27 20h46v421q0 65 43.5 110.5t107.5 45.5q25 0 56 -7.5t31 -24.5q0 -8 -5.5 -14t-13.5 -6q-2 0 -22.5 5.5t-41.5 5.5 q-51 0 -82.5 -32t-31.5 -83v-115q38 46 73 65t81 19q70 0 114.5 -39.5t44.5 -100.5v-250h45q28 0 28 -20q0 -21 -28 -21h-131q-27 0 -27 21q0 20 27 20h45v247z" />
<glyph unicode="&#x267;" d="M343 566q-2 0 -22.5 5.5t-41.5 5.5q-51 0 -82.5 -32t-31.5 -83v-115q38 46 73 65t81 19q70 0 114.5 -39.5t44.5 -100.5v-339q0 -63 -43 -107t-104 -44q-25 0 -56 8t-31 26q0 8 5.5 14t12.5 6q4 0 26 -6.5t44 -6.5q46 0 75.5 32.5t29.5 83.5v330q0 45 -34 73.5t-89 28.5 q-42 0 -69.5 -16.5t-68.5 -64.5l-11 -13v-255h45q28 0 28 -20q0 -21 -28 -21h-132q-27 0 -27 21q0 20 27 20h46v421q0 65 43.5 110.5t107.5 45.5q25 0 56 -7.5t31 -24.5q0 -8 -5.5 -14t-13.5 -6z" />
<glyph unicode="&#x268;" d="M318 624v-104h-59v104h59zM279 200h-160q-27 0 -27 21q0 20 27 20h160v135h-118q-27 0 -27 21q0 20 27 20h159v-176h160q28 0 28 -20q0 -21 -28 -21h-160v-159h160q28 0 28 -20q0 -21 -28 -21h-361q-27 0 -27 21q0 20 27 20h160v159z" />
<glyph unicode="&#x269;" d="M502 68q0 -9 -15 -26t-47.5 -33.5t-69.5 -16.5q-50 0 -79.5 35.5t-29.5 92.5v266h-61q-27 0 -27 20t27 20h102v-306q0 -87 68 -87q26 0 46.5 8.5t30.5 19t19.5 19t15.5 8.5q3 0 7.5 -1.5t8.5 -6.5t4 -12z" />
<glyph unicode="&#x26a;" d="M321 376v-335h119q12 0 18.5 -6t6.5 -14q0 -9 -6.5 -15t-18.5 -6h-281q-24 0 -24 21q0 8 6.5 14t17.5 6h121v335h-121q-11 0 -17.5 6.5t-6.5 14.5q0 20 24 20h281q25 0 25 -20q0 -8 -6.5 -14.5t-18.5 -6.5h-119z" />
<glyph unicode="&#x26b;" d="M92 249q0 17 38 58t82 41q31 0 67 -25v240h-117q-27 0 -27 21q0 20 27 20h158v-313q47 -38 66 -38q23 0 43.5 19.5t35.5 38.5t23 19t14 -5.5t6 -13.5q0 -19 -41 -59t-78 -40q-30 0 -69 27v-198h160q28 0 28 -20q0 -21 -28 -21h-361q-27 0 -27 21q0 20 27 20h160v231 q-42 35 -67 35q-19 0 -35 -12t-25 -26.5t-20 -26.5t-21 -12q-7 0 -13 6t-6 13z" />
<glyph unicode="&#x26c;" d="M225 440h9q26 0 45 -13v136h-117q-27 0 -27 21q0 20 27 20h158v-304h159q8 0 14 -6t6 -14t-6 -14t-14 -6h-159v-219h160q28 0 28 -20q0 -21 -28 -21h-361q-27 0 -27 21q0 20 27 20h160v219h-50q-39 0 -64.5 27t-25.5 61v6q0 37 25.5 61.5t60.5 24.5zM279 330 q0 41 -10.5 54.5t-39.5 15.5q-47 -3 -50 -50q1 -20 14 -35t36 -15h50v30z" />
<glyph unicode="&#x26d;" d="M513 -165q0 -18 -31 -26t-56 -8q-61 0 -104 44t-43 107v611h-117q-27 0 -27 21q0 20 27 20h158v-646q0 -51 29.5 -83.5t75.5 -32.5q21 0 44 6.5t26 6.5q7 0 12.5 -6t5.5 -14z" />
<glyph unicode="&#x26e;" d="M298 169q-19 0 -19 19q0 8 7 15l180 173h-236v-335h120q28 0 28 -20q0 -21 -28 -21h-301q-27 0 -27 21q0 20 27 20h140v522h-107q-27 0 -27 21q0 20 27 20h148v-187h309q28 0 28 -20q0 -21 -28 -21h-16l-134 -126h13q69 0 110.5 -57.5t41.5 -134.5q0 -85 -45 -150.5 t-119 -65.5q-34 0 -67.5 15t-50 28t-40.5 36q-7 7 -7 15q0 9 6.5 14.5t12.5 5.5q11 0 30.5 -18.5t49.5 -37t66 -18.5q50 0 87 53.5t37 122.5q0 62 -32.5 107t-79.5 45q-27 0 -44 -6.5t-23 -14t-15 -14t-22 -6.5z" />
<glyph unicode="&#x26f;" d="M492 0v52q-25 -36 -49 -51t-56 -15q-64 0 -97 71q-55 -71 -113 -71q-43 0 -74 32t-31 76v282h-34q-27 0 -27 20q0 21 27 21h74v-319q0 -28 20 -49.5t46 -21.5q50 0 104 82v267h-34q-27 0 -27 20q0 21 27 21h74v-316q0 -29 19.5 -51.5t45.5 -22.5q50 0 105 82v267h-34 q-27 0 -27 20q0 21 27 21h109q26 0 26 -21q0 -20 -27 -20h-34v-335h34q27 0 27 -21q0 -20 -27 -20h-74z" />
<glyph unicode="&#x270;" d="M492 -186v238q-25 -36 -49 -51t-56 -15q-64 0 -97 71q-55 -71 -113 -71q-43 0 -74 32t-31 76v282h-34q-27 0 -27 20q0 21 27 21h74v-319q0 -28 20 -49.5t46 -21.5q50 0 104 82v267h-34q-27 0 -27 20q0 21 27 21h74v-316q0 -29 19.5 -51.5t45.5 -22.5q50 0 105 82v267h-34 q-27 0 -27 20q0 21 27 21h109q26 0 26 -21q0 -20 -27 -20h-34v-521h34q27 0 27 -21q0 -20 -27 -20h-74z" />
<glyph unicode="&#x271;" d="M317 -145q3 0 26 -6.5t44 -6.5q46 0 75.5 32.5t29.5 83.5v361q0 28 -20 49.5t-46 21.5q-50 0 -104 -82v-267h34q27 0 27 -20q0 -21 -27 -21h-74v316q0 29 -19.5 51.5t-45.5 22.5q-50 0 -105 -82v-267h34q27 0 27 -20q0 -21 -27 -21h-109q-26 0 -26 21q0 20 27 20h34v335 h-34q-27 0 -27 21q0 20 27 20h74v-52q25 36 49 51t56 15q64 0 97 -71q55 71 113 71q43 0 74 -32t31 -76v-371q0 -63 -42.5 -107t-103.5 -44q-25 0 -56 8t-31 26q0 8 5.5 14t12.5 6z" />
<glyph unicode="&#x272;" d="M319 390q-18 0 -34.5 -3.5t-31 -11t-24.5 -14t-21.5 -18.5t-16 -17.5t-14 -18t-10.5 -13.5v-342q0 -63 -43 -107t-104 -44q-25 0 -56 8t-31 26q0 8 5.5 14t12.5 6q3 0 26 -6.5t44 -6.5q46 0 75.5 32.5t29.5 83.5v418h-34q-27 0 -27 21q0 20 27 20h75v-69q43 48 76 65.5 t80 17.5q67 0 112 -39t45 -97v-254h34q27 0 27 -20q0 -21 -27 -21h-109q-27 0 -27 21q0 20 27 20h34v247q0 43 -32.5 72.5t-87.5 29.5z" />
<glyph unicode="&#x273;" d="M319 390q-18 0 -34.5 -3.5t-31 -11t-24.5 -14t-21.5 -18.5t-16 -17.5t-14 -18t-10.5 -13.5v-253h45q27 0 27 -20q0 -21 -27 -21h-131q-28 0 -28 21q0 20 28 20h45v335h-34q-27 0 -27 21q0 20 27 20h75v-69q43 48 76 65.5t80 17.5q67 0 112 -39t45 -97v-337 q0 -51 29.5 -83.5t75.5 -32.5q21 0 44 6.5t26 6.5q7 0 12.5 -6t5.5 -14q0 -18 -31 -26t-56 -8q-61 0 -104 44t-43 107v336q0 43 -32.5 72.5t-87.5 29.5z" />
<glyph unicode="&#x274;" d="M479 0h-49l-266 363v-322h64q11 0 17.5 -6t6.5 -14q0 -9 -6.5 -15t-17.5 -6h-132q-24 0 -24 21q0 8 6.5 14t17.5 6h27v335h-45q-11 0 -17.5 6.5t-6.5 14.5q0 20 24 20h93l267 -363v322h-63q-12 0 -18.5 6.5t-6.5 14.5q0 20 25 20h131q24 0 24 -20q0 -8 -6.5 -14.5 t-17.5 -6.5h-27v-376z" />
<glyph unicode="&#x275;" d="M300 431q96 0 162 -65.5t66 -160.5q0 -92 -67 -156.5t-161 -64.5q-95 0 -161.5 65t-66.5 159q0 92 66.5 157.5t161.5 65.5zM486 228q-8 70 -60.5 116t-125.5 46q-72 0 -125 -46.5t-61 -115.5h372zM486 188h-372q8 -69 61 -116t125 -47t125.5 47t60.5 116z" />
<glyph unicode="&#x276;" d="M13 216v8q0 88 62 140.5t183 52.5h309v-154q0 -27 -20 -27q-21 0 -21 27v113h-185v-137h75v27q0 27 21 27q20 0 20 -27v-96q0 -27 -20 -27q-21 0 -21 27v28h-75v-157h205v92q0 27 20 27q21 0 21 -27v-133h-322q-114 0 -183 59.5t-69 156.5zM300 376h-36 q-117 -2 -163 -40.5t-48 -117.5q1 -83 56 -130t159 -47h32v335z" />
<glyph unicode="&#x277;" d="M307 424q-51 0 -98.5 -16t-69.5 -37q-58 -56 -58 -156q0 -55 14.5 -95.5t35.5 -59.5t38 -27.5t29 -8.5q9 0 20.5 4t25.5 12.5t24 28.5t10 48v138q0 18 24 18q7 0 12 -6t5 -12v-138q0 -49 27.5 -69.5t51.5 -20.5q55 0 85.5 60t30.5 131q0 54 -13.5 89.5t-45.5 68.5 q-17 18 -59 33t-89 15zM498 390q32 -38 43 -78t11 -100q0 -98 -42.5 -162t-113.5 -64q-42 0 -66 18.5t-32 38.5q-18 -30 -39 -44.5t-59 -14.5q-73 0 -115 67.5t-42 159.5q0 56 14.5 105t40.5 72q49 43 95.5 60t112.5 17q59 0 110.5 -19.5t81.5 -55.5z" />
<glyph unicode="&#x278;" d="M112 286q0 22 6.5 42.5t22 41.5t49.5 34t82 13h34v197h45v-197h53q63 0 102 -37t39 -96v-153q0 -23 -6.5 -43t-22 -41.5t-49.5 -34t-82 -12.5h-34v-200h-45v200h-53q-63 0 -102 37t-39 96v153zM157 133q0 -49 31.5 -71t68.5 -22h49v337h-54q-51 0 -73 -27t-22 -64v-153z M500 284q0 50 -30 71.5t-70 21.5h-49v-337h54q51 0 73 27t22 64v153z" />
<glyph unicode="&#x279;" d="M105 73q5 0 31 -21t51 -21q34 0 70.5 24t119.5 100v221h-179q-27 0 -27 21q0 20 27 20h316q27 0 27 -21q0 -20 -27 -20h-96v-335h75q27 0 27 -21q0 -20 -27 -20h-116v102q-69 -63 -112 -87.5t-81 -24.5q-40 0 -70 24t-30 38q0 9 6 15t15 6z" />
<glyph unicode="&#x27a;" d="M105 73q5 0 31 -21t51 -21q34 0 70.5 24t119.5 100v407h-179q-27 0 -27 21q0 20 27 20h316q27 0 27 -21q0 -20 -27 -20h-96v-521h75q27 0 27 -21q0 -20 -27 -20h-116v102q-69 -63 -112 -87.5t-81 -24.5q-40 0 -70 24t-30 38q0 9 6 15t15 6z" />
<glyph unicode="&#x27b;" d="M73 73q5 0 31 -21t51 -21q34 0 70.5 24t119.5 100v221h-179q-27 0 -27 21q0 20 27 20h316q27 0 27 -21q0 -20 -27 -20h-96v-418q0 -51 29.5 -83.5t75.5 -32.5q21 0 44 6.5t26 6.5q7 0 12.5 -6t5.5 -14q0 -18 -31 -26t-56 -8q-61 0 -104 44t-43 107v150 q-69 -63 -112 -87.5t-81 -24.5q-40 0 -70 24t-30 38q0 9 6 15t15 6z" />
<glyph unicode="&#x27c;" d="M520 344q-5 0 -31 21t-51 21q-34 0 -70.5 -24t-119.5 -100v-407h179q27 0 27 -21q0 -20 -27 -20h-316q-27 0 -27 21q0 20 27 20h96v521h-75q-27 0 -27 21q0 20 27 20h116v-102q69 63 112 87.5t81 24.5q40 0 70 -24t30 -38q0 -9 -6 -15t-15 -6z" />
<glyph unicode="&#x27d;" d="M520 344q-5 0 -31 21t-51 21q-34 0 -70.5 -24t-119.5 -100v-304q0 -51 29.5 -83.5t75.5 -32.5q21 0 44 6.5t26 6.5q7 0 12.5 -6t5.5 -14q0 -18 -31 -26t-56 -8q-61 0 -104 44t-43 107v424h-75q-27 0 -27 21q0 20 27 20h116v-102q69 63 112 87.5t81 24.5q40 0 70 -24 t30 -38q0 -9 -6 -15t-15 -6z" />
<glyph unicode="&#x27e;" d="M427 0h-316q-27 0 -27 20q0 21 27 21h96v218q0 70 43.5 114t111.5 44h129q27 0 27 -21q0 -20 -27 -20h-128q-50 0 -82.5 -33t-32.5 -84v-218h179q27 0 27 -21q0 -20 -27 -20z" />
<glyph unicode="&#x27f;" d="M175 -200q-27 0 -27 20q0 21 27 21h179v418q0 51 -32.5 84t-82.5 33h-128q-27 0 -27 20q0 21 27 21h129q68 0 111.5 -44t43.5 -114v-418h96q27 0 27 -21q0 -20 -27 -20h-316z" />
<glyph unicode="&#x280;" d="M170 181v-140h63q11 0 17.5 -6t6.5 -14q0 -21 -24 -21h-149q-24 0 -24 21q0 8 6.5 14t17.5 6h45v333h-45q-11 0 -17.5 7t-6.5 15t6.5 14.5t17.5 6.5h218q64 0 111 -34.5t47 -81.5q0 -36 -32 -64.5t-90 -42.5q42 -23 71.5 -51.5t79.5 -101.5h27q11 0 17.5 -6t6.5 -14 q0 -21 -24 -21h-50q-56 88 -93.5 124.5t-89.5 56.5h-113zM419 301q0 20 -14 35.5t-34.5 23t-38.5 11t-30 3.5h-132v-153h97q59 0 105.5 25t46.5 55z" />
<glyph unicode="&#x281;" d="M170 236h113q52 20 89.5 56.5t93.5 124.5h50q24 0 24 -21q0 -8 -6.5 -14t-17.5 -6h-27q-50 -73 -79.5 -101.5t-71.5 -51.5q58 -14 90 -42.5t32 -64.5q0 -47 -47 -81.5t-111 -34.5h-218q-11 0 -17.5 6.5t-6.5 14.5t6.5 15t17.5 7h45v333h-45q-11 0 -17.5 6t-6.5 14 q0 21 24 21h149q24 0 24 -21q0 -8 -6.5 -14t-17.5 -6h-63v-140zM419 116q0 30 -46.5 55t-105.5 25h-97v-153h132q12 0 30 3.5t38.5 11t34.5 23t14 35.5z" />
<glyph unicode="&#x282;" d="M452 117q0 37 -34 57t-82 27t-96 15t-82 33t-34 69q0 49 48.5 81t122.5 32q85 0 137 -46v4q0 28 21 28q20 0 20 -28v-69q0 -27 -20 -27q-18 0 -21 23q-4 34 -40 54t-93 20q-56 0 -93 -21.5t-37 -53.5q0 -30 31 -45t71.5 -18.5t92.5 -14.5t83 -31q50 -34 50 -90 q0 -57 -55.5 -94.5t-140.5 -37.5q-96 0 -157 54v-80q0 -51 29.5 -83.5t75.5 -32.5q21 0 44 6.5t26 6.5q7 0 12.5 -6t5.5 -14q0 -18 -31 -26t-56 -8q-61 0 -104 44t-43 107v158q0 27 21 27q20 0 20 -22v-7q0 -34 45 -58.5t109 -24.5q66 0 110 26t44 66z" />
<glyph unicode="&#x283;" d="M499 566q-2 0 -22.5 5.5t-41.5 5.5q-51 0 -82.5 -32t-31.5 -83v-404q0 -63 -43 -107t-104 -44q-25 0 -56 8t-31 26q0 8 5.5 14t12.5 6q3 0 26 -6.5t44 -6.5q46 0 75.5 32.5t29.5 83.5v398q0 65 43.5 110.5t107.5 45.5q25 0 56 -7.5t31 -24.5q0 -8 -5.5 -14t-13.5 -6z" />
<glyph unicode="&#x284;" d="M499 566q-2 0 -22.5 5.5t-41.5 5.5q-51 0 -82.5 -32t-31.5 -83v-421h96q27 0 27 -20q0 -21 -27 -21h-107q-17 -42 -53.5 -67.5t-82.5 -25.5q-25 0 -56 8t-31 26q0 8 5.5 14t12.5 6q3 0 26 -6.5t44 -6.5q60 0 89 52h-80q-27 0 -27 21q0 20 27 20h94q2 14 2 23v398 q0 65 43.5 110.5t107.5 45.5q25 0 56 -7.5t31 -24.5q0 -8 -5.5 -14t-13.5 -6z" />
<glyph unicode="&#x285;" d="M518 -59q0 -18 -31 -26t-56 -8q-61 0 -104 44t-43 107v404q0 51 -31.5 83t-82.5 32q-21 0 -41 -5.5t-23 -5.5q-8 0 -13.5 6t-5.5 14q0 17 31 24.5t56 7.5q64 0 107.5 -45.5t43.5 -110.5v-398q0 -51 29.5 -83.5t75.5 -32.5q21 0 43.5 6.5t26.5 6.5q7 0 12.5 -6t5.5 -14z " />
</font>
</defs>
</svg>
