<svg xmlns="http://www.w3.org/2000/svg" xmlns:xlink="http://www.w3.org/1999/xlink" version="1.1" id="Layer_1" x="0px" y="0px" width="69.328px" height="100px" viewBox="0 0 69.328 100" enable-background="new 0 0 69.328 100" xml:space="preserve">
<g>
	<path fill="white" d="M56.072,26.527c0-0.795-0.625-1.628-1.389-1.85L13.319,12.686c-0.765-0.221-0.872-0.797-0.239-1.279l3.665-2.79   c0.633-0.481,1.777-0.694,2.54-0.472l41.29,11.991c0.764,0.222,1.389,1.055,1.389,1.85V86.99c0,0-0.492,0.427-1.092,0.95   l-3.707,3.219c-0.6,0.523-1.092,0.299-1.092-0.497V26.527z"/>
	<path fill="white" d="M67.969,14.562L17.283-0.147c-0.568-0.158-0.568-0.158-0.568-0.158c-0.592,0.257-1.593,0.861-2.226,1.343L0.66,11.565   C0,12.062,0,12.197,0,12.197c0,0.795,0,2.098,0,2.894v68.306c0,0.796,0.626,1.628,1.391,1.85L51.066,99.64   c0.764,0.222,1.391-0.248,1.391-1.044V29.244c0-0.796-0.627-1.628-1.391-1.849l-3.237-0.938v23.475l-7.397-10.563l-6.217,6.347   V22.509l-28.802-8.35c-0.764-0.221-0.871-0.796-0.238-1.278l10.829-8.244c0.633-0.482,1.777-0.694,2.54-0.473L64.191,17.42   c0.764,0.222,1.389,1.055,1.389,1.85v69.37c0,0.795,0.65,1.446,1.447,1.446h0.854c0.797,0,1.447-0.651,1.447-1.446V16.393   C69.328,15.541,68.771,14.796,67.969,14.562z"/>
	<polygon fill="white" points="37.109,38.58 40.801,34.809 44.937,40.712 44.937,25.467 37.109,23.195  "/>
</g>
</svg>
