<svg xmlns="http://www.w3.org/2000/svg" xmlns:xlink="http://www.w3.org/1999/xlink" version="1.1" id="Livello_1" x="0px" y="0px" width="100px" height="100px" viewBox="-45 -45 100 100" enable-background="new -45 -45 100 100" xml:space="preserve" stroke="white" fill="white">
<path d="M3.385,43.237c0,1.327-1.015,2.048-2.268,1.591l-23.093-8.278c-1.252-0.448-2.276-1.898-2.276-3.234V-0.886  c0-1.323,1.024-2.043,2.267-1.595L1.108,5.798C2.37,6.25,3.385,7.696,3.385,9.022V43.237z"/>
<path d="M6.602,43.237c0,1.327,1.015,2.048,2.268,1.591l23.092-8.278c1.248-0.448,2.268-1.898,2.268-3.217V-0.886  c0-1.323-1.02-2.043-2.268-1.595L8.869,5.798C7.625,6.25,6.602,7.696,6.602,9.022V43.237z"/>
<path d="M1.407,2.027C2.506,2.774,2.37,3.029,1.126,2.585l-23.102-8.288c-1.252-0.453-3.168-1.433-4.258-2.188l-13.021-8.942  c-1.099-0.747-0.962-1.002,0.277-0.549l23.097,8.279c1.248,0.448,3.168,1.428,4.254,2.175L1.407,2.027z"/>
<g>
	<path d="M-11.653-33.8c-0.883-0.989-2.628-1.441-3.867-0.989l-23.097,8.2c-1.248,0.448-1.547,1.617-0.664,2.61l3.111,3.516   c0.883,0.993,2.628,2.171,3.872,2.619l16.91,6.064c1.252,0.453,3.296,0.453,4.548,0.013l11.957-4.258   c1.252-0.439,1.56-1.622,0.677-2.61L-11.653-33.8z"/>
</g>
<path d="M8.588,2.027c-1.099,0.747-0.963,1.002,0.29,0.549L31.97-5.711c1.257-0.453,3.173-1.433,4.263-2.18l13.025-8.951  c1.09-0.747,0.967-1.002-0.281-0.549L25.88-9.104c-1.248,0.448-3.173,1.428-4.254,2.175L8.588,2.027z"/>
<g>
	<path d="M21.661-33.8c0.879-0.989,2.619-1.441,3.867-0.989l23.079,8.2c1.266,0.439,1.564,1.617,0.677,2.61l-3.12,3.516   c-0.879,0.993-2.619,2.171-3.867,2.619L25.388-11.78c-1.248,0.453-3.287,0.453-4.535,0.013L8.878-16.025   c-1.253-0.439-1.561-1.622-0.677-2.61L21.661-33.8z"/>
</g>
</svg>
