<svg xmlns="http://www.w3.org/2000/svg" xmlns:xlink="http://www.w3.org/1999/xlink" version="1.1" x="0px" y="0px" viewBox="0 0 100 100" enable-background="new 0 0 100 100" xml:space="preserve"><path fill="#ffffff" d="M40-0.021l23,0.04c0,0-0.576,10.537,7.413,15.627s19.703,1.016,19.703,1.016l9.917,16.8  c0,0-9.964,6.223-9.98,14.222c-0.016,8,9.913,18.751,9.913,18.751L89.592,83.389c0,0-9.939-5.874-18.828-0.038  c-8.89,5.836-9.691,15.979-9.691,15.979l-19.512-0.04c0,0,0.413-10.339-7.771-15.818c-8.184-5.479-20.68-0.823-20.68-0.823  L4.167,66.24c0,0,8.208-6.227,9.009-16.565c0.801-10.339-8.941-16.798-8.941-16.798l9.204-16.761c0,0,11.307,5.095,20.098-0.35  C42.329,10.321,40-0.021,40-0.021z M52.054,23.054c-14.882-0.03-26.972,12.009-27.002,26.893c-0.031,14.878,12.009,26.968,26.891,27  c14.883,0.033,26.973-12.008,27.006-26.89C78.976,35.173,66.935,23.085,52.054,23.054z"></path></svg>
