<svg xmlns="http://www.w3.org/2000/svg" xmlns:xlink="http://www.w3.org/1999/xlink" version="1.1" id="Layer_1" x="0px" y="0px" width="95.421px" height="90.213px" viewBox="0 0 95.421 90.213" enable-background="new 0 0 95.421 90.213" xml:space="preserve" stroke="white" fill="white">
<path d="M6.301,90.211C2.818,90.209,0.002,87.394,0,83.913l0,0V18.394c0.002-3.481,2.818-6.297,6.301-6.299l0,0h33.782l-9.003,9H9  v60.117l57.469,0.002V69.125l9.002-9l-0.002,23.788c-0.003,3.479-2.818,6.296-6.3,6.3l0,0L6.301,90.211L6.301,90.211z"/>
<path d="M66.171,11.301V0l29.25,29.25L66.046,58.625v-11.75c0,0-14.586-2.894-29.583,6.458  c-8.209,5.084-13.752,11.773-17.167,17.042c0,0,1.11-18.25,11.61-34.875C44.033,14.716,66.171,11.301,66.171,11.301z"/>
<path fill="#000000" d="M225.3,90.211c-3.482-0.002-6.299-2.817-6.301-6.298l0,0V18.394c0.002-3.481,2.818-6.297,6.301-6.299l0,0  h33.783l-9.004,9H228v60.117l57.47,0.002V69.125l9.002-9l-0.002,23.788c-0.003,3.479-2.818,6.296-6.3,6.3l0,0L225.3,90.211  L225.3,90.211z"/>
<path fill="#000000" d="M285.171,11.301V0l29.25,29.25l-29.375,29.375v-11.75c0,0-17.23-1.192-29.584,6.458  c-8.209,5.084-13.104,10.167-17.166,17.042c0,0,1.109-18.25,11.609-34.875C263.033,14.716,285.171,11.301,285.171,11.301z"/>
</svg>
